%TF.GenerationSoftware,KiCad,Pcbnew,(5.0.2)-1*%
%TF.CreationDate,2019-09-06T13:10:14+02:00*%
%TF.ProjectId,Connected-OldtimerHardware,436f6e6e-6563-4746-9564-2d4f6c647469,rev?*%
%TF.SameCoordinates,Original*%
%TF.FileFunction,Legend,Bot*%
%TF.FilePolarity,Positive*%
%FSLAX46Y46*%
G04 Gerber Fmt 4.6, Leading zero omitted, Abs format (unit mm)*
G04 Created by KiCad (PCBNEW (5.0.2)-1) date 06/09/2019 13:10:15*
%MOMM*%
%LPD*%
G01*
G04 APERTURE LIST*
%ADD10C,0.300000*%
%ADD11C,0.010000*%
G04 APERTURE END LIST*
D10*
X110378571Y-64142857D02*
X111878571Y-64642857D01*
X110378571Y-65142857D01*
X111878571Y-67571428D02*
X111878571Y-66714285D01*
X111878571Y-67142857D02*
X110378571Y-67142857D01*
X110592857Y-67000000D01*
X110735714Y-66857142D01*
X110807142Y-66714285D01*
X111735714Y-68214285D02*
X111807142Y-68285714D01*
X111878571Y-68214285D01*
X111807142Y-68142857D01*
X111735714Y-68214285D01*
X111878571Y-68214285D01*
X110378571Y-69214285D02*
X110378571Y-69357142D01*
X110450000Y-69500000D01*
X110521428Y-69571428D01*
X110664285Y-69642857D01*
X110950000Y-69714285D01*
X111307142Y-69714285D01*
X111592857Y-69642857D01*
X111735714Y-69571428D01*
X111807142Y-69500000D01*
X111878571Y-69357142D01*
X111878571Y-69214285D01*
X111807142Y-69071428D01*
X111735714Y-69000000D01*
X111592857Y-68928571D01*
X111307142Y-68857142D01*
X110950000Y-68857142D01*
X110664285Y-68928571D01*
X110521428Y-69000000D01*
X110450000Y-69071428D01*
X110378571Y-69214285D01*
X109178571Y-64278571D02*
X107678571Y-64278571D01*
X108392857Y-64278571D02*
X108392857Y-65135714D01*
X109178571Y-65135714D02*
X107678571Y-65135714D01*
X109107142Y-66421428D02*
X109178571Y-66278571D01*
X109178571Y-65992857D01*
X109107142Y-65850000D01*
X108964285Y-65778571D01*
X108392857Y-65778571D01*
X108250000Y-65850000D01*
X108178571Y-65992857D01*
X108178571Y-66278571D01*
X108250000Y-66421428D01*
X108392857Y-66492857D01*
X108535714Y-66492857D01*
X108678571Y-65778571D01*
X109178571Y-67778571D02*
X108392857Y-67778571D01*
X108250000Y-67707142D01*
X108178571Y-67564285D01*
X108178571Y-67278571D01*
X108250000Y-67135714D01*
X109107142Y-67778571D02*
X109178571Y-67635714D01*
X109178571Y-67278571D01*
X109107142Y-67135714D01*
X108964285Y-67064285D01*
X108821428Y-67064285D01*
X108678571Y-67135714D01*
X108607142Y-67278571D01*
X108607142Y-67635714D01*
X108535714Y-67778571D01*
X108178571Y-68278571D02*
X108178571Y-68850000D01*
X107678571Y-68492857D02*
X108964285Y-68492857D01*
X109107142Y-68564285D01*
X109178571Y-68707142D01*
X109178571Y-68850000D01*
X109178571Y-69350000D02*
X107678571Y-69350000D01*
X109178571Y-69992857D02*
X108392857Y-69992857D01*
X108250000Y-69921428D01*
X108178571Y-69778571D01*
X108178571Y-69564285D01*
X108250000Y-69421428D01*
X108321428Y-69350000D01*
X109178571Y-72564285D02*
X109178571Y-71850000D01*
X107678571Y-71850000D01*
X109107142Y-73635714D02*
X109178571Y-73492857D01*
X109178571Y-73207142D01*
X109107142Y-73064285D01*
X108964285Y-72992857D01*
X108392857Y-72992857D01*
X108250000Y-73064285D01*
X108178571Y-73207142D01*
X108178571Y-73492857D01*
X108250000Y-73635714D01*
X108392857Y-73707142D01*
X108535714Y-73707142D01*
X108678571Y-72992857D01*
X109107142Y-74921428D02*
X109178571Y-74778571D01*
X109178571Y-74492857D01*
X109107142Y-74350000D01*
X108964285Y-74278571D01*
X108392857Y-74278571D01*
X108250000Y-74350000D01*
X108178571Y-74492857D01*
X108178571Y-74778571D01*
X108250000Y-74921428D01*
X108392857Y-74992857D01*
X108535714Y-74992857D01*
X108678571Y-74278571D01*
X106278571Y-64157142D02*
X104778571Y-64157142D01*
X104778571Y-64514285D01*
X104850000Y-64728571D01*
X104992857Y-64871428D01*
X105135714Y-64942857D01*
X105421428Y-65014285D01*
X105635714Y-65014285D01*
X105921428Y-64942857D01*
X106064285Y-64871428D01*
X106207142Y-64728571D01*
X106278571Y-64514285D01*
X106278571Y-64157142D01*
X106207142Y-66228571D02*
X106278571Y-66085714D01*
X106278571Y-65800000D01*
X106207142Y-65657142D01*
X106064285Y-65585714D01*
X105492857Y-65585714D01*
X105350000Y-65657142D01*
X105278571Y-65800000D01*
X105278571Y-66085714D01*
X105350000Y-66228571D01*
X105492857Y-66300000D01*
X105635714Y-66300000D01*
X105778571Y-65585714D01*
X106207142Y-66871428D02*
X106278571Y-67014285D01*
X106278571Y-67300000D01*
X106207142Y-67442857D01*
X106064285Y-67514285D01*
X105992857Y-67514285D01*
X105850000Y-67442857D01*
X105778571Y-67300000D01*
X105778571Y-67085714D01*
X105707142Y-66942857D01*
X105564285Y-66871428D01*
X105492857Y-66871428D01*
X105350000Y-66942857D01*
X105278571Y-67085714D01*
X105278571Y-67300000D01*
X105350000Y-67442857D01*
X106278571Y-68157142D02*
X105278571Y-68157142D01*
X104778571Y-68157142D02*
X104850000Y-68085714D01*
X104921428Y-68157142D01*
X104850000Y-68228571D01*
X104778571Y-68157142D01*
X104921428Y-68157142D01*
X105278571Y-69514285D02*
X106492857Y-69514285D01*
X106635714Y-69442857D01*
X106707142Y-69371428D01*
X106778571Y-69228571D01*
X106778571Y-69014285D01*
X106707142Y-68871428D01*
X106207142Y-69514285D02*
X106278571Y-69371428D01*
X106278571Y-69085714D01*
X106207142Y-68942857D01*
X106135714Y-68871428D01*
X105992857Y-68800000D01*
X105564285Y-68800000D01*
X105421428Y-68871428D01*
X105350000Y-68942857D01*
X105278571Y-69085714D01*
X105278571Y-69371428D01*
X105350000Y-69514285D01*
X105278571Y-70228571D02*
X106278571Y-70228571D01*
X105421428Y-70228571D02*
X105350000Y-70300000D01*
X105278571Y-70442857D01*
X105278571Y-70657142D01*
X105350000Y-70800000D01*
X105492857Y-70871428D01*
X106278571Y-70871428D01*
X106207142Y-72157142D02*
X106278571Y-72014285D01*
X106278571Y-71728571D01*
X106207142Y-71585714D01*
X106064285Y-71514285D01*
X105492857Y-71514285D01*
X105350000Y-71585714D01*
X105278571Y-71728571D01*
X105278571Y-72014285D01*
X105350000Y-72157142D01*
X105492857Y-72228571D01*
X105635714Y-72228571D01*
X105778571Y-71514285D01*
X106278571Y-73514285D02*
X104778571Y-73514285D01*
X106207142Y-73514285D02*
X106278571Y-73371428D01*
X106278571Y-73085714D01*
X106207142Y-72942857D01*
X106135714Y-72871428D01*
X105992857Y-72800000D01*
X105564285Y-72800000D01*
X105421428Y-72871428D01*
X105350000Y-72942857D01*
X105278571Y-73085714D01*
X105278571Y-73371428D01*
X105350000Y-73514285D01*
X106278571Y-75371428D02*
X105278571Y-75371428D01*
X104778571Y-75371428D02*
X104850000Y-75300000D01*
X104921428Y-75371428D01*
X104850000Y-75442857D01*
X104778571Y-75371428D01*
X104921428Y-75371428D01*
X105278571Y-76085714D02*
X106278571Y-76085714D01*
X105421428Y-76085714D02*
X105350000Y-76157142D01*
X105278571Y-76300000D01*
X105278571Y-76514285D01*
X105350000Y-76657142D01*
X105492857Y-76728571D01*
X106278571Y-76728571D01*
X104850000Y-79371428D02*
X104778571Y-79228571D01*
X104778571Y-79014285D01*
X104850000Y-78800000D01*
X104992857Y-78657142D01*
X105135714Y-78585714D01*
X105421428Y-78514285D01*
X105635714Y-78514285D01*
X105921428Y-78585714D01*
X106064285Y-78657142D01*
X106207142Y-78800000D01*
X106278571Y-79014285D01*
X106278571Y-79157142D01*
X106207142Y-79371428D01*
X106135714Y-79442857D01*
X105635714Y-79442857D01*
X105635714Y-79157142D01*
X106207142Y-80657142D02*
X106278571Y-80514285D01*
X106278571Y-80228571D01*
X106207142Y-80085714D01*
X106064285Y-80014285D01*
X105492857Y-80014285D01*
X105350000Y-80085714D01*
X105278571Y-80228571D01*
X105278571Y-80514285D01*
X105350000Y-80657142D01*
X105492857Y-80728571D01*
X105635714Y-80728571D01*
X105778571Y-80014285D01*
X106278571Y-81371428D02*
X105278571Y-81371428D01*
X105564285Y-81371428D02*
X105421428Y-81442857D01*
X105350000Y-81514285D01*
X105278571Y-81657142D01*
X105278571Y-81800000D01*
X106278571Y-82300000D02*
X105278571Y-82300000D01*
X105421428Y-82300000D02*
X105350000Y-82371428D01*
X105278571Y-82514285D01*
X105278571Y-82728571D01*
X105350000Y-82871428D01*
X105492857Y-82942857D01*
X106278571Y-82942857D01*
X105492857Y-82942857D02*
X105350000Y-83014285D01*
X105278571Y-83157142D01*
X105278571Y-83371428D01*
X105350000Y-83514285D01*
X105492857Y-83585714D01*
X106278571Y-83585714D01*
X106278571Y-84942857D02*
X105492857Y-84942857D01*
X105350000Y-84871428D01*
X105278571Y-84728571D01*
X105278571Y-84442857D01*
X105350000Y-84300000D01*
X106207142Y-84942857D02*
X106278571Y-84800000D01*
X106278571Y-84442857D01*
X106207142Y-84300000D01*
X106064285Y-84228571D01*
X105921428Y-84228571D01*
X105778571Y-84300000D01*
X105707142Y-84442857D01*
X105707142Y-84800000D01*
X105635714Y-84942857D01*
X105278571Y-85657142D02*
X106278571Y-85657142D01*
X105421428Y-85657142D02*
X105350000Y-85728571D01*
X105278571Y-85871428D01*
X105278571Y-86085714D01*
X105350000Y-86228571D01*
X105492857Y-86300000D01*
X106278571Y-86300000D01*
X105278571Y-86871428D02*
X106278571Y-87228571D01*
X105278571Y-87585714D02*
X106278571Y-87228571D01*
X106635714Y-87085714D01*
X106707142Y-87014285D01*
X106778571Y-86871428D01*
X103035714Y-65071428D02*
X103107142Y-65000000D01*
X103178571Y-64785714D01*
X103178571Y-64642857D01*
X103107142Y-64428571D01*
X102964285Y-64285714D01*
X102821428Y-64214285D01*
X102535714Y-64142857D01*
X102321428Y-64142857D01*
X102035714Y-64214285D01*
X101892857Y-64285714D01*
X101750000Y-64428571D01*
X101678571Y-64642857D01*
X101678571Y-64785714D01*
X101750000Y-65000000D01*
X101821428Y-65071428D01*
X103178571Y-65928571D02*
X103107142Y-65785714D01*
X103035714Y-65714285D01*
X102892857Y-65642857D01*
X102464285Y-65642857D01*
X102321428Y-65714285D01*
X102250000Y-65785714D01*
X102178571Y-65928571D01*
X102178571Y-66142857D01*
X102250000Y-66285714D01*
X102321428Y-66357142D01*
X102464285Y-66428571D01*
X102892857Y-66428571D01*
X103035714Y-66357142D01*
X103107142Y-66285714D01*
X103178571Y-66142857D01*
X103178571Y-65928571D01*
X102178571Y-67071428D02*
X103178571Y-67071428D01*
X102321428Y-67071428D02*
X102250000Y-67142857D01*
X102178571Y-67285714D01*
X102178571Y-67500000D01*
X102250000Y-67642857D01*
X102392857Y-67714285D01*
X103178571Y-67714285D01*
X102178571Y-68428571D02*
X103178571Y-68428571D01*
X102321428Y-68428571D02*
X102250000Y-68500000D01*
X102178571Y-68642857D01*
X102178571Y-68857142D01*
X102250000Y-69000000D01*
X102392857Y-69071428D01*
X103178571Y-69071428D01*
X103107142Y-70357142D02*
X103178571Y-70214285D01*
X103178571Y-69928571D01*
X103107142Y-69785714D01*
X102964285Y-69714285D01*
X102392857Y-69714285D01*
X102250000Y-69785714D01*
X102178571Y-69928571D01*
X102178571Y-70214285D01*
X102250000Y-70357142D01*
X102392857Y-70428571D01*
X102535714Y-70428571D01*
X102678571Y-69714285D01*
X103107142Y-71714285D02*
X103178571Y-71571428D01*
X103178571Y-71285714D01*
X103107142Y-71142857D01*
X103035714Y-71071428D01*
X102892857Y-71000000D01*
X102464285Y-71000000D01*
X102321428Y-71071428D01*
X102250000Y-71142857D01*
X102178571Y-71285714D01*
X102178571Y-71571428D01*
X102250000Y-71714285D01*
X102178571Y-72142857D02*
X102178571Y-72714285D01*
X101678571Y-72357142D02*
X102964285Y-72357142D01*
X103107142Y-72428571D01*
X103178571Y-72571428D01*
X103178571Y-72714285D01*
X103107142Y-73785714D02*
X103178571Y-73642857D01*
X103178571Y-73357142D01*
X103107142Y-73214285D01*
X102964285Y-73142857D01*
X102392857Y-73142857D01*
X102250000Y-73214285D01*
X102178571Y-73357142D01*
X102178571Y-73642857D01*
X102250000Y-73785714D01*
X102392857Y-73857142D01*
X102535714Y-73857142D01*
X102678571Y-73142857D01*
X103178571Y-75142857D02*
X101678571Y-75142857D01*
X103107142Y-75142857D02*
X103178571Y-75000000D01*
X103178571Y-74714285D01*
X103107142Y-74571428D01*
X103035714Y-74500000D01*
X102892857Y-74428571D01*
X102464285Y-74428571D01*
X102321428Y-74500000D01*
X102250000Y-74571428D01*
X102178571Y-74714285D01*
X102178571Y-75000000D01*
X102250000Y-75142857D01*
X101678571Y-77285714D02*
X101678571Y-77571428D01*
X101750000Y-77714285D01*
X101892857Y-77857142D01*
X102178571Y-77928571D01*
X102678571Y-77928571D01*
X102964285Y-77857142D01*
X103107142Y-77714285D01*
X103178571Y-77571428D01*
X103178571Y-77285714D01*
X103107142Y-77142857D01*
X102964285Y-76999999D01*
X102678571Y-76928571D01*
X102178571Y-76928571D01*
X101892857Y-76999999D01*
X101750000Y-77142857D01*
X101678571Y-77285714D01*
X103178571Y-78785714D02*
X103107142Y-78642857D01*
X102964285Y-78571428D01*
X101678571Y-78571428D01*
X103178571Y-79999999D02*
X101678571Y-79999999D01*
X103107142Y-79999999D02*
X103178571Y-79857142D01*
X103178571Y-79571428D01*
X103107142Y-79428571D01*
X103035714Y-79357142D01*
X102892857Y-79285714D01*
X102464285Y-79285714D01*
X102321428Y-79357142D01*
X102250000Y-79428571D01*
X102178571Y-79571428D01*
X102178571Y-79857142D01*
X102250000Y-79999999D01*
X102178571Y-80499999D02*
X102178571Y-81071428D01*
X101678571Y-80714285D02*
X102964285Y-80714285D01*
X103107142Y-80785714D01*
X103178571Y-80928571D01*
X103178571Y-81071428D01*
X103178571Y-81571428D02*
X102178571Y-81571428D01*
X101678571Y-81571428D02*
X101750000Y-81499999D01*
X101821428Y-81571428D01*
X101750000Y-81642857D01*
X101678571Y-81571428D01*
X101821428Y-81571428D01*
X103178571Y-82285714D02*
X102178571Y-82285714D01*
X102321428Y-82285714D02*
X102250000Y-82357142D01*
X102178571Y-82499999D01*
X102178571Y-82714285D01*
X102250000Y-82857142D01*
X102392857Y-82928571D01*
X103178571Y-82928571D01*
X102392857Y-82928571D02*
X102250000Y-82999999D01*
X102178571Y-83142857D01*
X102178571Y-83357142D01*
X102250000Y-83499999D01*
X102392857Y-83571428D01*
X103178571Y-83571428D01*
X103107142Y-84857142D02*
X103178571Y-84714285D01*
X103178571Y-84428571D01*
X103107142Y-84285714D01*
X102964285Y-84214285D01*
X102392857Y-84214285D01*
X102250000Y-84285714D01*
X102178571Y-84428571D01*
X102178571Y-84714285D01*
X102250000Y-84857142D01*
X102392857Y-84928571D01*
X102535714Y-84928571D01*
X102678571Y-84214285D01*
X103178571Y-85571428D02*
X102178571Y-85571428D01*
X102464285Y-85571428D02*
X102321428Y-85642857D01*
X102250000Y-85714285D01*
X102178571Y-85857142D01*
X102178571Y-85999999D01*
D11*
G36*
X107787450Y-91455365D02*
X107788028Y-90961193D01*
X107789200Y-90538284D01*
X107791122Y-90179934D01*
X107793949Y-89879444D01*
X107797835Y-89630109D01*
X107802935Y-89425229D01*
X107809403Y-89258101D01*
X107817395Y-89122024D01*
X107827066Y-89010295D01*
X107838569Y-88916213D01*
X107852060Y-88833075D01*
X107862296Y-88780119D01*
X107937965Y-88461853D01*
X108034300Y-88138077D01*
X108144808Y-87825235D01*
X108262994Y-87539775D01*
X108382367Y-87298141D01*
X108496431Y-87116781D01*
X108539922Y-87063917D01*
X108663256Y-86986713D01*
X108813839Y-86972709D01*
X108961540Y-87022849D01*
X108999560Y-87049544D01*
X109099500Y-87130422D01*
X109111864Y-88404211D01*
X109124229Y-89678000D01*
X109586333Y-89678000D01*
X109586569Y-89413417D01*
X109599931Y-89154808D01*
X109645289Y-88953895D01*
X109731336Y-88786978D01*
X109866772Y-88630356D01*
X109877804Y-88619667D01*
X109938057Y-88564290D01*
X110000447Y-88515240D01*
X110074744Y-88468231D01*
X110170717Y-88418977D01*
X110298135Y-88363190D01*
X110466768Y-88296583D01*
X110686387Y-88214871D01*
X110966760Y-88113765D01*
X111304586Y-87993615D01*
X111622142Y-87881513D01*
X111924653Y-87775645D01*
X112199947Y-87680198D01*
X112435852Y-87599363D01*
X112620197Y-87537330D01*
X112740808Y-87498287D01*
X112763592Y-87491437D01*
X112846427Y-87472271D01*
X112956198Y-87456249D01*
X113101695Y-87442918D01*
X113291705Y-87431825D01*
X113535019Y-87422516D01*
X113840423Y-87414538D01*
X114216708Y-87407436D01*
X114465646Y-87403617D01*
X115937125Y-87382420D01*
X115962516Y-87281252D01*
X116011455Y-87186975D01*
X116098403Y-87087674D01*
X116113535Y-87074376D01*
X116182808Y-87022966D01*
X116256108Y-86991494D01*
X116356165Y-86975179D01*
X116505709Y-86969241D01*
X116616247Y-86968667D01*
X116799405Y-86970444D01*
X116920935Y-86979450D01*
X117003856Y-87001198D01*
X117071189Y-87041202D01*
X117131582Y-87092089D01*
X117269833Y-87215510D01*
X117283390Y-87801172D01*
X117288021Y-88036691D01*
X117287881Y-88204295D01*
X117281021Y-88320687D01*
X117265494Y-88402573D01*
X117239351Y-88466656D01*
X117200644Y-88529641D01*
X117197957Y-88533636D01*
X117084323Y-88654090D01*
X116962150Y-88719677D01*
X116882438Y-88747758D01*
X116841847Y-88789368D01*
X116827208Y-88869744D01*
X116825333Y-88981903D01*
X116825333Y-89204892D01*
X117005250Y-89233557D01*
X117311181Y-89320097D01*
X117592168Y-89471678D01*
X117832336Y-89675901D01*
X118015813Y-89920368D01*
X118092751Y-90082984D01*
X118170754Y-90402291D01*
X118171531Y-90718140D01*
X118101365Y-91019264D01*
X117966538Y-91294391D01*
X117773332Y-91532255D01*
X117528028Y-91721585D01*
X117236910Y-91851113D01*
X117086497Y-91888043D01*
X116857733Y-91930585D01*
X116857733Y-91487083D01*
X116901413Y-91483348D01*
X117174483Y-91419695D01*
X117402738Y-91293244D01*
X117579492Y-91115853D01*
X117698060Y-90899380D01*
X117751754Y-90655683D01*
X117733888Y-90396620D01*
X117649432Y-90156765D01*
X117495791Y-89934854D01*
X117295381Y-89775251D01*
X117062448Y-89681560D01*
X116811238Y-89657390D01*
X116555995Y-89706347D01*
X116325969Y-89821692D01*
X116126203Y-89996238D01*
X116001128Y-90203176D01*
X115946316Y-90451763D01*
X115944942Y-90618093D01*
X115989796Y-90887850D01*
X116097100Y-91105095D01*
X116273829Y-91280537D01*
X116444595Y-91385245D01*
X116596678Y-91455380D01*
X116720559Y-91486356D01*
X116857733Y-91487083D01*
X116857733Y-91930585D01*
X116825333Y-91936611D01*
X116825333Y-96481874D01*
X117033700Y-96506552D01*
X117324312Y-96581770D01*
X117597003Y-96729918D01*
X117835795Y-96939280D01*
X118024707Y-97198141D01*
X118055525Y-97255667D01*
X118111179Y-97413968D01*
X118150552Y-97618780D01*
X118170646Y-97838134D01*
X118168460Y-98040063D01*
X118142899Y-98187000D01*
X118016165Y-98465083D01*
X117835928Y-98711646D01*
X117616080Y-98915196D01*
X117370516Y-99064236D01*
X117113130Y-99147274D01*
X116965959Y-99160667D01*
X116846122Y-99160667D01*
X116846122Y-98736604D01*
X117074190Y-98710842D01*
X117291293Y-98627267D01*
X117485128Y-98483192D01*
X117643392Y-98275930D01*
X117678725Y-98208167D01*
X117742562Y-97986700D01*
X117746830Y-97740212D01*
X117693873Y-97501438D01*
X117617030Y-97345630D01*
X117436235Y-97140870D01*
X117216795Y-97000958D01*
X116973738Y-96928152D01*
X116722094Y-96924714D01*
X116476890Y-96992903D01*
X116253155Y-97134978D01*
X116247708Y-97139724D01*
X116067198Y-97347169D01*
X115964515Y-97586649D01*
X115936333Y-97827583D01*
X115971857Y-98092269D01*
X116070226Y-98315265D01*
X116219139Y-98493884D01*
X116406294Y-98625438D01*
X116619389Y-98707240D01*
X116846122Y-98736604D01*
X116846122Y-99160667D01*
X116825333Y-99160667D01*
X116825333Y-99414667D01*
X116828458Y-99556601D01*
X116842093Y-99633296D01*
X116872629Y-99664080D01*
X116909332Y-99668667D01*
X116991931Y-99695703D01*
X117097067Y-99763343D01*
X117131582Y-99792089D01*
X117269833Y-99915510D01*
X117282001Y-100501172D01*
X117285810Y-100739946D01*
X117284541Y-100910732D01*
X117276495Y-101030143D01*
X117259970Y-101114791D01*
X117233269Y-101181287D01*
X117207898Y-101225472D01*
X117125711Y-101329028D01*
X117021344Y-101395719D01*
X116876149Y-101432315D01*
X116671479Y-101445586D01*
X116600327Y-101446043D01*
X116378563Y-101435431D01*
X116359667Y-101431034D01*
X116359667Y-101023334D01*
X116867667Y-101023334D01*
X116867667Y-100092000D01*
X116359667Y-100092000D01*
X116359667Y-101023334D01*
X116359667Y-101431034D01*
X116221311Y-101398835D01*
X116110193Y-101327510D01*
X116026827Y-101212715D01*
X116000929Y-101160917D01*
X115917358Y-100981000D01*
X114519262Y-100980265D01*
X114088790Y-100978971D01*
X113734615Y-100975383D01*
X113448390Y-100969197D01*
X113438667Y-100968808D01*
X113438667Y-100557667D01*
X115927079Y-100557667D01*
X115943335Y-100235761D01*
X115954415Y-100068118D01*
X115972718Y-99959755D01*
X116007003Y-99885298D01*
X116066030Y-99819375D01*
X116096796Y-99791261D01*
X116201054Y-99714666D01*
X116295250Y-99671898D01*
X116318001Y-99668667D01*
X116362677Y-99660280D01*
X116388005Y-99622910D01*
X116399330Y-99538243D01*
X116401998Y-99387964D01*
X116402000Y-99380838D01*
X116402000Y-99093009D01*
X116252699Y-99039021D01*
X116088119Y-98947087D01*
X115916802Y-98797984D01*
X115759845Y-98614504D01*
X115638341Y-98419442D01*
X115601321Y-98335218D01*
X115531890Y-98054921D01*
X115515838Y-97751204D01*
X115553943Y-97461202D01*
X115580991Y-97367539D01*
X115669999Y-97188701D01*
X115809427Y-96998808D01*
X115976302Y-96823508D01*
X116147650Y-96688448D01*
X116229897Y-96643083D01*
X116402000Y-96565475D01*
X116402000Y-91852682D01*
X116253413Y-91781826D01*
X116025807Y-91633976D01*
X115818487Y-91426223D01*
X115654812Y-91183275D01*
X115619565Y-91111372D01*
X115559759Y-90967302D01*
X115526941Y-90847170D01*
X115515564Y-90716731D01*
X115520079Y-90541742D01*
X115521856Y-90508229D01*
X115572142Y-90169439D01*
X115685218Y-89884915D01*
X115865060Y-89648016D01*
X116115649Y-89452101D01*
X116175753Y-89416604D01*
X116402000Y-89288918D01*
X116401569Y-89028376D01*
X116401139Y-88767834D01*
X116359667Y-88750414D01*
X116359667Y-88323334D01*
X116867667Y-88323334D01*
X116867667Y-87392000D01*
X116359667Y-87392000D01*
X116359667Y-88323334D01*
X116359667Y-88750414D01*
X116231205Y-88696454D01*
X116089267Y-88605203D01*
X115996206Y-88465687D01*
X115947161Y-88267562D01*
X115936333Y-88068981D01*
X115936333Y-87811910D01*
X115241079Y-87836500D01*
X115211952Y-87979468D01*
X115131231Y-88184332D01*
X114992071Y-88344661D01*
X114811680Y-88452941D01*
X114616947Y-88499351D01*
X114616947Y-88068061D01*
X114721043Y-88025446D01*
X114784768Y-87941749D01*
X114793333Y-87889322D01*
X114782226Y-87843581D01*
X114735384Y-87822759D01*
X114632525Y-87820776D01*
X114574411Y-87823705D01*
X114419887Y-87844790D01*
X114346102Y-87886381D01*
X114351224Y-87950260D01*
X114392300Y-88000920D01*
X114498644Y-88062313D01*
X114616947Y-88068061D01*
X114616947Y-88499351D01*
X114607267Y-88501658D01*
X114396042Y-88483296D01*
X114225454Y-88410239D01*
X114116407Y-88313007D01*
X114013605Y-88173070D01*
X113936466Y-88022086D01*
X113904405Y-87891717D01*
X113904333Y-87886635D01*
X113889008Y-87844665D01*
X113830706Y-87822860D01*
X113710942Y-87815557D01*
X113671500Y-87815334D01*
X113438667Y-87815334D01*
X113438667Y-100557667D01*
X113438667Y-100968808D01*
X113221771Y-100960110D01*
X113046410Y-100947821D01*
X112953480Y-100936739D01*
X112953480Y-100515334D01*
X112986297Y-100497345D01*
X113005547Y-100433502D01*
X113014117Y-100308993D01*
X113015333Y-100197834D01*
X113015333Y-99880334D01*
X112808716Y-99880334D01*
X112730951Y-99870978D01*
X112730951Y-99441414D01*
X112846527Y-99433771D01*
X112924398Y-99384711D01*
X112960812Y-99330000D01*
X112979013Y-99250933D01*
X112993731Y-99103360D01*
X113004919Y-98902953D01*
X113012532Y-98665383D01*
X113016527Y-98406323D01*
X113016858Y-98141444D01*
X113013481Y-97886416D01*
X113006349Y-97656912D01*
X112995420Y-97468604D01*
X112980647Y-97337162D01*
X112966662Y-97284634D01*
X112925118Y-97216983D01*
X112874052Y-97172506D01*
X112796137Y-97146351D01*
X112674048Y-97133666D01*
X112490457Y-97129597D01*
X112412083Y-97129315D01*
X112232204Y-97128978D01*
X112093750Y-97135113D01*
X111991311Y-97157493D01*
X111919476Y-97205887D01*
X111872835Y-97290064D01*
X111845977Y-97419796D01*
X111833493Y-97604853D01*
X111829970Y-97855004D01*
X111830000Y-98180019D01*
X111830000Y-98180439D01*
X111829590Y-98489138D01*
X111831866Y-98725128D01*
X111842088Y-98900326D01*
X111865512Y-99026652D01*
X111907399Y-99116022D01*
X111973006Y-99180357D01*
X112067592Y-99231573D01*
X112196416Y-99281589D01*
X112338384Y-99332653D01*
X112565595Y-99407691D01*
X112730951Y-99441414D01*
X112730951Y-99870978D01*
X112673332Y-99864045D01*
X112485769Y-99820511D01*
X112270832Y-99757727D01*
X112053323Y-99683690D01*
X111858049Y-99606395D01*
X111709812Y-99533840D01*
X111683177Y-99517488D01*
X111601106Y-99437528D01*
X111518275Y-99317562D01*
X111493412Y-99270795D01*
X111464645Y-99205120D01*
X111443005Y-99134581D01*
X111427492Y-99046477D01*
X111417105Y-98928107D01*
X111410846Y-98766772D01*
X111407712Y-98549770D01*
X111406704Y-98264402D01*
X111406667Y-98169449D01*
X111407959Y-97830667D01*
X111413515Y-97564922D01*
X111425855Y-97360604D01*
X111447500Y-97206103D01*
X111480968Y-97089808D01*
X111528779Y-97000107D01*
X111593454Y-96925390D01*
X111677513Y-96854046D01*
X111695079Y-96840528D01*
X111758016Y-96795086D01*
X111818137Y-96763667D01*
X111892098Y-96743686D01*
X111996556Y-96732557D01*
X112148165Y-96727697D01*
X112363584Y-96726522D01*
X112429955Y-96726500D01*
X113015333Y-96726500D01*
X113015333Y-96214655D01*
X112496750Y-96230151D01*
X112273522Y-96235483D01*
X112194590Y-96234878D01*
X112194590Y-95818402D01*
X112327716Y-95816874D01*
X112403424Y-95816334D01*
X112594351Y-95814650D01*
X112721054Y-95806779D01*
X112803956Y-95788493D01*
X112863477Y-95755564D01*
X112913027Y-95710822D01*
X113018540Y-95605309D01*
X113006353Y-94162204D01*
X113002864Y-93773920D01*
X112999281Y-93461589D01*
X112995057Y-93216498D01*
X112989645Y-93029935D01*
X112982498Y-92893187D01*
X112973069Y-92797543D01*
X112960812Y-92734288D01*
X112945178Y-92694712D01*
X112925622Y-92670101D01*
X112911992Y-92659050D01*
X112829879Y-92626453D01*
X112685188Y-92606900D01*
X112468184Y-92599216D01*
X112414575Y-92599000D01*
X112264793Y-92597372D01*
X112142909Y-92597730D01*
X112046066Y-92607941D01*
X111971406Y-92635871D01*
X111916069Y-92689384D01*
X111877198Y-92776347D01*
X111851935Y-92904626D01*
X111837420Y-93082086D01*
X111830796Y-93316593D01*
X111829204Y-93616012D01*
X111829787Y-93988210D01*
X111830000Y-94207667D01*
X111829439Y-94619802D01*
X111829625Y-94955164D01*
X111833364Y-95221620D01*
X111843459Y-95427039D01*
X111862716Y-95579290D01*
X111893939Y-95686240D01*
X111939934Y-95755758D01*
X112003504Y-95795713D01*
X112087455Y-95813971D01*
X112194590Y-95818402D01*
X112194590Y-96234878D01*
X112114994Y-96234266D01*
X112001307Y-96224180D01*
X111912600Y-96202909D01*
X111829013Y-96168136D01*
X111787667Y-96147407D01*
X111623614Y-96033246D01*
X111508526Y-95873731D01*
X111500744Y-95858667D01*
X111475561Y-95807240D01*
X111455267Y-95756620D01*
X111439413Y-95697661D01*
X111427548Y-95621212D01*
X111419224Y-95518126D01*
X111413990Y-95379254D01*
X111411396Y-95195448D01*
X111410993Y-94957559D01*
X111412331Y-94656438D01*
X111414960Y-94282938D01*
X111416078Y-94136626D01*
X111419337Y-93735378D01*
X111422677Y-93410030D01*
X111426627Y-93151814D01*
X111431711Y-92951966D01*
X111438458Y-92801717D01*
X111447393Y-92692302D01*
X111459043Y-92614955D01*
X111473936Y-92560909D01*
X111492597Y-92521398D01*
X111515116Y-92488241D01*
X111602466Y-92378898D01*
X111686064Y-92300858D01*
X111782249Y-92248891D01*
X111907363Y-92217769D01*
X112077746Y-92202263D01*
X112309738Y-92197144D01*
X112425771Y-92196834D01*
X113015333Y-92196834D01*
X113015347Y-91688834D01*
X112454423Y-91688834D01*
X112251961Y-91687777D01*
X112251961Y-91265691D01*
X112430851Y-91265500D01*
X112603894Y-91265675D01*
X112738959Y-91259989D01*
X112840742Y-91239129D01*
X112913939Y-91193781D01*
X112963243Y-91114633D01*
X112993350Y-90992370D01*
X113008956Y-90817678D01*
X113014754Y-90581245D01*
X113015441Y-90273757D01*
X113015333Y-90106063D01*
X113014478Y-89785940D01*
X113011466Y-89539720D01*
X113005624Y-89356652D01*
X112996279Y-89225987D01*
X112982759Y-89136973D01*
X112964392Y-89078861D01*
X112949433Y-89052420D01*
X112845104Y-88972553D01*
X112761821Y-88958334D01*
X112655535Y-88973865D01*
X112504467Y-89014774D01*
X112331498Y-89072541D01*
X112159506Y-89138640D01*
X112011373Y-89204549D01*
X111909978Y-89261745D01*
X111882917Y-89285738D01*
X111863204Y-89339992D01*
X111848467Y-89448689D01*
X111838298Y-89619089D01*
X111832291Y-89858453D01*
X111830039Y-90174041D01*
X111830000Y-90229864D01*
X111829925Y-90552143D01*
X111833509Y-90799633D01*
X111846469Y-90982184D01*
X111874521Y-91109650D01*
X111923381Y-91191881D01*
X111998763Y-91238731D01*
X112106385Y-91260050D01*
X112251961Y-91265691D01*
X112251961Y-91687777D01*
X112221492Y-91687617D01*
X112055550Y-91682374D01*
X111938935Y-91670720D01*
X111853984Y-91650267D01*
X111783036Y-91618628D01*
X111737753Y-91591987D01*
X111603513Y-91474349D01*
X111497320Y-91320101D01*
X111494337Y-91314038D01*
X111465080Y-91247521D01*
X111443151Y-91176811D01*
X111427526Y-91089041D01*
X111417177Y-90971340D01*
X111411080Y-90810841D01*
X111408209Y-90594674D01*
X111407539Y-90309970D01*
X111407596Y-90225552D01*
X111409138Y-89865494D01*
X111416604Y-89579047D01*
X111435486Y-89355158D01*
X111471274Y-89182773D01*
X111529459Y-89050837D01*
X111615534Y-88948297D01*
X111734989Y-88864098D01*
X111893315Y-88787187D01*
X112096003Y-88706509D01*
X112177509Y-88675687D01*
X112464202Y-88580543D01*
X112693250Y-88533776D01*
X112793083Y-88527773D01*
X113015333Y-88528048D01*
X113015333Y-88214024D01*
X113013702Y-88053455D01*
X113005200Y-87959801D01*
X112984413Y-87915326D01*
X112945925Y-87902290D01*
X112920083Y-87901981D01*
X112854111Y-87916355D01*
X112721130Y-87955582D01*
X112533700Y-88015583D01*
X112304382Y-88092279D01*
X112045736Y-88181592D01*
X111893500Y-88235337D01*
X110962167Y-88566713D01*
X110941000Y-89060529D01*
X110928487Y-89291638D01*
X110910636Y-89451158D01*
X110882099Y-89552169D01*
X110837527Y-89607747D01*
X110771572Y-89630973D01*
X110706050Y-89635019D01*
X110624175Y-89622887D01*
X110569346Y-89576395D01*
X110536625Y-89482577D01*
X110521074Y-89328465D01*
X110517667Y-89140367D01*
X110513061Y-88941464D01*
X110499877Y-88808180D01*
X110479066Y-88748935D01*
X110473231Y-88746667D01*
X110365683Y-88777742D01*
X110241234Y-88856277D01*
X110131339Y-88960232D01*
X110092619Y-89013306D01*
X110080162Y-89035506D01*
X110069024Y-89062076D01*
X110059130Y-89097621D01*
X110050407Y-89146748D01*
X110042780Y-89214064D01*
X110036177Y-89304175D01*
X110030522Y-89421689D01*
X110025743Y-89571210D01*
X110021765Y-89757347D01*
X110018515Y-89984705D01*
X110015918Y-90257891D01*
X110013901Y-90581511D01*
X110012390Y-90960173D01*
X110011311Y-91398483D01*
X110010591Y-91901047D01*
X110010154Y-92472472D01*
X110009929Y-93117364D01*
X110009839Y-93840330D01*
X110009825Y-94177277D01*
X110009704Y-94953568D01*
X110009553Y-95649668D01*
X110009613Y-96270055D01*
X110010126Y-96819203D01*
X110011332Y-97301590D01*
X110013474Y-97721691D01*
X110016792Y-98083983D01*
X110021528Y-98392940D01*
X110027923Y-98653040D01*
X110036218Y-98868759D01*
X110046654Y-99044573D01*
X110059473Y-99184957D01*
X110074916Y-99294388D01*
X110093224Y-99377343D01*
X110114639Y-99438296D01*
X110139401Y-99481724D01*
X110167752Y-99512104D01*
X110199934Y-99533911D01*
X110236187Y-99551621D01*
X110276752Y-99569711D01*
X110301111Y-99581506D01*
X110408400Y-99633885D01*
X110480988Y-99664968D01*
X110494813Y-99668667D01*
X110497840Y-99627229D01*
X110500749Y-99506497D01*
X110503514Y-99311842D01*
X110506110Y-99048638D01*
X110508511Y-98722256D01*
X110510690Y-98338068D01*
X110512621Y-97901446D01*
X110514279Y-97417764D01*
X110515637Y-96892393D01*
X110516670Y-96330705D01*
X110517350Y-95738073D01*
X110517653Y-95119868D01*
X110517667Y-94956967D01*
X110517875Y-94184282D01*
X110518526Y-93492644D01*
X110519659Y-92878433D01*
X110521311Y-92338030D01*
X110523522Y-91867816D01*
X110526330Y-91464171D01*
X110529773Y-91123477D01*
X110533891Y-90842114D01*
X110538722Y-90616462D01*
X110544305Y-90442904D01*
X110550677Y-90317818D01*
X110557879Y-90237587D01*
X110565947Y-90198591D01*
X110568467Y-90194467D01*
X110669138Y-90147384D01*
X110788715Y-90165715D01*
X110863583Y-90213728D01*
X110875555Y-90227296D01*
X110886227Y-90248215D01*
X110895674Y-90281148D01*
X110903969Y-90330757D01*
X110911188Y-90401704D01*
X110917406Y-90498651D01*
X110922695Y-90626260D01*
X110927132Y-90789194D01*
X110930791Y-90992115D01*
X110933745Y-91239684D01*
X110936071Y-91536564D01*
X110937842Y-91887417D01*
X110939133Y-92296905D01*
X110940018Y-92769690D01*
X110940573Y-93310435D01*
X110940870Y-93923800D01*
X110940986Y-94614450D01*
X110941000Y-95055112D01*
X110941000Y-99826434D01*
X111916314Y-100170884D01*
X112189913Y-100266646D01*
X112438956Y-100352172D01*
X112651729Y-100423571D01*
X112816513Y-100476952D01*
X112921592Y-100508423D01*
X112953480Y-100515334D01*
X112953480Y-100936739D01*
X112913961Y-100932025D01*
X112846000Y-100919532D01*
X112736014Y-100889971D01*
X112563987Y-100836809D01*
X112341842Y-100764278D01*
X112081503Y-100676608D01*
X111794895Y-100578031D01*
X111493940Y-100472778D01*
X111190563Y-100365079D01*
X110896687Y-100259165D01*
X110624236Y-100159268D01*
X110385134Y-100069619D01*
X110191305Y-99994447D01*
X110054673Y-99937985D01*
X109989184Y-99905842D01*
X109841181Y-99771034D01*
X109713878Y-99586940D01*
X109633060Y-99393500D01*
X109621229Y-99305282D01*
X109611137Y-99133510D01*
X109602783Y-98878012D01*
X109596161Y-98538612D01*
X109591270Y-98115138D01*
X109588106Y-97607414D01*
X109586666Y-97015267D01*
X109586569Y-96821750D01*
X109586333Y-94419334D01*
X109120667Y-94419334D01*
X109120667Y-93996000D01*
X109586333Y-93996000D01*
X109586333Y-90101334D01*
X109120667Y-90101334D01*
X109120667Y-93996000D01*
X109120667Y-94419334D01*
X109120667Y-96838847D01*
X108991970Y-96967543D01*
X108895104Y-97050407D01*
X108811168Y-97077911D01*
X108731422Y-97069868D01*
X108650756Y-97045437D01*
X108650756Y-96296204D01*
X108671798Y-96254318D01*
X108684896Y-96139433D01*
X108691992Y-95948478D01*
X108695026Y-95678383D01*
X108695833Y-95403584D01*
X108697333Y-94419334D01*
X108697333Y-94000226D01*
X108697333Y-90101334D01*
X108697333Y-89678000D01*
X108693865Y-88651417D01*
X108690396Y-87624834D01*
X108584637Y-87856711D01*
X108495888Y-88083101D01*
X108408897Y-88359837D01*
X108332715Y-88652962D01*
X108276391Y-88928522D01*
X108252732Y-89102076D01*
X108235880Y-89273114D01*
X108218296Y-89436563D01*
X108208493Y-89519250D01*
X108188333Y-89678000D01*
X108697333Y-89678000D01*
X108697333Y-90101334D01*
X108188479Y-90101334D01*
X108199489Y-92038084D01*
X108210500Y-93974834D01*
X108453917Y-93987530D01*
X108697333Y-94000226D01*
X108697333Y-94419334D01*
X108197390Y-94419334D01*
X108215996Y-94599250D01*
X108270439Y-95029483D01*
X108340171Y-95400563D01*
X108430023Y-95737357D01*
X108448351Y-95795167D01*
X108520570Y-96014572D01*
X108577083Y-96173261D01*
X108619832Y-96268161D01*
X108650756Y-96296204D01*
X108650756Y-97045437D01*
X108618023Y-97035523D01*
X108539316Y-96993492D01*
X108463725Y-96899966D01*
X108373423Y-96739353D01*
X108274378Y-96526667D01*
X108172560Y-96276924D01*
X108073942Y-96005136D01*
X107984492Y-95726320D01*
X107910181Y-95455488D01*
X107884948Y-95347857D01*
X107865856Y-95259913D01*
X107849434Y-95177220D01*
X107835481Y-95092927D01*
X107823795Y-95000179D01*
X107814176Y-94892125D01*
X107806420Y-94761909D01*
X107800328Y-94602681D01*
X107795697Y-94407586D01*
X107792326Y-94169771D01*
X107790014Y-93882384D01*
X107788558Y-93538571D01*
X107787758Y-93131479D01*
X107787411Y-92654256D01*
X107787317Y-92100047D01*
X107787313Y-92027500D01*
X107787450Y-91455365D01*
X107787450Y-91455365D01*
G37*
X107787450Y-91455365D02*
X107788028Y-90961193D01*
X107789200Y-90538284D01*
X107791122Y-90179934D01*
X107793949Y-89879444D01*
X107797835Y-89630109D01*
X107802935Y-89425229D01*
X107809403Y-89258101D01*
X107817395Y-89122024D01*
X107827066Y-89010295D01*
X107838569Y-88916213D01*
X107852060Y-88833075D01*
X107862296Y-88780119D01*
X107937965Y-88461853D01*
X108034300Y-88138077D01*
X108144808Y-87825235D01*
X108262994Y-87539775D01*
X108382367Y-87298141D01*
X108496431Y-87116781D01*
X108539922Y-87063917D01*
X108663256Y-86986713D01*
X108813839Y-86972709D01*
X108961540Y-87022849D01*
X108999560Y-87049544D01*
X109099500Y-87130422D01*
X109111864Y-88404211D01*
X109124229Y-89678000D01*
X109586333Y-89678000D01*
X109586569Y-89413417D01*
X109599931Y-89154808D01*
X109645289Y-88953895D01*
X109731336Y-88786978D01*
X109866772Y-88630356D01*
X109877804Y-88619667D01*
X109938057Y-88564290D01*
X110000447Y-88515240D01*
X110074744Y-88468231D01*
X110170717Y-88418977D01*
X110298135Y-88363190D01*
X110466768Y-88296583D01*
X110686387Y-88214871D01*
X110966760Y-88113765D01*
X111304586Y-87993615D01*
X111622142Y-87881513D01*
X111924653Y-87775645D01*
X112199947Y-87680198D01*
X112435852Y-87599363D01*
X112620197Y-87537330D01*
X112740808Y-87498287D01*
X112763592Y-87491437D01*
X112846427Y-87472271D01*
X112956198Y-87456249D01*
X113101695Y-87442918D01*
X113291705Y-87431825D01*
X113535019Y-87422516D01*
X113840423Y-87414538D01*
X114216708Y-87407436D01*
X114465646Y-87403617D01*
X115937125Y-87382420D01*
X115962516Y-87281252D01*
X116011455Y-87186975D01*
X116098403Y-87087674D01*
X116113535Y-87074376D01*
X116182808Y-87022966D01*
X116256108Y-86991494D01*
X116356165Y-86975179D01*
X116505709Y-86969241D01*
X116616247Y-86968667D01*
X116799405Y-86970444D01*
X116920935Y-86979450D01*
X117003856Y-87001198D01*
X117071189Y-87041202D01*
X117131582Y-87092089D01*
X117269833Y-87215510D01*
X117283390Y-87801172D01*
X117288021Y-88036691D01*
X117287881Y-88204295D01*
X117281021Y-88320687D01*
X117265494Y-88402573D01*
X117239351Y-88466656D01*
X117200644Y-88529641D01*
X117197957Y-88533636D01*
X117084323Y-88654090D01*
X116962150Y-88719677D01*
X116882438Y-88747758D01*
X116841847Y-88789368D01*
X116827208Y-88869744D01*
X116825333Y-88981903D01*
X116825333Y-89204892D01*
X117005250Y-89233557D01*
X117311181Y-89320097D01*
X117592168Y-89471678D01*
X117832336Y-89675901D01*
X118015813Y-89920368D01*
X118092751Y-90082984D01*
X118170754Y-90402291D01*
X118171531Y-90718140D01*
X118101365Y-91019264D01*
X117966538Y-91294391D01*
X117773332Y-91532255D01*
X117528028Y-91721585D01*
X117236910Y-91851113D01*
X117086497Y-91888043D01*
X116857733Y-91930585D01*
X116857733Y-91487083D01*
X116901413Y-91483348D01*
X117174483Y-91419695D01*
X117402738Y-91293244D01*
X117579492Y-91115853D01*
X117698060Y-90899380D01*
X117751754Y-90655683D01*
X117733888Y-90396620D01*
X117649432Y-90156765D01*
X117495791Y-89934854D01*
X117295381Y-89775251D01*
X117062448Y-89681560D01*
X116811238Y-89657390D01*
X116555995Y-89706347D01*
X116325969Y-89821692D01*
X116126203Y-89996238D01*
X116001128Y-90203176D01*
X115946316Y-90451763D01*
X115944942Y-90618093D01*
X115989796Y-90887850D01*
X116097100Y-91105095D01*
X116273829Y-91280537D01*
X116444595Y-91385245D01*
X116596678Y-91455380D01*
X116720559Y-91486356D01*
X116857733Y-91487083D01*
X116857733Y-91930585D01*
X116825333Y-91936611D01*
X116825333Y-96481874D01*
X117033700Y-96506552D01*
X117324312Y-96581770D01*
X117597003Y-96729918D01*
X117835795Y-96939280D01*
X118024707Y-97198141D01*
X118055525Y-97255667D01*
X118111179Y-97413968D01*
X118150552Y-97618780D01*
X118170646Y-97838134D01*
X118168460Y-98040063D01*
X118142899Y-98187000D01*
X118016165Y-98465083D01*
X117835928Y-98711646D01*
X117616080Y-98915196D01*
X117370516Y-99064236D01*
X117113130Y-99147274D01*
X116965959Y-99160667D01*
X116846122Y-99160667D01*
X116846122Y-98736604D01*
X117074190Y-98710842D01*
X117291293Y-98627267D01*
X117485128Y-98483192D01*
X117643392Y-98275930D01*
X117678725Y-98208167D01*
X117742562Y-97986700D01*
X117746830Y-97740212D01*
X117693873Y-97501438D01*
X117617030Y-97345630D01*
X117436235Y-97140870D01*
X117216795Y-97000958D01*
X116973738Y-96928152D01*
X116722094Y-96924714D01*
X116476890Y-96992903D01*
X116253155Y-97134978D01*
X116247708Y-97139724D01*
X116067198Y-97347169D01*
X115964515Y-97586649D01*
X115936333Y-97827583D01*
X115971857Y-98092269D01*
X116070226Y-98315265D01*
X116219139Y-98493884D01*
X116406294Y-98625438D01*
X116619389Y-98707240D01*
X116846122Y-98736604D01*
X116846122Y-99160667D01*
X116825333Y-99160667D01*
X116825333Y-99414667D01*
X116828458Y-99556601D01*
X116842093Y-99633296D01*
X116872629Y-99664080D01*
X116909332Y-99668667D01*
X116991931Y-99695703D01*
X117097067Y-99763343D01*
X117131582Y-99792089D01*
X117269833Y-99915510D01*
X117282001Y-100501172D01*
X117285810Y-100739946D01*
X117284541Y-100910732D01*
X117276495Y-101030143D01*
X117259970Y-101114791D01*
X117233269Y-101181287D01*
X117207898Y-101225472D01*
X117125711Y-101329028D01*
X117021344Y-101395719D01*
X116876149Y-101432315D01*
X116671479Y-101445586D01*
X116600327Y-101446043D01*
X116378563Y-101435431D01*
X116359667Y-101431034D01*
X116359667Y-101023334D01*
X116867667Y-101023334D01*
X116867667Y-100092000D01*
X116359667Y-100092000D01*
X116359667Y-101023334D01*
X116359667Y-101431034D01*
X116221311Y-101398835D01*
X116110193Y-101327510D01*
X116026827Y-101212715D01*
X116000929Y-101160917D01*
X115917358Y-100981000D01*
X114519262Y-100980265D01*
X114088790Y-100978971D01*
X113734615Y-100975383D01*
X113448390Y-100969197D01*
X113438667Y-100968808D01*
X113438667Y-100557667D01*
X115927079Y-100557667D01*
X115943335Y-100235761D01*
X115954415Y-100068118D01*
X115972718Y-99959755D01*
X116007003Y-99885298D01*
X116066030Y-99819375D01*
X116096796Y-99791261D01*
X116201054Y-99714666D01*
X116295250Y-99671898D01*
X116318001Y-99668667D01*
X116362677Y-99660280D01*
X116388005Y-99622910D01*
X116399330Y-99538243D01*
X116401998Y-99387964D01*
X116402000Y-99380838D01*
X116402000Y-99093009D01*
X116252699Y-99039021D01*
X116088119Y-98947087D01*
X115916802Y-98797984D01*
X115759845Y-98614504D01*
X115638341Y-98419442D01*
X115601321Y-98335218D01*
X115531890Y-98054921D01*
X115515838Y-97751204D01*
X115553943Y-97461202D01*
X115580991Y-97367539D01*
X115669999Y-97188701D01*
X115809427Y-96998808D01*
X115976302Y-96823508D01*
X116147650Y-96688448D01*
X116229897Y-96643083D01*
X116402000Y-96565475D01*
X116402000Y-91852682D01*
X116253413Y-91781826D01*
X116025807Y-91633976D01*
X115818487Y-91426223D01*
X115654812Y-91183275D01*
X115619565Y-91111372D01*
X115559759Y-90967302D01*
X115526941Y-90847170D01*
X115515564Y-90716731D01*
X115520079Y-90541742D01*
X115521856Y-90508229D01*
X115572142Y-90169439D01*
X115685218Y-89884915D01*
X115865060Y-89648016D01*
X116115649Y-89452101D01*
X116175753Y-89416604D01*
X116402000Y-89288918D01*
X116401569Y-89028376D01*
X116401139Y-88767834D01*
X116359667Y-88750414D01*
X116359667Y-88323334D01*
X116867667Y-88323334D01*
X116867667Y-87392000D01*
X116359667Y-87392000D01*
X116359667Y-88323334D01*
X116359667Y-88750414D01*
X116231205Y-88696454D01*
X116089267Y-88605203D01*
X115996206Y-88465687D01*
X115947161Y-88267562D01*
X115936333Y-88068981D01*
X115936333Y-87811910D01*
X115241079Y-87836500D01*
X115211952Y-87979468D01*
X115131231Y-88184332D01*
X114992071Y-88344661D01*
X114811680Y-88452941D01*
X114616947Y-88499351D01*
X114616947Y-88068061D01*
X114721043Y-88025446D01*
X114784768Y-87941749D01*
X114793333Y-87889322D01*
X114782226Y-87843581D01*
X114735384Y-87822759D01*
X114632525Y-87820776D01*
X114574411Y-87823705D01*
X114419887Y-87844790D01*
X114346102Y-87886381D01*
X114351224Y-87950260D01*
X114392300Y-88000920D01*
X114498644Y-88062313D01*
X114616947Y-88068061D01*
X114616947Y-88499351D01*
X114607267Y-88501658D01*
X114396042Y-88483296D01*
X114225454Y-88410239D01*
X114116407Y-88313007D01*
X114013605Y-88173070D01*
X113936466Y-88022086D01*
X113904405Y-87891717D01*
X113904333Y-87886635D01*
X113889008Y-87844665D01*
X113830706Y-87822860D01*
X113710942Y-87815557D01*
X113671500Y-87815334D01*
X113438667Y-87815334D01*
X113438667Y-100557667D01*
X113438667Y-100968808D01*
X113221771Y-100960110D01*
X113046410Y-100947821D01*
X112953480Y-100936739D01*
X112953480Y-100515334D01*
X112986297Y-100497345D01*
X113005547Y-100433502D01*
X113014117Y-100308993D01*
X113015333Y-100197834D01*
X113015333Y-99880334D01*
X112808716Y-99880334D01*
X112730951Y-99870978D01*
X112730951Y-99441414D01*
X112846527Y-99433771D01*
X112924398Y-99384711D01*
X112960812Y-99330000D01*
X112979013Y-99250933D01*
X112993731Y-99103360D01*
X113004919Y-98902953D01*
X113012532Y-98665383D01*
X113016527Y-98406323D01*
X113016858Y-98141444D01*
X113013481Y-97886416D01*
X113006349Y-97656912D01*
X112995420Y-97468604D01*
X112980647Y-97337162D01*
X112966662Y-97284634D01*
X112925118Y-97216983D01*
X112874052Y-97172506D01*
X112796137Y-97146351D01*
X112674048Y-97133666D01*
X112490457Y-97129597D01*
X112412083Y-97129315D01*
X112232204Y-97128978D01*
X112093750Y-97135113D01*
X111991311Y-97157493D01*
X111919476Y-97205887D01*
X111872835Y-97290064D01*
X111845977Y-97419796D01*
X111833493Y-97604853D01*
X111829970Y-97855004D01*
X111830000Y-98180019D01*
X111830000Y-98180439D01*
X111829590Y-98489138D01*
X111831866Y-98725128D01*
X111842088Y-98900326D01*
X111865512Y-99026652D01*
X111907399Y-99116022D01*
X111973006Y-99180357D01*
X112067592Y-99231573D01*
X112196416Y-99281589D01*
X112338384Y-99332653D01*
X112565595Y-99407691D01*
X112730951Y-99441414D01*
X112730951Y-99870978D01*
X112673332Y-99864045D01*
X112485769Y-99820511D01*
X112270832Y-99757727D01*
X112053323Y-99683690D01*
X111858049Y-99606395D01*
X111709812Y-99533840D01*
X111683177Y-99517488D01*
X111601106Y-99437528D01*
X111518275Y-99317562D01*
X111493412Y-99270795D01*
X111464645Y-99205120D01*
X111443005Y-99134581D01*
X111427492Y-99046477D01*
X111417105Y-98928107D01*
X111410846Y-98766772D01*
X111407712Y-98549770D01*
X111406704Y-98264402D01*
X111406667Y-98169449D01*
X111407959Y-97830667D01*
X111413515Y-97564922D01*
X111425855Y-97360604D01*
X111447500Y-97206103D01*
X111480968Y-97089808D01*
X111528779Y-97000107D01*
X111593454Y-96925390D01*
X111677513Y-96854046D01*
X111695079Y-96840528D01*
X111758016Y-96795086D01*
X111818137Y-96763667D01*
X111892098Y-96743686D01*
X111996556Y-96732557D01*
X112148165Y-96727697D01*
X112363584Y-96726522D01*
X112429955Y-96726500D01*
X113015333Y-96726500D01*
X113015333Y-96214655D01*
X112496750Y-96230151D01*
X112273522Y-96235483D01*
X112194590Y-96234878D01*
X112194590Y-95818402D01*
X112327716Y-95816874D01*
X112403424Y-95816334D01*
X112594351Y-95814650D01*
X112721054Y-95806779D01*
X112803956Y-95788493D01*
X112863477Y-95755564D01*
X112913027Y-95710822D01*
X113018540Y-95605309D01*
X113006353Y-94162204D01*
X113002864Y-93773920D01*
X112999281Y-93461589D01*
X112995057Y-93216498D01*
X112989645Y-93029935D01*
X112982498Y-92893187D01*
X112973069Y-92797543D01*
X112960812Y-92734288D01*
X112945178Y-92694712D01*
X112925622Y-92670101D01*
X112911992Y-92659050D01*
X112829879Y-92626453D01*
X112685188Y-92606900D01*
X112468184Y-92599216D01*
X112414575Y-92599000D01*
X112264793Y-92597372D01*
X112142909Y-92597730D01*
X112046066Y-92607941D01*
X111971406Y-92635871D01*
X111916069Y-92689384D01*
X111877198Y-92776347D01*
X111851935Y-92904626D01*
X111837420Y-93082086D01*
X111830796Y-93316593D01*
X111829204Y-93616012D01*
X111829787Y-93988210D01*
X111830000Y-94207667D01*
X111829439Y-94619802D01*
X111829625Y-94955164D01*
X111833364Y-95221620D01*
X111843459Y-95427039D01*
X111862716Y-95579290D01*
X111893939Y-95686240D01*
X111939934Y-95755758D01*
X112003504Y-95795713D01*
X112087455Y-95813971D01*
X112194590Y-95818402D01*
X112194590Y-96234878D01*
X112114994Y-96234266D01*
X112001307Y-96224180D01*
X111912600Y-96202909D01*
X111829013Y-96168136D01*
X111787667Y-96147407D01*
X111623614Y-96033246D01*
X111508526Y-95873731D01*
X111500744Y-95858667D01*
X111475561Y-95807240D01*
X111455267Y-95756620D01*
X111439413Y-95697661D01*
X111427548Y-95621212D01*
X111419224Y-95518126D01*
X111413990Y-95379254D01*
X111411396Y-95195448D01*
X111410993Y-94957559D01*
X111412331Y-94656438D01*
X111414960Y-94282938D01*
X111416078Y-94136626D01*
X111419337Y-93735378D01*
X111422677Y-93410030D01*
X111426627Y-93151814D01*
X111431711Y-92951966D01*
X111438458Y-92801717D01*
X111447393Y-92692302D01*
X111459043Y-92614955D01*
X111473936Y-92560909D01*
X111492597Y-92521398D01*
X111515116Y-92488241D01*
X111602466Y-92378898D01*
X111686064Y-92300858D01*
X111782249Y-92248891D01*
X111907363Y-92217769D01*
X112077746Y-92202263D01*
X112309738Y-92197144D01*
X112425771Y-92196834D01*
X113015333Y-92196834D01*
X113015347Y-91688834D01*
X112454423Y-91688834D01*
X112251961Y-91687777D01*
X112251961Y-91265691D01*
X112430851Y-91265500D01*
X112603894Y-91265675D01*
X112738959Y-91259989D01*
X112840742Y-91239129D01*
X112913939Y-91193781D01*
X112963243Y-91114633D01*
X112993350Y-90992370D01*
X113008956Y-90817678D01*
X113014754Y-90581245D01*
X113015441Y-90273757D01*
X113015333Y-90106063D01*
X113014478Y-89785940D01*
X113011466Y-89539720D01*
X113005624Y-89356652D01*
X112996279Y-89225987D01*
X112982759Y-89136973D01*
X112964392Y-89078861D01*
X112949433Y-89052420D01*
X112845104Y-88972553D01*
X112761821Y-88958334D01*
X112655535Y-88973865D01*
X112504467Y-89014774D01*
X112331498Y-89072541D01*
X112159506Y-89138640D01*
X112011373Y-89204549D01*
X111909978Y-89261745D01*
X111882917Y-89285738D01*
X111863204Y-89339992D01*
X111848467Y-89448689D01*
X111838298Y-89619089D01*
X111832291Y-89858453D01*
X111830039Y-90174041D01*
X111830000Y-90229864D01*
X111829925Y-90552143D01*
X111833509Y-90799633D01*
X111846469Y-90982184D01*
X111874521Y-91109650D01*
X111923381Y-91191881D01*
X111998763Y-91238731D01*
X112106385Y-91260050D01*
X112251961Y-91265691D01*
X112251961Y-91687777D01*
X112221492Y-91687617D01*
X112055550Y-91682374D01*
X111938935Y-91670720D01*
X111853984Y-91650267D01*
X111783036Y-91618628D01*
X111737753Y-91591987D01*
X111603513Y-91474349D01*
X111497320Y-91320101D01*
X111494337Y-91314038D01*
X111465080Y-91247521D01*
X111443151Y-91176811D01*
X111427526Y-91089041D01*
X111417177Y-90971340D01*
X111411080Y-90810841D01*
X111408209Y-90594674D01*
X111407539Y-90309970D01*
X111407596Y-90225552D01*
X111409138Y-89865494D01*
X111416604Y-89579047D01*
X111435486Y-89355158D01*
X111471274Y-89182773D01*
X111529459Y-89050837D01*
X111615534Y-88948297D01*
X111734989Y-88864098D01*
X111893315Y-88787187D01*
X112096003Y-88706509D01*
X112177509Y-88675687D01*
X112464202Y-88580543D01*
X112693250Y-88533776D01*
X112793083Y-88527773D01*
X113015333Y-88528048D01*
X113015333Y-88214024D01*
X113013702Y-88053455D01*
X113005200Y-87959801D01*
X112984413Y-87915326D01*
X112945925Y-87902290D01*
X112920083Y-87901981D01*
X112854111Y-87916355D01*
X112721130Y-87955582D01*
X112533700Y-88015583D01*
X112304382Y-88092279D01*
X112045736Y-88181592D01*
X111893500Y-88235337D01*
X110962167Y-88566713D01*
X110941000Y-89060529D01*
X110928487Y-89291638D01*
X110910636Y-89451158D01*
X110882099Y-89552169D01*
X110837527Y-89607747D01*
X110771572Y-89630973D01*
X110706050Y-89635019D01*
X110624175Y-89622887D01*
X110569346Y-89576395D01*
X110536625Y-89482577D01*
X110521074Y-89328465D01*
X110517667Y-89140367D01*
X110513061Y-88941464D01*
X110499877Y-88808180D01*
X110479066Y-88748935D01*
X110473231Y-88746667D01*
X110365683Y-88777742D01*
X110241234Y-88856277D01*
X110131339Y-88960232D01*
X110092619Y-89013306D01*
X110080162Y-89035506D01*
X110069024Y-89062076D01*
X110059130Y-89097621D01*
X110050407Y-89146748D01*
X110042780Y-89214064D01*
X110036177Y-89304175D01*
X110030522Y-89421689D01*
X110025743Y-89571210D01*
X110021765Y-89757347D01*
X110018515Y-89984705D01*
X110015918Y-90257891D01*
X110013901Y-90581511D01*
X110012390Y-90960173D01*
X110011311Y-91398483D01*
X110010591Y-91901047D01*
X110010154Y-92472472D01*
X110009929Y-93117364D01*
X110009839Y-93840330D01*
X110009825Y-94177277D01*
X110009704Y-94953568D01*
X110009553Y-95649668D01*
X110009613Y-96270055D01*
X110010126Y-96819203D01*
X110011332Y-97301590D01*
X110013474Y-97721691D01*
X110016792Y-98083983D01*
X110021528Y-98392940D01*
X110027923Y-98653040D01*
X110036218Y-98868759D01*
X110046654Y-99044573D01*
X110059473Y-99184957D01*
X110074916Y-99294388D01*
X110093224Y-99377343D01*
X110114639Y-99438296D01*
X110139401Y-99481724D01*
X110167752Y-99512104D01*
X110199934Y-99533911D01*
X110236187Y-99551621D01*
X110276752Y-99569711D01*
X110301111Y-99581506D01*
X110408400Y-99633885D01*
X110480988Y-99664968D01*
X110494813Y-99668667D01*
X110497840Y-99627229D01*
X110500749Y-99506497D01*
X110503514Y-99311842D01*
X110506110Y-99048638D01*
X110508511Y-98722256D01*
X110510690Y-98338068D01*
X110512621Y-97901446D01*
X110514279Y-97417764D01*
X110515637Y-96892393D01*
X110516670Y-96330705D01*
X110517350Y-95738073D01*
X110517653Y-95119868D01*
X110517667Y-94956967D01*
X110517875Y-94184282D01*
X110518526Y-93492644D01*
X110519659Y-92878433D01*
X110521311Y-92338030D01*
X110523522Y-91867816D01*
X110526330Y-91464171D01*
X110529773Y-91123477D01*
X110533891Y-90842114D01*
X110538722Y-90616462D01*
X110544305Y-90442904D01*
X110550677Y-90317818D01*
X110557879Y-90237587D01*
X110565947Y-90198591D01*
X110568467Y-90194467D01*
X110669138Y-90147384D01*
X110788715Y-90165715D01*
X110863583Y-90213728D01*
X110875555Y-90227296D01*
X110886227Y-90248215D01*
X110895674Y-90281148D01*
X110903969Y-90330757D01*
X110911188Y-90401704D01*
X110917406Y-90498651D01*
X110922695Y-90626260D01*
X110927132Y-90789194D01*
X110930791Y-90992115D01*
X110933745Y-91239684D01*
X110936071Y-91536564D01*
X110937842Y-91887417D01*
X110939133Y-92296905D01*
X110940018Y-92769690D01*
X110940573Y-93310435D01*
X110940870Y-93923800D01*
X110940986Y-94614450D01*
X110941000Y-95055112D01*
X110941000Y-99826434D01*
X111916314Y-100170884D01*
X112189913Y-100266646D01*
X112438956Y-100352172D01*
X112651729Y-100423571D01*
X112816513Y-100476952D01*
X112921592Y-100508423D01*
X112953480Y-100515334D01*
X112953480Y-100936739D01*
X112913961Y-100932025D01*
X112846000Y-100919532D01*
X112736014Y-100889971D01*
X112563987Y-100836809D01*
X112341842Y-100764278D01*
X112081503Y-100676608D01*
X111794895Y-100578031D01*
X111493940Y-100472778D01*
X111190563Y-100365079D01*
X110896687Y-100259165D01*
X110624236Y-100159268D01*
X110385134Y-100069619D01*
X110191305Y-99994447D01*
X110054673Y-99937985D01*
X109989184Y-99905842D01*
X109841181Y-99771034D01*
X109713878Y-99586940D01*
X109633060Y-99393500D01*
X109621229Y-99305282D01*
X109611137Y-99133510D01*
X109602783Y-98878012D01*
X109596161Y-98538612D01*
X109591270Y-98115138D01*
X109588106Y-97607414D01*
X109586666Y-97015267D01*
X109586569Y-96821750D01*
X109586333Y-94419334D01*
X109120667Y-94419334D01*
X109120667Y-93996000D01*
X109586333Y-93996000D01*
X109586333Y-90101334D01*
X109120667Y-90101334D01*
X109120667Y-93996000D01*
X109120667Y-94419334D01*
X109120667Y-96838847D01*
X108991970Y-96967543D01*
X108895104Y-97050407D01*
X108811168Y-97077911D01*
X108731422Y-97069868D01*
X108650756Y-97045437D01*
X108650756Y-96296204D01*
X108671798Y-96254318D01*
X108684896Y-96139433D01*
X108691992Y-95948478D01*
X108695026Y-95678383D01*
X108695833Y-95403584D01*
X108697333Y-94419334D01*
X108697333Y-94000226D01*
X108697333Y-90101334D01*
X108697333Y-89678000D01*
X108693865Y-88651417D01*
X108690396Y-87624834D01*
X108584637Y-87856711D01*
X108495888Y-88083101D01*
X108408897Y-88359837D01*
X108332715Y-88652962D01*
X108276391Y-88928522D01*
X108252732Y-89102076D01*
X108235880Y-89273114D01*
X108218296Y-89436563D01*
X108208493Y-89519250D01*
X108188333Y-89678000D01*
X108697333Y-89678000D01*
X108697333Y-90101334D01*
X108188479Y-90101334D01*
X108199489Y-92038084D01*
X108210500Y-93974834D01*
X108453917Y-93987530D01*
X108697333Y-94000226D01*
X108697333Y-94419334D01*
X108197390Y-94419334D01*
X108215996Y-94599250D01*
X108270439Y-95029483D01*
X108340171Y-95400563D01*
X108430023Y-95737357D01*
X108448351Y-95795167D01*
X108520570Y-96014572D01*
X108577083Y-96173261D01*
X108619832Y-96268161D01*
X108650756Y-96296204D01*
X108650756Y-97045437D01*
X108618023Y-97035523D01*
X108539316Y-96993492D01*
X108463725Y-96899966D01*
X108373423Y-96739353D01*
X108274378Y-96526667D01*
X108172560Y-96276924D01*
X108073942Y-96005136D01*
X107984492Y-95726320D01*
X107910181Y-95455488D01*
X107884948Y-95347857D01*
X107865856Y-95259913D01*
X107849434Y-95177220D01*
X107835481Y-95092927D01*
X107823795Y-95000179D01*
X107814176Y-94892125D01*
X107806420Y-94761909D01*
X107800328Y-94602681D01*
X107795697Y-94407586D01*
X107792326Y-94169771D01*
X107790014Y-93882384D01*
X107788558Y-93538571D01*
X107787758Y-93131479D01*
X107787411Y-92654256D01*
X107787317Y-92100047D01*
X107787313Y-92027500D01*
X107787450Y-91455365D01*
G36*
X105002267Y-94146516D02*
X105023482Y-94064412D01*
X105107031Y-93893511D01*
X105247843Y-93716463D01*
X105423381Y-93555418D01*
X105611107Y-93432520D01*
X105710150Y-93389630D01*
X106030901Y-93320976D01*
X106341529Y-93333723D01*
X106633219Y-93425894D01*
X106897154Y-93595509D01*
X106983908Y-93675380D01*
X107171509Y-93915078D01*
X107277769Y-94171842D01*
X107301721Y-94440274D01*
X107242400Y-94714976D01*
X107191208Y-94833362D01*
X107020859Y-95088199D01*
X106798238Y-95277308D01*
X106526925Y-95398588D01*
X106210501Y-95449943D01*
X106136167Y-95451648D01*
X106092255Y-95446634D01*
X106092255Y-94940779D01*
X106278564Y-94924232D01*
X106451390Y-94859767D01*
X106595695Y-94751603D01*
X106696441Y-94603962D01*
X106738591Y-94421064D01*
X106736056Y-94342615D01*
X106688399Y-94162815D01*
X106617320Y-94052842D01*
X106427200Y-93901944D01*
X106215474Y-93831828D01*
X106136167Y-93826667D01*
X105932026Y-93861484D01*
X105759654Y-93955811D01*
X105628763Y-94094459D01*
X105549065Y-94262242D01*
X105530274Y-94443972D01*
X105582100Y-94624462D01*
X105602808Y-94660695D01*
X105739339Y-94813231D01*
X105907500Y-94905185D01*
X106092255Y-94940779D01*
X106092255Y-95446634D01*
X105822781Y-95415863D01*
X105547631Y-95314606D01*
X105318053Y-95157029D01*
X105141389Y-94952281D01*
X105024977Y-94709513D01*
X104976156Y-94437874D01*
X105002267Y-94146516D01*
X105002267Y-94146516D01*
G37*
X105002267Y-94146516D02*
X105023482Y-94064412D01*
X105107031Y-93893511D01*
X105247843Y-93716463D01*
X105423381Y-93555418D01*
X105611107Y-93432520D01*
X105710150Y-93389630D01*
X106030901Y-93320976D01*
X106341529Y-93333723D01*
X106633219Y-93425894D01*
X106897154Y-93595509D01*
X106983908Y-93675380D01*
X107171509Y-93915078D01*
X107277769Y-94171842D01*
X107301721Y-94440274D01*
X107242400Y-94714976D01*
X107191208Y-94833362D01*
X107020859Y-95088199D01*
X106798238Y-95277308D01*
X106526925Y-95398588D01*
X106210501Y-95449943D01*
X106136167Y-95451648D01*
X106092255Y-95446634D01*
X106092255Y-94940779D01*
X106278564Y-94924232D01*
X106451390Y-94859767D01*
X106595695Y-94751603D01*
X106696441Y-94603962D01*
X106738591Y-94421064D01*
X106736056Y-94342615D01*
X106688399Y-94162815D01*
X106617320Y-94052842D01*
X106427200Y-93901944D01*
X106215474Y-93831828D01*
X106136167Y-93826667D01*
X105932026Y-93861484D01*
X105759654Y-93955811D01*
X105628763Y-94094459D01*
X105549065Y-94262242D01*
X105530274Y-94443972D01*
X105582100Y-94624462D01*
X105602808Y-94660695D01*
X105739339Y-94813231D01*
X105907500Y-94905185D01*
X106092255Y-94940779D01*
X106092255Y-95446634D01*
X105822781Y-95415863D01*
X105547631Y-95314606D01*
X105318053Y-95157029D01*
X105141389Y-94952281D01*
X105024977Y-94709513D01*
X104976156Y-94437874D01*
X105002267Y-94146516D01*
G36*
X100887119Y-94011689D02*
X100978980Y-93410271D01*
X101153942Y-92815980D01*
X101289364Y-92485705D01*
X101410547Y-92245745D01*
X101558585Y-91995343D01*
X101723167Y-91748174D01*
X101893985Y-91517909D01*
X102060730Y-91318221D01*
X102213092Y-91162782D01*
X102340762Y-91065265D01*
X102372262Y-91049534D01*
X102494332Y-91007847D01*
X102609686Y-90993489D01*
X102727487Y-91011463D01*
X102856895Y-91066771D01*
X103007074Y-91164416D01*
X103187186Y-91309400D01*
X103406392Y-91506728D01*
X103671079Y-91758714D01*
X103864479Y-91946419D01*
X104005184Y-92086421D01*
X104101554Y-92189677D01*
X104161948Y-92267144D01*
X104194724Y-92329778D01*
X104208243Y-92388535D01*
X104210862Y-92454373D01*
X104210829Y-92466191D01*
X104200959Y-92578872D01*
X104164699Y-92683466D01*
X104090383Y-92806441D01*
X104015166Y-92910067D01*
X103787527Y-93248072D01*
X103629470Y-93571034D01*
X103533708Y-93899398D01*
X103492954Y-94253612D01*
X103490333Y-94382499D01*
X103520241Y-94781811D01*
X103614243Y-95149548D01*
X103778758Y-95504973D01*
X103956209Y-95780544D01*
X104074621Y-95950660D01*
X104149723Y-96074640D01*
X104190901Y-96172620D01*
X104207538Y-96264734D01*
X104209644Y-96324317D01*
X104206300Y-96414784D01*
X104188254Y-96487514D01*
X104144076Y-96560466D01*
X104062334Y-96651600D01*
X103931599Y-96778875D01*
X103903083Y-96805962D01*
X103608442Y-97083638D01*
X103365989Y-97306622D01*
X103167971Y-97480022D01*
X103006637Y-97608944D01*
X102874235Y-97698494D01*
X102763012Y-97753779D01*
X102665218Y-97779906D01*
X102595723Y-97781470D01*
X102595723Y-97246050D01*
X102640997Y-97224449D01*
X102732124Y-97154548D01*
X102856732Y-97048079D01*
X103002446Y-96916778D01*
X103156896Y-96772377D01*
X103307706Y-96626611D01*
X103442506Y-96491214D01*
X103548921Y-96377920D01*
X103614580Y-96298463D01*
X103629004Y-96266122D01*
X103588075Y-96207045D01*
X103514968Y-96107618D01*
X103462086Y-96037491D01*
X103302429Y-95789790D01*
X103156011Y-95492523D01*
X103039205Y-95180734D01*
X103003477Y-95056062D01*
X102957611Y-94797078D01*
X102935852Y-94492280D01*
X102938806Y-94177193D01*
X102967074Y-93887342D01*
X102982189Y-93802652D01*
X103058132Y-93537361D01*
X103177276Y-93244434D01*
X103324167Y-92957290D01*
X103483348Y-92709350D01*
X103495072Y-92693637D01*
X103579336Y-92578282D01*
X103636003Y-92493389D01*
X103653056Y-92456988D01*
X103652900Y-92456872D01*
X103618581Y-92426684D01*
X103532764Y-92348642D01*
X103406044Y-92232454D01*
X103249017Y-92087826D01*
X103124000Y-91972330D01*
X102609500Y-91496438D01*
X102413421Y-91725950D01*
X102092180Y-92163017D01*
X101825219Y-92652948D01*
X101620768Y-93177559D01*
X101487055Y-93718667D01*
X101473023Y-93803939D01*
X101426941Y-94370376D01*
X101464032Y-94928256D01*
X101584752Y-95480390D01*
X101789558Y-96029586D01*
X101858563Y-96176167D01*
X101956120Y-96359921D01*
X102073356Y-96558097D01*
X102200062Y-96755874D01*
X102326024Y-96938431D01*
X102441032Y-97090949D01*
X102534875Y-97198607D01*
X102595723Y-97246050D01*
X102595723Y-97781470D01*
X102573100Y-97781980D01*
X102478905Y-97765107D01*
X102456154Y-97759090D01*
X102306664Y-97683728D01*
X102135179Y-97539356D01*
X101949856Y-97336081D01*
X101758853Y-97084007D01*
X101570329Y-96793240D01*
X101392443Y-96473885D01*
X101349146Y-96387834D01*
X101109373Y-95808306D01*
X100952393Y-95215747D01*
X100878282Y-94615194D01*
X100887119Y-94011689D01*
X100887119Y-94011689D01*
G37*
X100887119Y-94011689D02*
X100978980Y-93410271D01*
X101153942Y-92815980D01*
X101289364Y-92485705D01*
X101410547Y-92245745D01*
X101558585Y-91995343D01*
X101723167Y-91748174D01*
X101893985Y-91517909D01*
X102060730Y-91318221D01*
X102213092Y-91162782D01*
X102340762Y-91065265D01*
X102372262Y-91049534D01*
X102494332Y-91007847D01*
X102609686Y-90993489D01*
X102727487Y-91011463D01*
X102856895Y-91066771D01*
X103007074Y-91164416D01*
X103187186Y-91309400D01*
X103406392Y-91506728D01*
X103671079Y-91758714D01*
X103864479Y-91946419D01*
X104005184Y-92086421D01*
X104101554Y-92189677D01*
X104161948Y-92267144D01*
X104194724Y-92329778D01*
X104208243Y-92388535D01*
X104210862Y-92454373D01*
X104210829Y-92466191D01*
X104200959Y-92578872D01*
X104164699Y-92683466D01*
X104090383Y-92806441D01*
X104015166Y-92910067D01*
X103787527Y-93248072D01*
X103629470Y-93571034D01*
X103533708Y-93899398D01*
X103492954Y-94253612D01*
X103490333Y-94382499D01*
X103520241Y-94781811D01*
X103614243Y-95149548D01*
X103778758Y-95504973D01*
X103956209Y-95780544D01*
X104074621Y-95950660D01*
X104149723Y-96074640D01*
X104190901Y-96172620D01*
X104207538Y-96264734D01*
X104209644Y-96324317D01*
X104206300Y-96414784D01*
X104188254Y-96487514D01*
X104144076Y-96560466D01*
X104062334Y-96651600D01*
X103931599Y-96778875D01*
X103903083Y-96805962D01*
X103608442Y-97083638D01*
X103365989Y-97306622D01*
X103167971Y-97480022D01*
X103006637Y-97608944D01*
X102874235Y-97698494D01*
X102763012Y-97753779D01*
X102665218Y-97779906D01*
X102595723Y-97781470D01*
X102595723Y-97246050D01*
X102640997Y-97224449D01*
X102732124Y-97154548D01*
X102856732Y-97048079D01*
X103002446Y-96916778D01*
X103156896Y-96772377D01*
X103307706Y-96626611D01*
X103442506Y-96491214D01*
X103548921Y-96377920D01*
X103614580Y-96298463D01*
X103629004Y-96266122D01*
X103588075Y-96207045D01*
X103514968Y-96107618D01*
X103462086Y-96037491D01*
X103302429Y-95789790D01*
X103156011Y-95492523D01*
X103039205Y-95180734D01*
X103003477Y-95056062D01*
X102957611Y-94797078D01*
X102935852Y-94492280D01*
X102938806Y-94177193D01*
X102967074Y-93887342D01*
X102982189Y-93802652D01*
X103058132Y-93537361D01*
X103177276Y-93244434D01*
X103324167Y-92957290D01*
X103483348Y-92709350D01*
X103495072Y-92693637D01*
X103579336Y-92578282D01*
X103636003Y-92493389D01*
X103653056Y-92456988D01*
X103652900Y-92456872D01*
X103618581Y-92426684D01*
X103532764Y-92348642D01*
X103406044Y-92232454D01*
X103249017Y-92087826D01*
X103124000Y-91972330D01*
X102609500Y-91496438D01*
X102413421Y-91725950D01*
X102092180Y-92163017D01*
X101825219Y-92652948D01*
X101620768Y-93177559D01*
X101487055Y-93718667D01*
X101473023Y-93803939D01*
X101426941Y-94370376D01*
X101464032Y-94928256D01*
X101584752Y-95480390D01*
X101789558Y-96029586D01*
X101858563Y-96176167D01*
X101956120Y-96359921D01*
X102073356Y-96558097D01*
X102200062Y-96755874D01*
X102326024Y-96938431D01*
X102441032Y-97090949D01*
X102534875Y-97198607D01*
X102595723Y-97246050D01*
X102595723Y-97781470D01*
X102573100Y-97781980D01*
X102478905Y-97765107D01*
X102456154Y-97759090D01*
X102306664Y-97683728D01*
X102135179Y-97539356D01*
X101949856Y-97336081D01*
X101758853Y-97084007D01*
X101570329Y-96793240D01*
X101392443Y-96473885D01*
X101349146Y-96387834D01*
X101109373Y-95808306D01*
X100952393Y-95215747D01*
X100878282Y-94615194D01*
X100887119Y-94011689D01*
G36*
X96830368Y-93439270D02*
X96963927Y-92668030D01*
X97171422Y-91907293D01*
X97450141Y-91167498D01*
X97797373Y-90459082D01*
X98097645Y-89959962D01*
X98285972Y-89684400D01*
X98488620Y-89409413D01*
X98696288Y-89145838D01*
X98899679Y-88904511D01*
X99089494Y-88696268D01*
X99256433Y-88531946D01*
X99391198Y-88422380D01*
X99443553Y-88391544D01*
X99628976Y-88335568D01*
X99816324Y-88332399D01*
X99962224Y-88377751D01*
X100041620Y-88434321D01*
X100165630Y-88536711D01*
X100321867Y-88673326D01*
X100497944Y-88832571D01*
X100681475Y-89002848D01*
X100860071Y-89172564D01*
X101021345Y-89330121D01*
X101152912Y-89463925D01*
X101242382Y-89562381D01*
X101274446Y-89606122D01*
X101319417Y-89742924D01*
X101307623Y-89883494D01*
X101234696Y-90040168D01*
X101096265Y-90225285D01*
X101027411Y-90303633D01*
X100556718Y-90876986D01*
X100166962Y-91470491D01*
X99855798Y-92089040D01*
X99620884Y-92737526D01*
X99459875Y-93420844D01*
X99422706Y-93653793D01*
X99401014Y-93889619D01*
X99391888Y-94181650D01*
X99394464Y-94504838D01*
X99407880Y-94834138D01*
X99431273Y-95144505D01*
X99463780Y-95410892D01*
X99487732Y-95541167D01*
X99684289Y-96242029D01*
X99957095Y-96906225D01*
X100305384Y-97532261D01*
X100728390Y-98118642D01*
X100931370Y-98356334D01*
X101109796Y-98561558D01*
X101232145Y-98721553D01*
X101303603Y-98849531D01*
X101329358Y-98958702D01*
X101314596Y-99062277D01*
X101264503Y-99173469D01*
X101257250Y-99186397D01*
X101202698Y-99256623D01*
X101096776Y-99371554D01*
X100951123Y-99519344D01*
X100777382Y-99688150D01*
X100608103Y-99846887D01*
X100364208Y-100067379D01*
X100168323Y-100232535D01*
X100010162Y-100348423D01*
X99879442Y-100421111D01*
X99765878Y-100456666D01*
X99711220Y-100458965D01*
X99711220Y-99943601D01*
X100121102Y-99562717D01*
X100284012Y-99412391D01*
X100433441Y-99276424D01*
X100553871Y-99168809D01*
X100629783Y-99103539D01*
X100634825Y-99099485D01*
X100707722Y-99030573D01*
X100738658Y-98979286D01*
X100738667Y-98978787D01*
X100711575Y-98933057D01*
X100638752Y-98841474D01*
X100532873Y-98719478D01*
X100460817Y-98640334D01*
X100059758Y-98150315D01*
X99701778Y-97597231D01*
X99393623Y-96994491D01*
X99142036Y-96355504D01*
X98953763Y-95693680D01*
X98933857Y-95604667D01*
X98896996Y-95371523D01*
X98870719Y-95075729D01*
X98855042Y-94738520D01*
X98849979Y-94381136D01*
X98855546Y-94024812D01*
X98871758Y-93690786D01*
X98898629Y-93400295D01*
X98932144Y-93192681D01*
X99115928Y-92496249D01*
X99358805Y-91850422D01*
X99667534Y-91241461D01*
X100048872Y-90655627D01*
X100402116Y-90204650D01*
X100752086Y-89788406D01*
X100417293Y-89478313D01*
X100253349Y-89327801D01*
X100087893Y-89178139D01*
X99945606Y-89051562D01*
X99884799Y-88998667D01*
X99687098Y-88829113D01*
X99355632Y-89204357D01*
X98850841Y-89833327D01*
X98411862Y-90500404D01*
X98043064Y-91197022D01*
X97748817Y-91914619D01*
X97533491Y-92644629D01*
X97483034Y-92874167D01*
X97367571Y-93656166D01*
X97334206Y-94440368D01*
X97381078Y-95220202D01*
X97506324Y-95989098D01*
X97708083Y-96740488D01*
X97984493Y-97467801D01*
X98333692Y-98164467D01*
X98753819Y-98823916D01*
X99243013Y-99439578D01*
X99388860Y-99599757D01*
X99711220Y-99943601D01*
X99711220Y-100458965D01*
X99659186Y-100461155D01*
X99586228Y-100449761D01*
X99470753Y-100395848D01*
X99316800Y-100280894D01*
X99133722Y-100113718D01*
X98930873Y-99903138D01*
X98717607Y-99657975D01*
X98623078Y-99541667D01*
X98120978Y-98850357D01*
X97700337Y-98138808D01*
X97359481Y-97402838D01*
X97096738Y-96638263D01*
X96910436Y-95840901D01*
X96798903Y-95006568D01*
X96795901Y-94971510D01*
X96773455Y-94210576D01*
X96830368Y-93439270D01*
X96830368Y-93439270D01*
G37*
X96830368Y-93439270D02*
X96963927Y-92668030D01*
X97171422Y-91907293D01*
X97450141Y-91167498D01*
X97797373Y-90459082D01*
X98097645Y-89959962D01*
X98285972Y-89684400D01*
X98488620Y-89409413D01*
X98696288Y-89145838D01*
X98899679Y-88904511D01*
X99089494Y-88696268D01*
X99256433Y-88531946D01*
X99391198Y-88422380D01*
X99443553Y-88391544D01*
X99628976Y-88335568D01*
X99816324Y-88332399D01*
X99962224Y-88377751D01*
X100041620Y-88434321D01*
X100165630Y-88536711D01*
X100321867Y-88673326D01*
X100497944Y-88832571D01*
X100681475Y-89002848D01*
X100860071Y-89172564D01*
X101021345Y-89330121D01*
X101152912Y-89463925D01*
X101242382Y-89562381D01*
X101274446Y-89606122D01*
X101319417Y-89742924D01*
X101307623Y-89883494D01*
X101234696Y-90040168D01*
X101096265Y-90225285D01*
X101027411Y-90303633D01*
X100556718Y-90876986D01*
X100166962Y-91470491D01*
X99855798Y-92089040D01*
X99620884Y-92737526D01*
X99459875Y-93420844D01*
X99422706Y-93653793D01*
X99401014Y-93889619D01*
X99391888Y-94181650D01*
X99394464Y-94504838D01*
X99407880Y-94834138D01*
X99431273Y-95144505D01*
X99463780Y-95410892D01*
X99487732Y-95541167D01*
X99684289Y-96242029D01*
X99957095Y-96906225D01*
X100305384Y-97532261D01*
X100728390Y-98118642D01*
X100931370Y-98356334D01*
X101109796Y-98561558D01*
X101232145Y-98721553D01*
X101303603Y-98849531D01*
X101329358Y-98958702D01*
X101314596Y-99062277D01*
X101264503Y-99173469D01*
X101257250Y-99186397D01*
X101202698Y-99256623D01*
X101096776Y-99371554D01*
X100951123Y-99519344D01*
X100777382Y-99688150D01*
X100608103Y-99846887D01*
X100364208Y-100067379D01*
X100168323Y-100232535D01*
X100010162Y-100348423D01*
X99879442Y-100421111D01*
X99765878Y-100456666D01*
X99711220Y-100458965D01*
X99711220Y-99943601D01*
X100121102Y-99562717D01*
X100284012Y-99412391D01*
X100433441Y-99276424D01*
X100553871Y-99168809D01*
X100629783Y-99103539D01*
X100634825Y-99099485D01*
X100707722Y-99030573D01*
X100738658Y-98979286D01*
X100738667Y-98978787D01*
X100711575Y-98933057D01*
X100638752Y-98841474D01*
X100532873Y-98719478D01*
X100460817Y-98640334D01*
X100059758Y-98150315D01*
X99701778Y-97597231D01*
X99393623Y-96994491D01*
X99142036Y-96355504D01*
X98953763Y-95693680D01*
X98933857Y-95604667D01*
X98896996Y-95371523D01*
X98870719Y-95075729D01*
X98855042Y-94738520D01*
X98849979Y-94381136D01*
X98855546Y-94024812D01*
X98871758Y-93690786D01*
X98898629Y-93400295D01*
X98932144Y-93192681D01*
X99115928Y-92496249D01*
X99358805Y-91850422D01*
X99667534Y-91241461D01*
X100048872Y-90655627D01*
X100402116Y-90204650D01*
X100752086Y-89788406D01*
X100417293Y-89478313D01*
X100253349Y-89327801D01*
X100087893Y-89178139D01*
X99945606Y-89051562D01*
X99884799Y-88998667D01*
X99687098Y-88829113D01*
X99355632Y-89204357D01*
X98850841Y-89833327D01*
X98411862Y-90500404D01*
X98043064Y-91197022D01*
X97748817Y-91914619D01*
X97533491Y-92644629D01*
X97483034Y-92874167D01*
X97367571Y-93656166D01*
X97334206Y-94440368D01*
X97381078Y-95220202D01*
X97506324Y-95989098D01*
X97708083Y-96740488D01*
X97984493Y-97467801D01*
X98333692Y-98164467D01*
X98753819Y-98823916D01*
X99243013Y-99439578D01*
X99388860Y-99599757D01*
X99711220Y-99943601D01*
X99711220Y-100458965D01*
X99659186Y-100461155D01*
X99586228Y-100449761D01*
X99470753Y-100395848D01*
X99316800Y-100280894D01*
X99133722Y-100113718D01*
X98930873Y-99903138D01*
X98717607Y-99657975D01*
X98623078Y-99541667D01*
X98120978Y-98850357D01*
X97700337Y-98138808D01*
X97359481Y-97402838D01*
X97096738Y-96638263D01*
X96910436Y-95840901D01*
X96798903Y-95006568D01*
X96795901Y-94971510D01*
X96773455Y-94210576D01*
X96830368Y-93439270D01*
M02*
