%TF.GenerationSoftware,KiCad,Pcbnew,(5.0.2)-1*%
%TF.CreationDate,2019-09-06T13:10:15+02:00*%
%TF.ProjectId,Connected-OldtimerHardware,436f6e6e-6563-4746-9564-2d4f6c647469,rev?*%
%TF.SameCoordinates,Original*%
%TF.FileFunction,Soldermask,Bot*%
%TF.FilePolarity,Negative*%
%FSLAX46Y46*%
G04 Gerber Fmt 4.6, Leading zero omitted, Abs format (unit mm)*
G04 Created by KiCad (PCBNEW (5.0.2)-1) date 06/09/2019 13:10:15*
%MOMM*%
%LPD*%
G01*
G04 APERTURE LIST*
%ADD10C,0.100000*%
G04 APERTURE END LIST*
D10*
G36*
X190842459Y-112865183D02*
X191273268Y-112950876D01*
X191755719Y-113150714D01*
X192093497Y-113376410D01*
X192189917Y-113440836D01*
X192559164Y-113810083D01*
X192559166Y-113810086D01*
X192849286Y-114244281D01*
X193049124Y-114726732D01*
X193049124Y-114726733D01*
X193122951Y-115097884D01*
X193151000Y-115238899D01*
X193151000Y-115761101D01*
X193049124Y-116273268D01*
X192849286Y-116755719D01*
X192561121Y-117186989D01*
X192559164Y-117189917D01*
X192189917Y-117559164D01*
X192189914Y-117559166D01*
X191755719Y-117849286D01*
X191273268Y-118049124D01*
X191017184Y-118100062D01*
X190761102Y-118151000D01*
X190238898Y-118151000D01*
X189982816Y-118100062D01*
X189726732Y-118049124D01*
X189244281Y-117849286D01*
X188810086Y-117559166D01*
X188810083Y-117559164D01*
X188440836Y-117189917D01*
X188438879Y-117186989D01*
X188150714Y-116755719D01*
X187950876Y-116273268D01*
X187849000Y-115761101D01*
X187849000Y-115238899D01*
X187877050Y-115097884D01*
X187950876Y-114726733D01*
X187950876Y-114726732D01*
X188150714Y-114244281D01*
X188440834Y-113810086D01*
X188440836Y-113810083D01*
X188810083Y-113440836D01*
X188906503Y-113376410D01*
X189244281Y-113150714D01*
X189726732Y-112950876D01*
X190157541Y-112865183D01*
X190238898Y-112849000D01*
X190761102Y-112849000D01*
X190842459Y-112865183D01*
X190842459Y-112865183D01*
G37*
G36*
X96742459Y-112865183D02*
X97173268Y-112950876D01*
X97655719Y-113150714D01*
X97993497Y-113376410D01*
X98089917Y-113440836D01*
X98459164Y-113810083D01*
X98459166Y-113810086D01*
X98749286Y-114244281D01*
X98949124Y-114726732D01*
X98949124Y-114726733D01*
X99022951Y-115097884D01*
X99051000Y-115238899D01*
X99051000Y-115761101D01*
X98949124Y-116273268D01*
X98749286Y-116755719D01*
X98461121Y-117186989D01*
X98459164Y-117189917D01*
X98089917Y-117559164D01*
X98089914Y-117559166D01*
X97655719Y-117849286D01*
X97173268Y-118049124D01*
X96917184Y-118100062D01*
X96661102Y-118151000D01*
X96138898Y-118151000D01*
X95882816Y-118100062D01*
X95626732Y-118049124D01*
X95144281Y-117849286D01*
X94710086Y-117559166D01*
X94710083Y-117559164D01*
X94340836Y-117189917D01*
X94338879Y-117186989D01*
X94050714Y-116755719D01*
X93850876Y-116273268D01*
X93749000Y-115761101D01*
X93749000Y-115238899D01*
X93777050Y-115097884D01*
X93850876Y-114726733D01*
X93850876Y-114726732D01*
X94050714Y-114244281D01*
X94340834Y-113810086D01*
X94340836Y-113810083D01*
X94710083Y-113440836D01*
X94806503Y-113376410D01*
X95144281Y-113150714D01*
X95626732Y-112950876D01*
X96057541Y-112865183D01*
X96138898Y-112849000D01*
X96661102Y-112849000D01*
X96742459Y-112865183D01*
X96742459Y-112865183D01*
G37*
G36*
X164585154Y-113780708D02*
X164776423Y-113859934D01*
X164948565Y-113974956D01*
X165094952Y-114121343D01*
X165209974Y-114293485D01*
X165289200Y-114484754D01*
X165329589Y-114687803D01*
X165329589Y-114894835D01*
X165289200Y-115097884D01*
X165209974Y-115289153D01*
X165094952Y-115461295D01*
X164948565Y-115607682D01*
X164776423Y-115722704D01*
X164585154Y-115801930D01*
X164382105Y-115842319D01*
X164175073Y-115842319D01*
X163972024Y-115801930D01*
X163780755Y-115722704D01*
X163608613Y-115607682D01*
X163462226Y-115461295D01*
X163347204Y-115289153D01*
X163267978Y-115097884D01*
X163227589Y-114894835D01*
X163227589Y-114687803D01*
X163267978Y-114484754D01*
X163347204Y-114293485D01*
X163462226Y-114121343D01*
X163608613Y-113974956D01*
X163780755Y-113859934D01*
X163972024Y-113780708D01*
X164175073Y-113740319D01*
X164382105Y-113740319D01*
X164585154Y-113780708D01*
X164585154Y-113780708D01*
G37*
G36*
X175985154Y-113780708D02*
X176176423Y-113859934D01*
X176348565Y-113974956D01*
X176494952Y-114121343D01*
X176609974Y-114293485D01*
X176689200Y-114484754D01*
X176729589Y-114687803D01*
X176729589Y-114894835D01*
X176689200Y-115097884D01*
X176609974Y-115289153D01*
X176494952Y-115461295D01*
X176348565Y-115607682D01*
X176176423Y-115722704D01*
X175985154Y-115801930D01*
X175782105Y-115842319D01*
X175575073Y-115842319D01*
X175372024Y-115801930D01*
X175180755Y-115722704D01*
X175008613Y-115607682D01*
X174862226Y-115461295D01*
X174747204Y-115289153D01*
X174667978Y-115097884D01*
X174627589Y-114894835D01*
X174627589Y-114687803D01*
X174667978Y-114484754D01*
X174747204Y-114293485D01*
X174862226Y-114121343D01*
X175008613Y-113974956D01*
X175180755Y-113859934D01*
X175372024Y-113780708D01*
X175575073Y-113740319D01*
X175782105Y-113740319D01*
X175985154Y-113780708D01*
X175985154Y-113780708D01*
G37*
G36*
X125276981Y-112512468D02*
X125459150Y-112587925D01*
X125623103Y-112697475D01*
X125762525Y-112836897D01*
X125872075Y-113000850D01*
X125947532Y-113183019D01*
X125986000Y-113376410D01*
X125986000Y-113573590D01*
X125947532Y-113766981D01*
X125872075Y-113949150D01*
X125762525Y-114113103D01*
X125623103Y-114252525D01*
X125459150Y-114362075D01*
X125276981Y-114437532D01*
X125083590Y-114476000D01*
X124886410Y-114476000D01*
X124693019Y-114437532D01*
X124510850Y-114362075D01*
X124346897Y-114252525D01*
X124207475Y-114113103D01*
X124097925Y-113949150D01*
X124022468Y-113766981D01*
X123984000Y-113573590D01*
X123984000Y-113376410D01*
X124022468Y-113183019D01*
X124097925Y-113000850D01*
X124207475Y-112836897D01*
X124346897Y-112697475D01*
X124510850Y-112587925D01*
X124693019Y-112512468D01*
X124886410Y-112474000D01*
X125083590Y-112474000D01*
X125276981Y-112512468D01*
X125276981Y-112512468D01*
G37*
G36*
X116126626Y-111087037D02*
X116239852Y-111121384D01*
X116296466Y-111138557D01*
X116452989Y-111222221D01*
X116590186Y-111334814D01*
X116673448Y-111436271D01*
X116702778Y-111472009D01*
X116702779Y-111472011D01*
X116786443Y-111628533D01*
X116803616Y-111685147D01*
X116837963Y-111798373D01*
X116851000Y-111930742D01*
X116851000Y-112269257D01*
X116837963Y-112401626D01*
X116786443Y-112571466D01*
X116702778Y-112727991D01*
X116702777Y-112727992D01*
X116590186Y-112865186D01*
X116495251Y-112943096D01*
X116452991Y-112977778D01*
X116452989Y-112977779D01*
X116296467Y-113061443D01*
X116255734Y-113073799D01*
X116126627Y-113112963D01*
X115950000Y-113130359D01*
X115773374Y-113112963D01*
X115644267Y-113073799D01*
X115603534Y-113061443D01*
X115447012Y-112977779D01*
X115447010Y-112977778D01*
X115309816Y-112865186D01*
X115309812Y-112865183D01*
X115197222Y-112727992D01*
X115113557Y-112571467D01*
X115078634Y-112456339D01*
X115062037Y-112401627D01*
X115049000Y-112269258D01*
X115049000Y-111930743D01*
X115062037Y-111798374D01*
X115113557Y-111628535D01*
X115113557Y-111628534D01*
X115197221Y-111472011D01*
X115309814Y-111334814D01*
X115411271Y-111251552D01*
X115447009Y-111222222D01*
X115464913Y-111212652D01*
X115603533Y-111138557D01*
X115660147Y-111121384D01*
X115773373Y-111087037D01*
X115950000Y-111069641D01*
X116126626Y-111087037D01*
X116126626Y-111087037D01*
G37*
G36*
X113626626Y-111087037D02*
X113739852Y-111121384D01*
X113796466Y-111138557D01*
X113952989Y-111222221D01*
X114090186Y-111334814D01*
X114173448Y-111436271D01*
X114202778Y-111472009D01*
X114202779Y-111472011D01*
X114286443Y-111628533D01*
X114303616Y-111685147D01*
X114337963Y-111798373D01*
X114351000Y-111930742D01*
X114351000Y-112269257D01*
X114337963Y-112401626D01*
X114286443Y-112571466D01*
X114202778Y-112727991D01*
X114202777Y-112727992D01*
X114090186Y-112865186D01*
X113995251Y-112943096D01*
X113952991Y-112977778D01*
X113952989Y-112977779D01*
X113796467Y-113061443D01*
X113755734Y-113073799D01*
X113626627Y-113112963D01*
X113450000Y-113130359D01*
X113273374Y-113112963D01*
X113144267Y-113073799D01*
X113103534Y-113061443D01*
X112947012Y-112977779D01*
X112947010Y-112977778D01*
X112809816Y-112865186D01*
X112809812Y-112865183D01*
X112697222Y-112727992D01*
X112613557Y-112571467D01*
X112578634Y-112456339D01*
X112562037Y-112401627D01*
X112549000Y-112269258D01*
X112549000Y-111930743D01*
X112562037Y-111798374D01*
X112613557Y-111628535D01*
X112613557Y-111628534D01*
X112697221Y-111472011D01*
X112809814Y-111334814D01*
X112911271Y-111251552D01*
X112947009Y-111222222D01*
X112964913Y-111212652D01*
X113103533Y-111138557D01*
X113160147Y-111121384D01*
X113273373Y-111087037D01*
X113450000Y-111069641D01*
X113626626Y-111087037D01*
X113626626Y-111087037D01*
G37*
G36*
X111126626Y-111087037D02*
X111239852Y-111121384D01*
X111296466Y-111138557D01*
X111452989Y-111222221D01*
X111590186Y-111334814D01*
X111673448Y-111436271D01*
X111702778Y-111472009D01*
X111702779Y-111472011D01*
X111786443Y-111628533D01*
X111803616Y-111685147D01*
X111837963Y-111798373D01*
X111851000Y-111930742D01*
X111851000Y-112269257D01*
X111837963Y-112401626D01*
X111786443Y-112571466D01*
X111702778Y-112727991D01*
X111702777Y-112727992D01*
X111590186Y-112865186D01*
X111495251Y-112943096D01*
X111452991Y-112977778D01*
X111452989Y-112977779D01*
X111296467Y-113061443D01*
X111255734Y-113073799D01*
X111126627Y-113112963D01*
X110950000Y-113130359D01*
X110773374Y-113112963D01*
X110644267Y-113073799D01*
X110603534Y-113061443D01*
X110447012Y-112977779D01*
X110447010Y-112977778D01*
X110309816Y-112865186D01*
X110309812Y-112865183D01*
X110197222Y-112727992D01*
X110113557Y-112571467D01*
X110078634Y-112456339D01*
X110062037Y-112401627D01*
X110049000Y-112269258D01*
X110049000Y-111930743D01*
X110062037Y-111798374D01*
X110113557Y-111628535D01*
X110113557Y-111628534D01*
X110197221Y-111472011D01*
X110309814Y-111334814D01*
X110411271Y-111251552D01*
X110447009Y-111222222D01*
X110464913Y-111212652D01*
X110603533Y-111138557D01*
X110660147Y-111121384D01*
X110773373Y-111087037D01*
X110950000Y-111069641D01*
X111126626Y-111087037D01*
X111126626Y-111087037D01*
G37*
G36*
X109208600Y-111077989D02*
X109241649Y-111088014D01*
X109272106Y-111104294D01*
X109298799Y-111126201D01*
X109320706Y-111152894D01*
X109336986Y-111183351D01*
X109347011Y-111216400D01*
X109351000Y-111256904D01*
X109351000Y-112943096D01*
X109347011Y-112983600D01*
X109336986Y-113016649D01*
X109320706Y-113047106D01*
X109298799Y-113073799D01*
X109272106Y-113095706D01*
X109241649Y-113111986D01*
X109208600Y-113122011D01*
X109168096Y-113126000D01*
X107731904Y-113126000D01*
X107691400Y-113122011D01*
X107658351Y-113111986D01*
X107627894Y-113095706D01*
X107601201Y-113073799D01*
X107579294Y-113047106D01*
X107563014Y-113016649D01*
X107552989Y-112983600D01*
X107549000Y-112943096D01*
X107549000Y-111256904D01*
X107552989Y-111216400D01*
X107563014Y-111183351D01*
X107579294Y-111152894D01*
X107601201Y-111126201D01*
X107627894Y-111104294D01*
X107658351Y-111088014D01*
X107691400Y-111077989D01*
X107731904Y-111074000D01*
X109168096Y-111074000D01*
X109208600Y-111077989D01*
X109208600Y-111077989D01*
G37*
G36*
X200483600Y-110702989D02*
X200516649Y-110713014D01*
X200547106Y-110729294D01*
X200573799Y-110751201D01*
X200595706Y-110777894D01*
X200611986Y-110808351D01*
X200622011Y-110841400D01*
X200626000Y-110881904D01*
X200626000Y-112318096D01*
X200622011Y-112358600D01*
X200611986Y-112391649D01*
X200595706Y-112422106D01*
X200573799Y-112448799D01*
X200547106Y-112470706D01*
X200516649Y-112486986D01*
X200483600Y-112497011D01*
X200443096Y-112501000D01*
X198756904Y-112501000D01*
X198716400Y-112497011D01*
X198683351Y-112486986D01*
X198652894Y-112470706D01*
X198626201Y-112448799D01*
X198604294Y-112422106D01*
X198588014Y-112391649D01*
X198577989Y-112358600D01*
X198574000Y-112318096D01*
X198574000Y-110881904D01*
X198577989Y-110841400D01*
X198588014Y-110808351D01*
X198604294Y-110777894D01*
X198626201Y-110751201D01*
X198652894Y-110729294D01*
X198683351Y-110713014D01*
X198716400Y-110702989D01*
X198756904Y-110699000D01*
X200443096Y-110699000D01*
X200483600Y-110702989D01*
X200483600Y-110702989D01*
G37*
G36*
X125276981Y-109972468D02*
X125459150Y-110047925D01*
X125623103Y-110157475D01*
X125762525Y-110296897D01*
X125872075Y-110460850D01*
X125947532Y-110643019D01*
X125986000Y-110836410D01*
X125986000Y-111033590D01*
X125947532Y-111226981D01*
X125872075Y-111409150D01*
X125762525Y-111573103D01*
X125623103Y-111712525D01*
X125459150Y-111822075D01*
X125276981Y-111897532D01*
X125083590Y-111936000D01*
X124886410Y-111936000D01*
X124693019Y-111897532D01*
X124510850Y-111822075D01*
X124346897Y-111712525D01*
X124207475Y-111573103D01*
X124097925Y-111409150D01*
X124022468Y-111226981D01*
X123984000Y-111033590D01*
X123984000Y-110836410D01*
X124022468Y-110643019D01*
X124097925Y-110460850D01*
X124207475Y-110296897D01*
X124346897Y-110157475D01*
X124510850Y-110047925D01*
X124693019Y-109972468D01*
X124886410Y-109934000D01*
X125083590Y-109934000D01*
X125276981Y-109972468D01*
X125276981Y-109972468D01*
G37*
G36*
X199835443Y-108205519D02*
X199901627Y-108212037D01*
X200014853Y-108246384D01*
X200071467Y-108263557D01*
X200207928Y-108336498D01*
X200227991Y-108347222D01*
X200263729Y-108376552D01*
X200365186Y-108459814D01*
X200412937Y-108518000D01*
X200477778Y-108597009D01*
X200487348Y-108614913D01*
X200561443Y-108753533D01*
X200561443Y-108753534D01*
X200612963Y-108923373D01*
X200630359Y-109100000D01*
X200612963Y-109276627D01*
X200611310Y-109282075D01*
X200561443Y-109446467D01*
X200487348Y-109585087D01*
X200477778Y-109602991D01*
X200448448Y-109638729D01*
X200365186Y-109740186D01*
X200263729Y-109823448D01*
X200227991Y-109852778D01*
X200227989Y-109852779D01*
X200071467Y-109936443D01*
X200014853Y-109953616D01*
X199901627Y-109987963D01*
X199835442Y-109994482D01*
X199769260Y-110001000D01*
X199430740Y-110001000D01*
X199364558Y-109994482D01*
X199298373Y-109987963D01*
X199185147Y-109953616D01*
X199128533Y-109936443D01*
X198972011Y-109852779D01*
X198972009Y-109852778D01*
X198936271Y-109823448D01*
X198834814Y-109740186D01*
X198751552Y-109638729D01*
X198722222Y-109602991D01*
X198712652Y-109585087D01*
X198638557Y-109446467D01*
X198588690Y-109282075D01*
X198587037Y-109276627D01*
X198569641Y-109100000D01*
X198587037Y-108923373D01*
X198638557Y-108753534D01*
X198638557Y-108753533D01*
X198712652Y-108614913D01*
X198722222Y-108597009D01*
X198787063Y-108518000D01*
X198834814Y-108459814D01*
X198936271Y-108376552D01*
X198972009Y-108347222D01*
X198992072Y-108336498D01*
X199128533Y-108263557D01*
X199185147Y-108246384D01*
X199298373Y-108212037D01*
X199364557Y-108205519D01*
X199430740Y-108199000D01*
X199769260Y-108199000D01*
X199835443Y-108205519D01*
X199835443Y-108205519D01*
G37*
G36*
X125276981Y-107432468D02*
X125459150Y-107507925D01*
X125623103Y-107617475D01*
X125762525Y-107756897D01*
X125872075Y-107920850D01*
X125947532Y-108103019D01*
X125986000Y-108296410D01*
X125986000Y-108493590D01*
X125947532Y-108686981D01*
X125872075Y-108869150D01*
X125762525Y-109033103D01*
X125623103Y-109172525D01*
X125459150Y-109282075D01*
X125276981Y-109357532D01*
X125083590Y-109396000D01*
X124886410Y-109396000D01*
X124693019Y-109357532D01*
X124510850Y-109282075D01*
X124346897Y-109172525D01*
X124207475Y-109033103D01*
X124097925Y-108869150D01*
X124022468Y-108686981D01*
X123984000Y-108493590D01*
X123984000Y-108296410D01*
X124022468Y-108103019D01*
X124097925Y-107920850D01*
X124207475Y-107756897D01*
X124346897Y-107617475D01*
X124510850Y-107507925D01*
X124693019Y-107432468D01*
X124886410Y-107394000D01*
X125083590Y-107394000D01*
X125276981Y-107432468D01*
X125276981Y-107432468D01*
G37*
G36*
X164606565Y-107089389D02*
X164797834Y-107168615D01*
X164969976Y-107283637D01*
X165116363Y-107430024D01*
X165231385Y-107602166D01*
X165310611Y-107793435D01*
X165351000Y-107996484D01*
X165351000Y-108203516D01*
X165310611Y-108406565D01*
X165231385Y-108597834D01*
X165116363Y-108769976D01*
X164969976Y-108916363D01*
X164797834Y-109031385D01*
X164606565Y-109110611D01*
X164403516Y-109151000D01*
X164196484Y-109151000D01*
X163993435Y-109110611D01*
X163802166Y-109031385D01*
X163630024Y-108916363D01*
X163483637Y-108769976D01*
X163368615Y-108597834D01*
X163289389Y-108406565D01*
X163249000Y-108203516D01*
X163249000Y-107996484D01*
X163289389Y-107793435D01*
X163368615Y-107602166D01*
X163483637Y-107430024D01*
X163630024Y-107283637D01*
X163802166Y-107168615D01*
X163993435Y-107089389D01*
X164196484Y-107049000D01*
X164403516Y-107049000D01*
X164606565Y-107089389D01*
X164606565Y-107089389D01*
G37*
G36*
X176006565Y-107089389D02*
X176197834Y-107168615D01*
X176369976Y-107283637D01*
X176516363Y-107430024D01*
X176631385Y-107602166D01*
X176710611Y-107793435D01*
X176751000Y-107996484D01*
X176751000Y-108203516D01*
X176710611Y-108406565D01*
X176631385Y-108597834D01*
X176516363Y-108769976D01*
X176369976Y-108916363D01*
X176197834Y-109031385D01*
X176006565Y-109110611D01*
X175803516Y-109151000D01*
X175596484Y-109151000D01*
X175393435Y-109110611D01*
X175202166Y-109031385D01*
X175030024Y-108916363D01*
X174883637Y-108769976D01*
X174768615Y-108597834D01*
X174689389Y-108406565D01*
X174649000Y-108203516D01*
X174649000Y-107996484D01*
X174689389Y-107793435D01*
X174768615Y-107602166D01*
X174883637Y-107430024D01*
X175030024Y-107283637D01*
X175202166Y-107168615D01*
X175393435Y-107089389D01*
X175596484Y-107049000D01*
X175803516Y-107049000D01*
X176006565Y-107089389D01*
X176006565Y-107089389D01*
G37*
G36*
X187762142Y-106923242D02*
X187910102Y-106984530D01*
X187977130Y-107029317D01*
X188043257Y-107073501D01*
X188156499Y-107186743D01*
X188192208Y-107240186D01*
X188245470Y-107319898D01*
X188306758Y-107467858D01*
X188338000Y-107624925D01*
X188338000Y-107785075D01*
X188306758Y-107942142D01*
X188259354Y-108056583D01*
X188245471Y-108090100D01*
X188156499Y-108223257D01*
X188043257Y-108336499D01*
X187977130Y-108380683D01*
X187910102Y-108425470D01*
X187762142Y-108486758D01*
X187605075Y-108518000D01*
X187444925Y-108518000D01*
X187287858Y-108486758D01*
X187139898Y-108425470D01*
X187072870Y-108380683D01*
X187006743Y-108336499D01*
X186893501Y-108223257D01*
X186804529Y-108090100D01*
X186790646Y-108056583D01*
X186743242Y-107942142D01*
X186712000Y-107785075D01*
X186712000Y-107624925D01*
X186743242Y-107467858D01*
X186804530Y-107319898D01*
X186857792Y-107240186D01*
X186893501Y-107186743D01*
X187006743Y-107073501D01*
X187072870Y-107029317D01*
X187139898Y-106984530D01*
X187287858Y-106923242D01*
X187444925Y-106892000D01*
X187605075Y-106892000D01*
X187762142Y-106923242D01*
X187762142Y-106923242D01*
G37*
G36*
X199835443Y-105705519D02*
X199901627Y-105712037D01*
X200014853Y-105746384D01*
X200071467Y-105763557D01*
X200133094Y-105796498D01*
X200227991Y-105847222D01*
X200263729Y-105876552D01*
X200365186Y-105959814D01*
X200448448Y-106061271D01*
X200477778Y-106097009D01*
X200477779Y-106097011D01*
X200561443Y-106253533D01*
X200561443Y-106253534D01*
X200612963Y-106423373D01*
X200630359Y-106600000D01*
X200612963Y-106776627D01*
X200578616Y-106889853D01*
X200561443Y-106946467D01*
X200506637Y-107049000D01*
X200477778Y-107102991D01*
X200448448Y-107138729D01*
X200365186Y-107240186D01*
X200268055Y-107319898D01*
X200227991Y-107352778D01*
X200227989Y-107352779D01*
X200071467Y-107436443D01*
X200014853Y-107453616D01*
X199901627Y-107487963D01*
X199835442Y-107494482D01*
X199769260Y-107501000D01*
X199430740Y-107501000D01*
X199364558Y-107494482D01*
X199298373Y-107487963D01*
X199185147Y-107453616D01*
X199128533Y-107436443D01*
X198972011Y-107352779D01*
X198972009Y-107352778D01*
X198931945Y-107319898D01*
X198834814Y-107240186D01*
X198751552Y-107138729D01*
X198722222Y-107102991D01*
X198693363Y-107049000D01*
X198638557Y-106946467D01*
X198621384Y-106889853D01*
X198587037Y-106776627D01*
X198569641Y-106600000D01*
X198587037Y-106423373D01*
X198638557Y-106253534D01*
X198638557Y-106253533D01*
X198722221Y-106097011D01*
X198722222Y-106097009D01*
X198751552Y-106061271D01*
X198834814Y-105959814D01*
X198936271Y-105876552D01*
X198972009Y-105847222D01*
X199066906Y-105796498D01*
X199128533Y-105763557D01*
X199185147Y-105746384D01*
X199298373Y-105712037D01*
X199364557Y-105705519D01*
X199430740Y-105699000D01*
X199769260Y-105699000D01*
X199835443Y-105705519D01*
X199835443Y-105705519D01*
G37*
G36*
X187762142Y-104383242D02*
X187910102Y-104444530D01*
X188043258Y-104533502D01*
X188156498Y-104646742D01*
X188245470Y-104779898D01*
X188306758Y-104927858D01*
X188338000Y-105084925D01*
X188338000Y-105245075D01*
X188306758Y-105402142D01*
X188259354Y-105516583D01*
X188245471Y-105550100D01*
X188171371Y-105661000D01*
X188156498Y-105683258D01*
X188043258Y-105796498D01*
X187910102Y-105885470D01*
X187762142Y-105946758D01*
X187605075Y-105978000D01*
X187444925Y-105978000D01*
X187287858Y-105946758D01*
X187139898Y-105885470D01*
X187006742Y-105796498D01*
X186893502Y-105683258D01*
X186878630Y-105661000D01*
X186804529Y-105550100D01*
X186790646Y-105516583D01*
X186743242Y-105402142D01*
X186712000Y-105245075D01*
X186712000Y-105084925D01*
X186743242Y-104927858D01*
X186804530Y-104779898D01*
X186893502Y-104646742D01*
X187006742Y-104533502D01*
X187139898Y-104444530D01*
X187287858Y-104383242D01*
X187444925Y-104352000D01*
X187605075Y-104352000D01*
X187762142Y-104383242D01*
X187762142Y-104383242D01*
G37*
G36*
X110261981Y-103697468D02*
X110444150Y-103772925D01*
X110608103Y-103882475D01*
X110747525Y-104021897D01*
X110857075Y-104185850D01*
X110932532Y-104368019D01*
X110971000Y-104561410D01*
X110971000Y-104758590D01*
X110932532Y-104951981D01*
X110857075Y-105134150D01*
X110747525Y-105298103D01*
X110608103Y-105437525D01*
X110444150Y-105547075D01*
X110261981Y-105622532D01*
X110068590Y-105661000D01*
X109871410Y-105661000D01*
X109678019Y-105622532D01*
X109495850Y-105547075D01*
X109331897Y-105437525D01*
X109192475Y-105298103D01*
X109082925Y-105134150D01*
X109007468Y-104951981D01*
X108969000Y-104758590D01*
X108969000Y-104561410D01*
X109007468Y-104368019D01*
X109082925Y-104185850D01*
X109192475Y-104021897D01*
X109331897Y-103882475D01*
X109495850Y-103772925D01*
X109678019Y-103697468D01*
X109871410Y-103659000D01*
X110068590Y-103659000D01*
X110261981Y-103697468D01*
X110261981Y-103697468D01*
G37*
G36*
X97561981Y-103697468D02*
X97744150Y-103772925D01*
X97908103Y-103882475D01*
X98047525Y-104021897D01*
X98157075Y-104185850D01*
X98232532Y-104368019D01*
X98271000Y-104561410D01*
X98271000Y-104758590D01*
X98232532Y-104951981D01*
X98157075Y-105134150D01*
X98047525Y-105298103D01*
X97908103Y-105437525D01*
X97744150Y-105547075D01*
X97561981Y-105622532D01*
X97368590Y-105661000D01*
X97171410Y-105661000D01*
X96978019Y-105622532D01*
X96795850Y-105547075D01*
X96631897Y-105437525D01*
X96492475Y-105298103D01*
X96382925Y-105134150D01*
X96307468Y-104951981D01*
X96269000Y-104758590D01*
X96269000Y-104561410D01*
X96307468Y-104368019D01*
X96382925Y-104185850D01*
X96492475Y-104021897D01*
X96631897Y-103882475D01*
X96795850Y-103772925D01*
X96978019Y-103697468D01*
X97171410Y-103659000D01*
X97368590Y-103659000D01*
X97561981Y-103697468D01*
X97561981Y-103697468D01*
G37*
G36*
X100101981Y-103697468D02*
X100284150Y-103772925D01*
X100448103Y-103882475D01*
X100587525Y-104021897D01*
X100697075Y-104185850D01*
X100772532Y-104368019D01*
X100811000Y-104561410D01*
X100811000Y-104758590D01*
X100772532Y-104951981D01*
X100697075Y-105134150D01*
X100587525Y-105298103D01*
X100448103Y-105437525D01*
X100284150Y-105547075D01*
X100101981Y-105622532D01*
X99908590Y-105661000D01*
X99711410Y-105661000D01*
X99518019Y-105622532D01*
X99335850Y-105547075D01*
X99171897Y-105437525D01*
X99032475Y-105298103D01*
X98922925Y-105134150D01*
X98847468Y-104951981D01*
X98809000Y-104758590D01*
X98809000Y-104561410D01*
X98847468Y-104368019D01*
X98922925Y-104185850D01*
X99032475Y-104021897D01*
X99171897Y-103882475D01*
X99335850Y-103772925D01*
X99518019Y-103697468D01*
X99711410Y-103659000D01*
X99908590Y-103659000D01*
X100101981Y-103697468D01*
X100101981Y-103697468D01*
G37*
G36*
X117881981Y-103697468D02*
X118064150Y-103772925D01*
X118228103Y-103882475D01*
X118367525Y-104021897D01*
X118477075Y-104185850D01*
X118552532Y-104368019D01*
X118591000Y-104561410D01*
X118591000Y-104758590D01*
X118552532Y-104951981D01*
X118477075Y-105134150D01*
X118367525Y-105298103D01*
X118228103Y-105437525D01*
X118064150Y-105547075D01*
X117881981Y-105622532D01*
X117688590Y-105661000D01*
X117491410Y-105661000D01*
X117298019Y-105622532D01*
X117115850Y-105547075D01*
X116951897Y-105437525D01*
X116812475Y-105298103D01*
X116702925Y-105134150D01*
X116627468Y-104951981D01*
X116589000Y-104758590D01*
X116589000Y-104561410D01*
X116627468Y-104368019D01*
X116702925Y-104185850D01*
X116812475Y-104021897D01*
X116951897Y-103882475D01*
X117115850Y-103772925D01*
X117298019Y-103697468D01*
X117491410Y-103659000D01*
X117688590Y-103659000D01*
X117881981Y-103697468D01*
X117881981Y-103697468D01*
G37*
G36*
X115341981Y-103697468D02*
X115524150Y-103772925D01*
X115688103Y-103882475D01*
X115827525Y-104021897D01*
X115937075Y-104185850D01*
X116012532Y-104368019D01*
X116051000Y-104561410D01*
X116051000Y-104758590D01*
X116012532Y-104951981D01*
X115937075Y-105134150D01*
X115827525Y-105298103D01*
X115688103Y-105437525D01*
X115524150Y-105547075D01*
X115341981Y-105622532D01*
X115148590Y-105661000D01*
X114951410Y-105661000D01*
X114758019Y-105622532D01*
X114575850Y-105547075D01*
X114411897Y-105437525D01*
X114272475Y-105298103D01*
X114162925Y-105134150D01*
X114087468Y-104951981D01*
X114049000Y-104758590D01*
X114049000Y-104561410D01*
X114087468Y-104368019D01*
X114162925Y-104185850D01*
X114272475Y-104021897D01*
X114411897Y-103882475D01*
X114575850Y-103772925D01*
X114758019Y-103697468D01*
X114951410Y-103659000D01*
X115148590Y-103659000D01*
X115341981Y-103697468D01*
X115341981Y-103697468D01*
G37*
G36*
X112801981Y-103697468D02*
X112984150Y-103772925D01*
X113148103Y-103882475D01*
X113287525Y-104021897D01*
X113397075Y-104185850D01*
X113472532Y-104368019D01*
X113511000Y-104561410D01*
X113511000Y-104758590D01*
X113472532Y-104951981D01*
X113397075Y-105134150D01*
X113287525Y-105298103D01*
X113148103Y-105437525D01*
X112984150Y-105547075D01*
X112801981Y-105622532D01*
X112608590Y-105661000D01*
X112411410Y-105661000D01*
X112218019Y-105622532D01*
X112035850Y-105547075D01*
X111871897Y-105437525D01*
X111732475Y-105298103D01*
X111622925Y-105134150D01*
X111547468Y-104951981D01*
X111509000Y-104758590D01*
X111509000Y-104561410D01*
X111547468Y-104368019D01*
X111622925Y-104185850D01*
X111732475Y-104021897D01*
X111871897Y-103882475D01*
X112035850Y-103772925D01*
X112218019Y-103697468D01*
X112411410Y-103659000D01*
X112608590Y-103659000D01*
X112801981Y-103697468D01*
X112801981Y-103697468D01*
G37*
G36*
X105181981Y-103697468D02*
X105364150Y-103772925D01*
X105528103Y-103882475D01*
X105667525Y-104021897D01*
X105777075Y-104185850D01*
X105852532Y-104368019D01*
X105891000Y-104561410D01*
X105891000Y-104758590D01*
X105852532Y-104951981D01*
X105777075Y-105134150D01*
X105667525Y-105298103D01*
X105528103Y-105437525D01*
X105364150Y-105547075D01*
X105181981Y-105622532D01*
X104988590Y-105661000D01*
X104791410Y-105661000D01*
X104598019Y-105622532D01*
X104415850Y-105547075D01*
X104251897Y-105437525D01*
X104112475Y-105298103D01*
X104002925Y-105134150D01*
X103927468Y-104951981D01*
X103889000Y-104758590D01*
X103889000Y-104561410D01*
X103927468Y-104368019D01*
X104002925Y-104185850D01*
X104112475Y-104021897D01*
X104251897Y-103882475D01*
X104415850Y-103772925D01*
X104598019Y-103697468D01*
X104791410Y-103659000D01*
X104988590Y-103659000D01*
X105181981Y-103697468D01*
X105181981Y-103697468D01*
G37*
G36*
X107721981Y-103697468D02*
X107904150Y-103772925D01*
X108068103Y-103882475D01*
X108207525Y-104021897D01*
X108317075Y-104185850D01*
X108392532Y-104368019D01*
X108431000Y-104561410D01*
X108431000Y-104758590D01*
X108392532Y-104951981D01*
X108317075Y-105134150D01*
X108207525Y-105298103D01*
X108068103Y-105437525D01*
X107904150Y-105547075D01*
X107721981Y-105622532D01*
X107528590Y-105661000D01*
X107331410Y-105661000D01*
X107138019Y-105622532D01*
X106955850Y-105547075D01*
X106791897Y-105437525D01*
X106652475Y-105298103D01*
X106542925Y-105134150D01*
X106467468Y-104951981D01*
X106429000Y-104758590D01*
X106429000Y-104561410D01*
X106467468Y-104368019D01*
X106542925Y-104185850D01*
X106652475Y-104021897D01*
X106791897Y-103882475D01*
X106955850Y-103772925D01*
X107138019Y-103697468D01*
X107331410Y-103659000D01*
X107528590Y-103659000D01*
X107721981Y-103697468D01*
X107721981Y-103697468D01*
G37*
G36*
X102641981Y-103697468D02*
X102824150Y-103772925D01*
X102988103Y-103882475D01*
X103127525Y-104021897D01*
X103237075Y-104185850D01*
X103312532Y-104368019D01*
X103351000Y-104561410D01*
X103351000Y-104758590D01*
X103312532Y-104951981D01*
X103237075Y-105134150D01*
X103127525Y-105298103D01*
X102988103Y-105437525D01*
X102824150Y-105547075D01*
X102641981Y-105622532D01*
X102448590Y-105661000D01*
X102251410Y-105661000D01*
X102058019Y-105622532D01*
X101875850Y-105547075D01*
X101711897Y-105437525D01*
X101572475Y-105298103D01*
X101462925Y-105134150D01*
X101387468Y-104951981D01*
X101349000Y-104758590D01*
X101349000Y-104561410D01*
X101387468Y-104368019D01*
X101462925Y-104185850D01*
X101572475Y-104021897D01*
X101711897Y-103882475D01*
X101875850Y-103772925D01*
X102058019Y-103697468D01*
X102251410Y-103659000D01*
X102448590Y-103659000D01*
X102641981Y-103697468D01*
X102641981Y-103697468D01*
G37*
G36*
X175448228Y-102481703D02*
X175603100Y-102545853D01*
X175742481Y-102638985D01*
X175861015Y-102757519D01*
X175954147Y-102896900D01*
X176018297Y-103051772D01*
X176051000Y-103216184D01*
X176051000Y-103383816D01*
X176018297Y-103548228D01*
X175954147Y-103703100D01*
X175861015Y-103842481D01*
X175742481Y-103961015D01*
X175603100Y-104054147D01*
X175448228Y-104118297D01*
X175283816Y-104151000D01*
X175116184Y-104151000D01*
X174951772Y-104118297D01*
X174796900Y-104054147D01*
X174657519Y-103961015D01*
X174538985Y-103842481D01*
X174445853Y-103703100D01*
X174381703Y-103548228D01*
X174349000Y-103383816D01*
X174349000Y-103216184D01*
X174381703Y-103051772D01*
X174445853Y-102896900D01*
X174538985Y-102757519D01*
X174657519Y-102638985D01*
X174796900Y-102545853D01*
X174951772Y-102481703D01*
X175116184Y-102449000D01*
X175283816Y-102449000D01*
X175448228Y-102481703D01*
X175448228Y-102481703D01*
G37*
G36*
X178566821Y-102421313D02*
X178566824Y-102421314D01*
X178566825Y-102421314D01*
X178727239Y-102469975D01*
X178727241Y-102469976D01*
X178727244Y-102469977D01*
X178875078Y-102548995D01*
X179004659Y-102655341D01*
X179111005Y-102784922D01*
X179190023Y-102932756D01*
X179190024Y-102932759D01*
X179190025Y-102932761D01*
X179238686Y-103093175D01*
X179238687Y-103093179D01*
X179255117Y-103260000D01*
X179238687Y-103426821D01*
X179238686Y-103426824D01*
X179238686Y-103426825D01*
X179201859Y-103548228D01*
X179190023Y-103587244D01*
X179111005Y-103735078D01*
X179004659Y-103864659D01*
X178875078Y-103971005D01*
X178727244Y-104050023D01*
X178727241Y-104050024D01*
X178727239Y-104050025D01*
X178566825Y-104098686D01*
X178566824Y-104098686D01*
X178566821Y-104098687D01*
X178441804Y-104111000D01*
X178358196Y-104111000D01*
X178233179Y-104098687D01*
X178233176Y-104098686D01*
X178233175Y-104098686D01*
X178072761Y-104050025D01*
X178072759Y-104050024D01*
X178072756Y-104050023D01*
X177924922Y-103971005D01*
X177795341Y-103864659D01*
X177688995Y-103735078D01*
X177609977Y-103587244D01*
X177598142Y-103548228D01*
X177561314Y-103426825D01*
X177561314Y-103426824D01*
X177561313Y-103426821D01*
X177544883Y-103260000D01*
X177561313Y-103093179D01*
X177561314Y-103093175D01*
X177609975Y-102932761D01*
X177609976Y-102932759D01*
X177609977Y-102932756D01*
X177688995Y-102784922D01*
X177795341Y-102655341D01*
X177924922Y-102548995D01*
X178072756Y-102469977D01*
X178072759Y-102469976D01*
X178072761Y-102469975D01*
X178233175Y-102421314D01*
X178233176Y-102421314D01*
X178233179Y-102421313D01*
X178358196Y-102409000D01*
X178441804Y-102409000D01*
X178566821Y-102421313D01*
X178566821Y-102421313D01*
G37*
G36*
X181424180Y-101375662D02*
X181525635Y-101385654D01*
X181742600Y-101451470D01*
X181742602Y-101451471D01*
X181742605Y-101451472D01*
X181942556Y-101558347D01*
X182117818Y-101702182D01*
X182261653Y-101877444D01*
X182368528Y-102077395D01*
X182368529Y-102077398D01*
X182368530Y-102077400D01*
X182434346Y-102294365D01*
X182456569Y-102520000D01*
X182434346Y-102745635D01*
X182368530Y-102962600D01*
X182368528Y-102962605D01*
X182261653Y-103162556D01*
X182117818Y-103337818D01*
X181942556Y-103481653D01*
X181742605Y-103588528D01*
X181742602Y-103588529D01*
X181742600Y-103588530D01*
X181525635Y-103654346D01*
X181424180Y-103664338D01*
X181356545Y-103671000D01*
X181243455Y-103671000D01*
X181175820Y-103664338D01*
X181074365Y-103654346D01*
X180857400Y-103588530D01*
X180857398Y-103588529D01*
X180857395Y-103588528D01*
X180657444Y-103481653D01*
X180482182Y-103337818D01*
X180338347Y-103162556D01*
X180231472Y-102962605D01*
X180231470Y-102962600D01*
X180165654Y-102745635D01*
X180143431Y-102520000D01*
X180165654Y-102294365D01*
X180231470Y-102077400D01*
X180231471Y-102077398D01*
X180231472Y-102077395D01*
X180338347Y-101877444D01*
X180482182Y-101702182D01*
X180657444Y-101558347D01*
X180857395Y-101451472D01*
X180857398Y-101451471D01*
X180857400Y-101451470D01*
X181074365Y-101385654D01*
X181175820Y-101375662D01*
X181243455Y-101369000D01*
X181356545Y-101369000D01*
X181424180Y-101375662D01*
X181424180Y-101375662D01*
G37*
G36*
X188338000Y-103438000D02*
X186712000Y-103438000D01*
X186712000Y-101812000D01*
X188338000Y-101812000D01*
X188338000Y-103438000D01*
X188338000Y-103438000D01*
G37*
G36*
X151601981Y-100427468D02*
X151784150Y-100502925D01*
X151948103Y-100612475D01*
X152087525Y-100751897D01*
X152197075Y-100915850D01*
X152272532Y-101098019D01*
X152311000Y-101291410D01*
X152311000Y-101488590D01*
X152272532Y-101681981D01*
X152197075Y-101864150D01*
X152087525Y-102028103D01*
X151948103Y-102167525D01*
X151784150Y-102277075D01*
X151601981Y-102352532D01*
X151408590Y-102391000D01*
X151211410Y-102391000D01*
X151018019Y-102352532D01*
X150835850Y-102277075D01*
X150671897Y-102167525D01*
X150532475Y-102028103D01*
X150422925Y-101864150D01*
X150347468Y-101681981D01*
X150309000Y-101488590D01*
X150309000Y-101291410D01*
X150347468Y-101098019D01*
X150422925Y-100915850D01*
X150532475Y-100751897D01*
X150671897Y-100612475D01*
X150835850Y-100502925D01*
X151018019Y-100427468D01*
X151211410Y-100389000D01*
X151408590Y-100389000D01*
X151601981Y-100427468D01*
X151601981Y-100427468D01*
G37*
G36*
X154141981Y-100427468D02*
X154324150Y-100502925D01*
X154488103Y-100612475D01*
X154627525Y-100751897D01*
X154737075Y-100915850D01*
X154812532Y-101098019D01*
X154851000Y-101291410D01*
X154851000Y-101488590D01*
X154812532Y-101681981D01*
X154737075Y-101864150D01*
X154627525Y-102028103D01*
X154488103Y-102167525D01*
X154324150Y-102277075D01*
X154141981Y-102352532D01*
X153948590Y-102391000D01*
X153751410Y-102391000D01*
X153558019Y-102352532D01*
X153375850Y-102277075D01*
X153211897Y-102167525D01*
X153072475Y-102028103D01*
X152962925Y-101864150D01*
X152887468Y-101681981D01*
X152849000Y-101488590D01*
X152849000Y-101291410D01*
X152887468Y-101098019D01*
X152962925Y-100915850D01*
X153072475Y-100751897D01*
X153211897Y-100612475D01*
X153375850Y-100502925D01*
X153558019Y-100427468D01*
X153751410Y-100389000D01*
X153948590Y-100389000D01*
X154141981Y-100427468D01*
X154141981Y-100427468D01*
G37*
G36*
X156681981Y-100427468D02*
X156864150Y-100502925D01*
X157028103Y-100612475D01*
X157167525Y-100751897D01*
X157277075Y-100915850D01*
X157352532Y-101098019D01*
X157391000Y-101291410D01*
X157391000Y-101488590D01*
X157352532Y-101681981D01*
X157277075Y-101864150D01*
X157167525Y-102028103D01*
X157028103Y-102167525D01*
X156864150Y-102277075D01*
X156681981Y-102352532D01*
X156488590Y-102391000D01*
X156291410Y-102391000D01*
X156098019Y-102352532D01*
X155915850Y-102277075D01*
X155751897Y-102167525D01*
X155612475Y-102028103D01*
X155502925Y-101864150D01*
X155427468Y-101681981D01*
X155389000Y-101488590D01*
X155389000Y-101291410D01*
X155427468Y-101098019D01*
X155502925Y-100915850D01*
X155612475Y-100751897D01*
X155751897Y-100612475D01*
X155915850Y-100502925D01*
X156098019Y-100427468D01*
X156291410Y-100389000D01*
X156488590Y-100389000D01*
X156681981Y-100427468D01*
X156681981Y-100427468D01*
G37*
G36*
X159221981Y-100427468D02*
X159404150Y-100502925D01*
X159568103Y-100612475D01*
X159707525Y-100751897D01*
X159817075Y-100915850D01*
X159892532Y-101098019D01*
X159931000Y-101291410D01*
X159931000Y-101488590D01*
X159892532Y-101681981D01*
X159817075Y-101864150D01*
X159707525Y-102028103D01*
X159568103Y-102167525D01*
X159404150Y-102277075D01*
X159221981Y-102352532D01*
X159028590Y-102391000D01*
X158831410Y-102391000D01*
X158638019Y-102352532D01*
X158455850Y-102277075D01*
X158291897Y-102167525D01*
X158152475Y-102028103D01*
X158042925Y-101864150D01*
X157967468Y-101681981D01*
X157929000Y-101488590D01*
X157929000Y-101291410D01*
X157967468Y-101098019D01*
X158042925Y-100915850D01*
X158152475Y-100751897D01*
X158291897Y-100612475D01*
X158455850Y-100502925D01*
X158638019Y-100427468D01*
X158831410Y-100389000D01*
X159028590Y-100389000D01*
X159221981Y-100427468D01*
X159221981Y-100427468D01*
G37*
G36*
X161761981Y-100427468D02*
X161944150Y-100502925D01*
X162108103Y-100612475D01*
X162247525Y-100751897D01*
X162357075Y-100915850D01*
X162432532Y-101098019D01*
X162471000Y-101291410D01*
X162471000Y-101488590D01*
X162432532Y-101681981D01*
X162357075Y-101864150D01*
X162247525Y-102028103D01*
X162108103Y-102167525D01*
X161944150Y-102277075D01*
X161761981Y-102352532D01*
X161568590Y-102391000D01*
X161371410Y-102391000D01*
X161178019Y-102352532D01*
X160995850Y-102277075D01*
X160831897Y-102167525D01*
X160692475Y-102028103D01*
X160582925Y-101864150D01*
X160507468Y-101681981D01*
X160469000Y-101488590D01*
X160469000Y-101291410D01*
X160507468Y-101098019D01*
X160582925Y-100915850D01*
X160692475Y-100751897D01*
X160831897Y-100612475D01*
X160995850Y-100502925D01*
X161178019Y-100427468D01*
X161371410Y-100389000D01*
X161568590Y-100389000D01*
X161761981Y-100427468D01*
X161761981Y-100427468D01*
G37*
G36*
X164301981Y-100427468D02*
X164484150Y-100502925D01*
X164648103Y-100612475D01*
X164787525Y-100751897D01*
X164897075Y-100915850D01*
X164972532Y-101098019D01*
X165011000Y-101291410D01*
X165011000Y-101488590D01*
X164972532Y-101681981D01*
X164897075Y-101864150D01*
X164787525Y-102028103D01*
X164648103Y-102167525D01*
X164484150Y-102277075D01*
X164301981Y-102352532D01*
X164108590Y-102391000D01*
X163911410Y-102391000D01*
X163718019Y-102352532D01*
X163535850Y-102277075D01*
X163371897Y-102167525D01*
X163232475Y-102028103D01*
X163122925Y-101864150D01*
X163047468Y-101681981D01*
X163009000Y-101488590D01*
X163009000Y-101291410D01*
X163047468Y-101098019D01*
X163122925Y-100915850D01*
X163232475Y-100751897D01*
X163371897Y-100612475D01*
X163535850Y-100502925D01*
X163718019Y-100427468D01*
X163911410Y-100389000D01*
X164108590Y-100389000D01*
X164301981Y-100427468D01*
X164301981Y-100427468D01*
G37*
G36*
X166841981Y-100427468D02*
X167024150Y-100502925D01*
X167188103Y-100612475D01*
X167327525Y-100751897D01*
X167437075Y-100915850D01*
X167512532Y-101098019D01*
X167551000Y-101291410D01*
X167551000Y-101488590D01*
X167512532Y-101681981D01*
X167437075Y-101864150D01*
X167327525Y-102028103D01*
X167188103Y-102167525D01*
X167024150Y-102277075D01*
X166841981Y-102352532D01*
X166648590Y-102391000D01*
X166451410Y-102391000D01*
X166258019Y-102352532D01*
X166075850Y-102277075D01*
X165911897Y-102167525D01*
X165772475Y-102028103D01*
X165662925Y-101864150D01*
X165587468Y-101681981D01*
X165549000Y-101488590D01*
X165549000Y-101291410D01*
X165587468Y-101098019D01*
X165662925Y-100915850D01*
X165772475Y-100751897D01*
X165911897Y-100612475D01*
X166075850Y-100502925D01*
X166258019Y-100427468D01*
X166451410Y-100389000D01*
X166648590Y-100389000D01*
X166841981Y-100427468D01*
X166841981Y-100427468D01*
G37*
G36*
X169381981Y-100427468D02*
X169564150Y-100502925D01*
X169728103Y-100612475D01*
X169867525Y-100751897D01*
X169977075Y-100915850D01*
X170052532Y-101098019D01*
X170091000Y-101291410D01*
X170091000Y-101488590D01*
X170052532Y-101681981D01*
X169977075Y-101864150D01*
X169867525Y-102028103D01*
X169728103Y-102167525D01*
X169564150Y-102277075D01*
X169381981Y-102352532D01*
X169188590Y-102391000D01*
X168991410Y-102391000D01*
X168798019Y-102352532D01*
X168615850Y-102277075D01*
X168451897Y-102167525D01*
X168312475Y-102028103D01*
X168202925Y-101864150D01*
X168127468Y-101681981D01*
X168089000Y-101488590D01*
X168089000Y-101291410D01*
X168127468Y-101098019D01*
X168202925Y-100915850D01*
X168312475Y-100751897D01*
X168451897Y-100612475D01*
X168615850Y-100502925D01*
X168798019Y-100427468D01*
X168991410Y-100389000D01*
X169188590Y-100389000D01*
X169381981Y-100427468D01*
X169381981Y-100427468D01*
G37*
G36*
X126201981Y-100427468D02*
X126384150Y-100502925D01*
X126548103Y-100612475D01*
X126687525Y-100751897D01*
X126797075Y-100915850D01*
X126872532Y-101098019D01*
X126911000Y-101291410D01*
X126911000Y-101488590D01*
X126872532Y-101681981D01*
X126797075Y-101864150D01*
X126687525Y-102028103D01*
X126548103Y-102167525D01*
X126384150Y-102277075D01*
X126201981Y-102352532D01*
X126008590Y-102391000D01*
X125811410Y-102391000D01*
X125618019Y-102352532D01*
X125435850Y-102277075D01*
X125271897Y-102167525D01*
X125132475Y-102028103D01*
X125022925Y-101864150D01*
X124947468Y-101681981D01*
X124909000Y-101488590D01*
X124909000Y-101291410D01*
X124947468Y-101098019D01*
X125022925Y-100915850D01*
X125132475Y-100751897D01*
X125271897Y-100612475D01*
X125435850Y-100502925D01*
X125618019Y-100427468D01*
X125811410Y-100389000D01*
X126008590Y-100389000D01*
X126201981Y-100427468D01*
X126201981Y-100427468D01*
G37*
G36*
X146521981Y-100427468D02*
X146704150Y-100502925D01*
X146868103Y-100612475D01*
X147007525Y-100751897D01*
X147117075Y-100915850D01*
X147192532Y-101098019D01*
X147231000Y-101291410D01*
X147231000Y-101488590D01*
X147192532Y-101681981D01*
X147117075Y-101864150D01*
X147007525Y-102028103D01*
X146868103Y-102167525D01*
X146704150Y-102277075D01*
X146521981Y-102352532D01*
X146328590Y-102391000D01*
X146131410Y-102391000D01*
X145938019Y-102352532D01*
X145755850Y-102277075D01*
X145591897Y-102167525D01*
X145452475Y-102028103D01*
X145342925Y-101864150D01*
X145267468Y-101681981D01*
X145229000Y-101488590D01*
X145229000Y-101291410D01*
X145267468Y-101098019D01*
X145342925Y-100915850D01*
X145452475Y-100751897D01*
X145591897Y-100612475D01*
X145755850Y-100502925D01*
X145938019Y-100427468D01*
X146131410Y-100389000D01*
X146328590Y-100389000D01*
X146521981Y-100427468D01*
X146521981Y-100427468D01*
G37*
G36*
X143981981Y-100427468D02*
X144164150Y-100502925D01*
X144328103Y-100612475D01*
X144467525Y-100751897D01*
X144577075Y-100915850D01*
X144652532Y-101098019D01*
X144691000Y-101291410D01*
X144691000Y-101488590D01*
X144652532Y-101681981D01*
X144577075Y-101864150D01*
X144467525Y-102028103D01*
X144328103Y-102167525D01*
X144164150Y-102277075D01*
X143981981Y-102352532D01*
X143788590Y-102391000D01*
X143591410Y-102391000D01*
X143398019Y-102352532D01*
X143215850Y-102277075D01*
X143051897Y-102167525D01*
X142912475Y-102028103D01*
X142802925Y-101864150D01*
X142727468Y-101681981D01*
X142689000Y-101488590D01*
X142689000Y-101291410D01*
X142727468Y-101098019D01*
X142802925Y-100915850D01*
X142912475Y-100751897D01*
X143051897Y-100612475D01*
X143215850Y-100502925D01*
X143398019Y-100427468D01*
X143591410Y-100389000D01*
X143788590Y-100389000D01*
X143981981Y-100427468D01*
X143981981Y-100427468D01*
G37*
G36*
X141441981Y-100427468D02*
X141624150Y-100502925D01*
X141788103Y-100612475D01*
X141927525Y-100751897D01*
X142037075Y-100915850D01*
X142112532Y-101098019D01*
X142151000Y-101291410D01*
X142151000Y-101488590D01*
X142112532Y-101681981D01*
X142037075Y-101864150D01*
X141927525Y-102028103D01*
X141788103Y-102167525D01*
X141624150Y-102277075D01*
X141441981Y-102352532D01*
X141248590Y-102391000D01*
X141051410Y-102391000D01*
X140858019Y-102352532D01*
X140675850Y-102277075D01*
X140511897Y-102167525D01*
X140372475Y-102028103D01*
X140262925Y-101864150D01*
X140187468Y-101681981D01*
X140149000Y-101488590D01*
X140149000Y-101291410D01*
X140187468Y-101098019D01*
X140262925Y-100915850D01*
X140372475Y-100751897D01*
X140511897Y-100612475D01*
X140675850Y-100502925D01*
X140858019Y-100427468D01*
X141051410Y-100389000D01*
X141248590Y-100389000D01*
X141441981Y-100427468D01*
X141441981Y-100427468D01*
G37*
G36*
X138901981Y-100427468D02*
X139084150Y-100502925D01*
X139248103Y-100612475D01*
X139387525Y-100751897D01*
X139497075Y-100915850D01*
X139572532Y-101098019D01*
X139611000Y-101291410D01*
X139611000Y-101488590D01*
X139572532Y-101681981D01*
X139497075Y-101864150D01*
X139387525Y-102028103D01*
X139248103Y-102167525D01*
X139084150Y-102277075D01*
X138901981Y-102352532D01*
X138708590Y-102391000D01*
X138511410Y-102391000D01*
X138318019Y-102352532D01*
X138135850Y-102277075D01*
X137971897Y-102167525D01*
X137832475Y-102028103D01*
X137722925Y-101864150D01*
X137647468Y-101681981D01*
X137609000Y-101488590D01*
X137609000Y-101291410D01*
X137647468Y-101098019D01*
X137722925Y-100915850D01*
X137832475Y-100751897D01*
X137971897Y-100612475D01*
X138135850Y-100502925D01*
X138318019Y-100427468D01*
X138511410Y-100389000D01*
X138708590Y-100389000D01*
X138901981Y-100427468D01*
X138901981Y-100427468D01*
G37*
G36*
X136361981Y-100427468D02*
X136544150Y-100502925D01*
X136708103Y-100612475D01*
X136847525Y-100751897D01*
X136957075Y-100915850D01*
X137032532Y-101098019D01*
X137071000Y-101291410D01*
X137071000Y-101488590D01*
X137032532Y-101681981D01*
X136957075Y-101864150D01*
X136847525Y-102028103D01*
X136708103Y-102167525D01*
X136544150Y-102277075D01*
X136361981Y-102352532D01*
X136168590Y-102391000D01*
X135971410Y-102391000D01*
X135778019Y-102352532D01*
X135595850Y-102277075D01*
X135431897Y-102167525D01*
X135292475Y-102028103D01*
X135182925Y-101864150D01*
X135107468Y-101681981D01*
X135069000Y-101488590D01*
X135069000Y-101291410D01*
X135107468Y-101098019D01*
X135182925Y-100915850D01*
X135292475Y-100751897D01*
X135431897Y-100612475D01*
X135595850Y-100502925D01*
X135778019Y-100427468D01*
X135971410Y-100389000D01*
X136168590Y-100389000D01*
X136361981Y-100427468D01*
X136361981Y-100427468D01*
G37*
G36*
X131281981Y-100427468D02*
X131464150Y-100502925D01*
X131628103Y-100612475D01*
X131767525Y-100751897D01*
X131877075Y-100915850D01*
X131952532Y-101098019D01*
X131991000Y-101291410D01*
X131991000Y-101488590D01*
X131952532Y-101681981D01*
X131877075Y-101864150D01*
X131767525Y-102028103D01*
X131628103Y-102167525D01*
X131464150Y-102277075D01*
X131281981Y-102352532D01*
X131088590Y-102391000D01*
X130891410Y-102391000D01*
X130698019Y-102352532D01*
X130515850Y-102277075D01*
X130351897Y-102167525D01*
X130212475Y-102028103D01*
X130102925Y-101864150D01*
X130027468Y-101681981D01*
X129989000Y-101488590D01*
X129989000Y-101291410D01*
X130027468Y-101098019D01*
X130102925Y-100915850D01*
X130212475Y-100751897D01*
X130351897Y-100612475D01*
X130515850Y-100502925D01*
X130698019Y-100427468D01*
X130891410Y-100389000D01*
X131088590Y-100389000D01*
X131281981Y-100427468D01*
X131281981Y-100427468D01*
G37*
G36*
X128741981Y-100427468D02*
X128924150Y-100502925D01*
X129088103Y-100612475D01*
X129227525Y-100751897D01*
X129337075Y-100915850D01*
X129412532Y-101098019D01*
X129451000Y-101291410D01*
X129451000Y-101488590D01*
X129412532Y-101681981D01*
X129337075Y-101864150D01*
X129227525Y-102028103D01*
X129088103Y-102167525D01*
X128924150Y-102277075D01*
X128741981Y-102352532D01*
X128548590Y-102391000D01*
X128351410Y-102391000D01*
X128158019Y-102352532D01*
X127975850Y-102277075D01*
X127811897Y-102167525D01*
X127672475Y-102028103D01*
X127562925Y-101864150D01*
X127487468Y-101681981D01*
X127449000Y-101488590D01*
X127449000Y-101291410D01*
X127487468Y-101098019D01*
X127562925Y-100915850D01*
X127672475Y-100751897D01*
X127811897Y-100612475D01*
X127975850Y-100502925D01*
X128158019Y-100427468D01*
X128351410Y-100389000D01*
X128548590Y-100389000D01*
X128741981Y-100427468D01*
X128741981Y-100427468D01*
G37*
G36*
X133821981Y-100427468D02*
X134004150Y-100502925D01*
X134168103Y-100612475D01*
X134307525Y-100751897D01*
X134417075Y-100915850D01*
X134492532Y-101098019D01*
X134531000Y-101291410D01*
X134531000Y-101488590D01*
X134492532Y-101681981D01*
X134417075Y-101864150D01*
X134307525Y-102028103D01*
X134168103Y-102167525D01*
X134004150Y-102277075D01*
X133821981Y-102352532D01*
X133628590Y-102391000D01*
X133431410Y-102391000D01*
X133238019Y-102352532D01*
X133055850Y-102277075D01*
X132891897Y-102167525D01*
X132752475Y-102028103D01*
X132642925Y-101864150D01*
X132567468Y-101681981D01*
X132529000Y-101488590D01*
X132529000Y-101291410D01*
X132567468Y-101098019D01*
X132642925Y-100915850D01*
X132752475Y-100751897D01*
X132891897Y-100612475D01*
X133055850Y-100502925D01*
X133238019Y-100427468D01*
X133431410Y-100389000D01*
X133628590Y-100389000D01*
X133821981Y-100427468D01*
X133821981Y-100427468D01*
G37*
G36*
X149061981Y-100427468D02*
X149244150Y-100502925D01*
X149408103Y-100612475D01*
X149547525Y-100751897D01*
X149657075Y-100915850D01*
X149732532Y-101098019D01*
X149771000Y-101291410D01*
X149771000Y-101488590D01*
X149732532Y-101681981D01*
X149657075Y-101864150D01*
X149547525Y-102028103D01*
X149408103Y-102167525D01*
X149244150Y-102277075D01*
X149061981Y-102352532D01*
X148868590Y-102391000D01*
X148671410Y-102391000D01*
X148478019Y-102352532D01*
X148295850Y-102277075D01*
X148131897Y-102167525D01*
X147992475Y-102028103D01*
X147882925Y-101864150D01*
X147807468Y-101681981D01*
X147769000Y-101488590D01*
X147769000Y-101291410D01*
X147807468Y-101098019D01*
X147882925Y-100915850D01*
X147992475Y-100751897D01*
X148131897Y-100612475D01*
X148295850Y-100502925D01*
X148478019Y-100427468D01*
X148671410Y-100389000D01*
X148868590Y-100389000D01*
X149061981Y-100427468D01*
X149061981Y-100427468D01*
G37*
G36*
X200733600Y-95752989D02*
X200766649Y-95763014D01*
X200797106Y-95779294D01*
X200823799Y-95801201D01*
X200845706Y-95827894D01*
X200861986Y-95858351D01*
X200872011Y-95891400D01*
X200876000Y-95931904D01*
X200876000Y-97368096D01*
X200872011Y-97408600D01*
X200861986Y-97441649D01*
X200845706Y-97472106D01*
X200823799Y-97498799D01*
X200797106Y-97520706D01*
X200766649Y-97536986D01*
X200733600Y-97547011D01*
X200693096Y-97551000D01*
X199006904Y-97551000D01*
X198966400Y-97547011D01*
X198933351Y-97536986D01*
X198902894Y-97520706D01*
X198876201Y-97498799D01*
X198854294Y-97472106D01*
X198838014Y-97441649D01*
X198827989Y-97408600D01*
X198824000Y-97368096D01*
X198824000Y-95931904D01*
X198827989Y-95891400D01*
X198838014Y-95858351D01*
X198854294Y-95827894D01*
X198876201Y-95801201D01*
X198902894Y-95779294D01*
X198933351Y-95763014D01*
X198966400Y-95752989D01*
X199006904Y-95749000D01*
X200693096Y-95749000D01*
X200733600Y-95752989D01*
X200733600Y-95752989D01*
G37*
G36*
X182451000Y-96051000D02*
X180149000Y-96051000D01*
X180149000Y-93749000D01*
X182451000Y-93749000D01*
X182451000Y-96051000D01*
X182451000Y-96051000D01*
G37*
G36*
X190148228Y-94181703D02*
X190303100Y-94245853D01*
X190442481Y-94338985D01*
X190561015Y-94457519D01*
X190654147Y-94596900D01*
X190718297Y-94751772D01*
X190751000Y-94916184D01*
X190751000Y-95083816D01*
X190718297Y-95248228D01*
X190654147Y-95403100D01*
X190561015Y-95542481D01*
X190442481Y-95661015D01*
X190303100Y-95754147D01*
X190148228Y-95818297D01*
X189983816Y-95851000D01*
X189816184Y-95851000D01*
X189651772Y-95818297D01*
X189496900Y-95754147D01*
X189357519Y-95661015D01*
X189238985Y-95542481D01*
X189145853Y-95403100D01*
X189081703Y-95248228D01*
X189049000Y-95083816D01*
X189049000Y-94916184D01*
X189081703Y-94751772D01*
X189145853Y-94596900D01*
X189238985Y-94457519D01*
X189357519Y-94338985D01*
X189496900Y-94245853D01*
X189651772Y-94181703D01*
X189816184Y-94149000D01*
X189983816Y-94149000D01*
X190148228Y-94181703D01*
X190148228Y-94181703D01*
G37*
G36*
X185148228Y-94181703D02*
X185303100Y-94245853D01*
X185442481Y-94338985D01*
X185561015Y-94457519D01*
X185654147Y-94596900D01*
X185718297Y-94751772D01*
X185751000Y-94916184D01*
X185751000Y-95083816D01*
X185718297Y-95248228D01*
X185654147Y-95403100D01*
X185561015Y-95542481D01*
X185442481Y-95661015D01*
X185303100Y-95754147D01*
X185148228Y-95818297D01*
X184983816Y-95851000D01*
X184816184Y-95851000D01*
X184651772Y-95818297D01*
X184496900Y-95754147D01*
X184357519Y-95661015D01*
X184238985Y-95542481D01*
X184145853Y-95403100D01*
X184081703Y-95248228D01*
X184049000Y-95083816D01*
X184049000Y-94916184D01*
X184081703Y-94751772D01*
X184145853Y-94596900D01*
X184238985Y-94457519D01*
X184357519Y-94338985D01*
X184496900Y-94245853D01*
X184651772Y-94181703D01*
X184816184Y-94149000D01*
X184983816Y-94149000D01*
X185148228Y-94181703D01*
X185148228Y-94181703D01*
G37*
G36*
X200085443Y-93255519D02*
X200151627Y-93262037D01*
X200264853Y-93296384D01*
X200321467Y-93313557D01*
X200460087Y-93387652D01*
X200477991Y-93397222D01*
X200513729Y-93426552D01*
X200615186Y-93509814D01*
X200698448Y-93611271D01*
X200727778Y-93647009D01*
X200727779Y-93647011D01*
X200811443Y-93803533D01*
X200811443Y-93803534D01*
X200862963Y-93973373D01*
X200880359Y-94150000D01*
X200862963Y-94326627D01*
X200828616Y-94439853D01*
X200811443Y-94496467D01*
X200737348Y-94635087D01*
X200727778Y-94652991D01*
X200698448Y-94688729D01*
X200615186Y-94790186D01*
X200513729Y-94873448D01*
X200477991Y-94902778D01*
X200477989Y-94902779D01*
X200321467Y-94986443D01*
X200264853Y-95003616D01*
X200151627Y-95037963D01*
X200085443Y-95044481D01*
X200019260Y-95051000D01*
X199680740Y-95051000D01*
X199614557Y-95044481D01*
X199548373Y-95037963D01*
X199435147Y-95003616D01*
X199378533Y-94986443D01*
X199222011Y-94902779D01*
X199222009Y-94902778D01*
X199186271Y-94873448D01*
X199084814Y-94790186D01*
X199001552Y-94688729D01*
X198972222Y-94652991D01*
X198962652Y-94635087D01*
X198888557Y-94496467D01*
X198871384Y-94439853D01*
X198837037Y-94326627D01*
X198819641Y-94150000D01*
X198837037Y-93973373D01*
X198888557Y-93803534D01*
X198888557Y-93803533D01*
X198972221Y-93647011D01*
X198972222Y-93647009D01*
X199001552Y-93611271D01*
X199084814Y-93509814D01*
X199186271Y-93426552D01*
X199222009Y-93397222D01*
X199239913Y-93387652D01*
X199378533Y-93313557D01*
X199435147Y-93296384D01*
X199548373Y-93262037D01*
X199614557Y-93255519D01*
X199680740Y-93249000D01*
X200019260Y-93249000D01*
X200085443Y-93255519D01*
X200085443Y-93255519D01*
G37*
G36*
X175366821Y-92301313D02*
X175366824Y-92301314D01*
X175366825Y-92301314D01*
X175527239Y-92349975D01*
X175527241Y-92349976D01*
X175527244Y-92349977D01*
X175675078Y-92428995D01*
X175804659Y-92535341D01*
X175911005Y-92664922D01*
X175990023Y-92812756D01*
X175990024Y-92812759D01*
X175990025Y-92812761D01*
X176038686Y-92973175D01*
X176038687Y-92973179D01*
X176055117Y-93140000D01*
X176038687Y-93306821D01*
X176038686Y-93306824D01*
X176038686Y-93306825D01*
X176011265Y-93397221D01*
X175990023Y-93467244D01*
X175911005Y-93615078D01*
X175804659Y-93744659D01*
X175675078Y-93851005D01*
X175527244Y-93930023D01*
X175527241Y-93930024D01*
X175527239Y-93930025D01*
X175366825Y-93978686D01*
X175366824Y-93978686D01*
X175366821Y-93978687D01*
X175241804Y-93991000D01*
X175158196Y-93991000D01*
X175033179Y-93978687D01*
X175033176Y-93978686D01*
X175033175Y-93978686D01*
X174872761Y-93930025D01*
X174872759Y-93930024D01*
X174872756Y-93930023D01*
X174724922Y-93851005D01*
X174595341Y-93744659D01*
X174488995Y-93615078D01*
X174409977Y-93467244D01*
X174388736Y-93397221D01*
X174361314Y-93306825D01*
X174361314Y-93306824D01*
X174361313Y-93306821D01*
X174344883Y-93140000D01*
X174361313Y-92973179D01*
X174361314Y-92973175D01*
X174409975Y-92812761D01*
X174409976Y-92812759D01*
X174409977Y-92812756D01*
X174488995Y-92664922D01*
X174595341Y-92535341D01*
X174724922Y-92428995D01*
X174872756Y-92349977D01*
X174872759Y-92349976D01*
X174872761Y-92349975D01*
X175033175Y-92301314D01*
X175033176Y-92301314D01*
X175033179Y-92301313D01*
X175158196Y-92289000D01*
X175241804Y-92289000D01*
X175366821Y-92301313D01*
X175366821Y-92301313D01*
G37*
G36*
X178648228Y-92281703D02*
X178803100Y-92345853D01*
X178942481Y-92438985D01*
X179061015Y-92557519D01*
X179154147Y-92696900D01*
X179218297Y-92851772D01*
X179251000Y-93016184D01*
X179251000Y-93183816D01*
X179218297Y-93348228D01*
X179154147Y-93503100D01*
X179061015Y-93642481D01*
X178942481Y-93761015D01*
X178803100Y-93854147D01*
X178648228Y-93918297D01*
X178483816Y-93951000D01*
X178316184Y-93951000D01*
X178151772Y-93918297D01*
X177996900Y-93854147D01*
X177857519Y-93761015D01*
X177738985Y-93642481D01*
X177645853Y-93503100D01*
X177581703Y-93348228D01*
X177549000Y-93183816D01*
X177549000Y-93016184D01*
X177581703Y-92851772D01*
X177645853Y-92696900D01*
X177738985Y-92557519D01*
X177857519Y-92438985D01*
X177996900Y-92345853D01*
X178151772Y-92281703D01*
X178316184Y-92249000D01*
X178483816Y-92249000D01*
X178648228Y-92281703D01*
X178648228Y-92281703D01*
G37*
G36*
X200085442Y-90755518D02*
X200151627Y-90762037D01*
X200264853Y-90796384D01*
X200321467Y-90813557D01*
X200460087Y-90887652D01*
X200477991Y-90897222D01*
X200513729Y-90926552D01*
X200615186Y-91009814D01*
X200698448Y-91111271D01*
X200727778Y-91147009D01*
X200727779Y-91147011D01*
X200811443Y-91303533D01*
X200828616Y-91360147D01*
X200862963Y-91473373D01*
X200880359Y-91650000D01*
X200862963Y-91826627D01*
X200828616Y-91939853D01*
X200811443Y-91996467D01*
X200810589Y-91998064D01*
X200727778Y-92152991D01*
X200726829Y-92154147D01*
X200615186Y-92290186D01*
X200542329Y-92349977D01*
X200477991Y-92402778D01*
X200477989Y-92402779D01*
X200321467Y-92486443D01*
X200264853Y-92503616D01*
X200151627Y-92537963D01*
X200085443Y-92544481D01*
X200019260Y-92551000D01*
X199680740Y-92551000D01*
X199614557Y-92544481D01*
X199548373Y-92537963D01*
X199435147Y-92503616D01*
X199378533Y-92486443D01*
X199222011Y-92402779D01*
X199222009Y-92402778D01*
X199157671Y-92349977D01*
X199084814Y-92290186D01*
X198973171Y-92154147D01*
X198972222Y-92152991D01*
X198889411Y-91998064D01*
X198888557Y-91996467D01*
X198871384Y-91939853D01*
X198837037Y-91826627D01*
X198819641Y-91650000D01*
X198837037Y-91473373D01*
X198871384Y-91360147D01*
X198888557Y-91303533D01*
X198972221Y-91147011D01*
X198972222Y-91147009D01*
X199001552Y-91111271D01*
X199084814Y-91009814D01*
X199186271Y-90926552D01*
X199222009Y-90897222D01*
X199239913Y-90887652D01*
X199378533Y-90813557D01*
X199435147Y-90796384D01*
X199548373Y-90762037D01*
X199614557Y-90755519D01*
X199680740Y-90749000D01*
X200019260Y-90749000D01*
X200085442Y-90755518D01*
X200085442Y-90755518D01*
G37*
G36*
X186040406Y-90385112D02*
X186040409Y-90385113D01*
X186040410Y-90385113D01*
X186219674Y-90439492D01*
X186219676Y-90439493D01*
X186384886Y-90527800D01*
X186529693Y-90646640D01*
X186648533Y-90791447D01*
X186648534Y-90791449D01*
X186736841Y-90956659D01*
X186791220Y-91135923D01*
X186791221Y-91135927D01*
X186809582Y-91322352D01*
X186791221Y-91508777D01*
X186791220Y-91508780D01*
X186791220Y-91508781D01*
X186747124Y-91654147D01*
X186736840Y-91688047D01*
X186648533Y-91853257D01*
X186529693Y-91998064D01*
X186384886Y-92116904D01*
X186219676Y-92205211D01*
X186219674Y-92205212D01*
X186040410Y-92259591D01*
X186040409Y-92259591D01*
X186040406Y-92259592D01*
X185900699Y-92273352D01*
X185807263Y-92273352D01*
X185667556Y-92259592D01*
X185667553Y-92259591D01*
X185667552Y-92259591D01*
X185488288Y-92205212D01*
X185488286Y-92205211D01*
X185323076Y-92116904D01*
X185178269Y-91998064D01*
X185059429Y-91853257D01*
X184971122Y-91688047D01*
X184960839Y-91654147D01*
X184916742Y-91508781D01*
X184916742Y-91508780D01*
X184916741Y-91508777D01*
X184898380Y-91322352D01*
X184916741Y-91135927D01*
X184916742Y-91135923D01*
X184971121Y-90956659D01*
X185059428Y-90791449D01*
X185059429Y-90791447D01*
X185178269Y-90646640D01*
X185323076Y-90527800D01*
X185488286Y-90439493D01*
X185488288Y-90439492D01*
X185667552Y-90385113D01*
X185667553Y-90385113D01*
X185667556Y-90385112D01*
X185807263Y-90371352D01*
X185900699Y-90371352D01*
X186040406Y-90385112D01*
X186040406Y-90385112D01*
G37*
G36*
X189748228Y-90581703D02*
X189903100Y-90645853D01*
X190042481Y-90738985D01*
X190161015Y-90857519D01*
X190254147Y-90996900D01*
X190318297Y-91151772D01*
X190351000Y-91316184D01*
X190351000Y-91483816D01*
X190318297Y-91648228D01*
X190254147Y-91803100D01*
X190161015Y-91942481D01*
X190042481Y-92061015D01*
X189903100Y-92154147D01*
X189748228Y-92218297D01*
X189583816Y-92251000D01*
X189416184Y-92251000D01*
X189251772Y-92218297D01*
X189096900Y-92154147D01*
X188957519Y-92061015D01*
X188838985Y-91942481D01*
X188745853Y-91803100D01*
X188681703Y-91648228D01*
X188649000Y-91483816D01*
X188649000Y-91316184D01*
X188681703Y-91151772D01*
X188745853Y-90996900D01*
X188838985Y-90857519D01*
X188957519Y-90738985D01*
X189096900Y-90645853D01*
X189251772Y-90581703D01*
X189416184Y-90549000D01*
X189583816Y-90549000D01*
X189748228Y-90581703D01*
X189748228Y-90581703D01*
G37*
G36*
X175448228Y-90081703D02*
X175603100Y-90145853D01*
X175742481Y-90238985D01*
X175861015Y-90357519D01*
X175954147Y-90496900D01*
X176018297Y-90651772D01*
X176051000Y-90816184D01*
X176051000Y-90983816D01*
X176018297Y-91148228D01*
X175954147Y-91303100D01*
X175861015Y-91442481D01*
X175742481Y-91561015D01*
X175603100Y-91654147D01*
X175448228Y-91718297D01*
X175283816Y-91751000D01*
X175116184Y-91751000D01*
X174951772Y-91718297D01*
X174796900Y-91654147D01*
X174657519Y-91561015D01*
X174538985Y-91442481D01*
X174445853Y-91303100D01*
X174381703Y-91148228D01*
X174349000Y-90983816D01*
X174349000Y-90816184D01*
X174381703Y-90651772D01*
X174445853Y-90496900D01*
X174538985Y-90357519D01*
X174657519Y-90238985D01*
X174796900Y-90145853D01*
X174951772Y-90081703D01*
X175116184Y-90049000D01*
X175283816Y-90049000D01*
X175448228Y-90081703D01*
X175448228Y-90081703D01*
G37*
G36*
X180051000Y-90251000D02*
X178349000Y-90251000D01*
X178349000Y-88549000D01*
X180051000Y-88549000D01*
X180051000Y-90251000D01*
X180051000Y-90251000D01*
G37*
G36*
X181906821Y-88561313D02*
X181906824Y-88561314D01*
X181906825Y-88561314D01*
X182067239Y-88609975D01*
X182067241Y-88609976D01*
X182067244Y-88609977D01*
X182215078Y-88688995D01*
X182344659Y-88795341D01*
X182451005Y-88924922D01*
X182530023Y-89072756D01*
X182578687Y-89233179D01*
X182595117Y-89400000D01*
X182578687Y-89566821D01*
X182530023Y-89727244D01*
X182451005Y-89875078D01*
X182344659Y-90004659D01*
X182215078Y-90111005D01*
X182067244Y-90190023D01*
X182067241Y-90190024D01*
X182067239Y-90190025D01*
X181906825Y-90238686D01*
X181906824Y-90238686D01*
X181906821Y-90238687D01*
X181781804Y-90251000D01*
X181698196Y-90251000D01*
X181573179Y-90238687D01*
X181573176Y-90238686D01*
X181573175Y-90238686D01*
X181412761Y-90190025D01*
X181412759Y-90190024D01*
X181412756Y-90190023D01*
X181264922Y-90111005D01*
X181135341Y-90004659D01*
X181028995Y-89875078D01*
X180949977Y-89727244D01*
X180901313Y-89566821D01*
X180884883Y-89400000D01*
X180901313Y-89233179D01*
X180949977Y-89072756D01*
X181028995Y-88924922D01*
X181135341Y-88795341D01*
X181264922Y-88688995D01*
X181412756Y-88609977D01*
X181412759Y-88609976D01*
X181412761Y-88609975D01*
X181573175Y-88561314D01*
X181573176Y-88561314D01*
X181573179Y-88561313D01*
X181698196Y-88549000D01*
X181781804Y-88549000D01*
X181906821Y-88561313D01*
X181906821Y-88561313D01*
G37*
G36*
X200085443Y-88255519D02*
X200151627Y-88262037D01*
X200264853Y-88296384D01*
X200321467Y-88313557D01*
X200460087Y-88387652D01*
X200477991Y-88397222D01*
X200513729Y-88426552D01*
X200615186Y-88509814D01*
X200697385Y-88609975D01*
X200727778Y-88647009D01*
X200727779Y-88647011D01*
X200811443Y-88803533D01*
X200811443Y-88803534D01*
X200862963Y-88973373D01*
X200880359Y-89150000D01*
X200862963Y-89326627D01*
X200828616Y-89439853D01*
X200811443Y-89496467D01*
X200773837Y-89566821D01*
X200727778Y-89652991D01*
X200698448Y-89688729D01*
X200615186Y-89790186D01*
X200513729Y-89873448D01*
X200477991Y-89902778D01*
X200477989Y-89902779D01*
X200321467Y-89986443D01*
X200264853Y-90003616D01*
X200151627Y-90037963D01*
X200085443Y-90044481D01*
X200019260Y-90051000D01*
X199680740Y-90051000D01*
X199614558Y-90044482D01*
X199548373Y-90037963D01*
X199435147Y-90003616D01*
X199378533Y-89986443D01*
X199222011Y-89902779D01*
X199222009Y-89902778D01*
X199186271Y-89873448D01*
X199084814Y-89790186D01*
X199001552Y-89688729D01*
X198972222Y-89652991D01*
X198926163Y-89566821D01*
X198888557Y-89496467D01*
X198871384Y-89439853D01*
X198837037Y-89326627D01*
X198819641Y-89150000D01*
X198837037Y-88973373D01*
X198888557Y-88803534D01*
X198888557Y-88803533D01*
X198972221Y-88647011D01*
X198972222Y-88647009D01*
X199002615Y-88609975D01*
X199084814Y-88509814D01*
X199186271Y-88426552D01*
X199222009Y-88397222D01*
X199239913Y-88387652D01*
X199378533Y-88313557D01*
X199435147Y-88296384D01*
X199548373Y-88262037D01*
X199614557Y-88255519D01*
X199680740Y-88249000D01*
X200019260Y-88249000D01*
X200085443Y-88255519D01*
X200085443Y-88255519D01*
G37*
G36*
X149061981Y-82647468D02*
X149244150Y-82722925D01*
X149408103Y-82832475D01*
X149547525Y-82971897D01*
X149657075Y-83135850D01*
X149732532Y-83318019D01*
X149771000Y-83511410D01*
X149771000Y-83708590D01*
X149732532Y-83901981D01*
X149657075Y-84084150D01*
X149547525Y-84248103D01*
X149408103Y-84387525D01*
X149244150Y-84497075D01*
X149061981Y-84572532D01*
X148868590Y-84611000D01*
X148671410Y-84611000D01*
X148478019Y-84572532D01*
X148295850Y-84497075D01*
X148131897Y-84387525D01*
X147992475Y-84248103D01*
X147882925Y-84084150D01*
X147807468Y-83901981D01*
X147769000Y-83708590D01*
X147769000Y-83511410D01*
X147807468Y-83318019D01*
X147882925Y-83135850D01*
X147992475Y-82971897D01*
X148131897Y-82832475D01*
X148295850Y-82722925D01*
X148478019Y-82647468D01*
X148671410Y-82609000D01*
X148868590Y-82609000D01*
X149061981Y-82647468D01*
X149061981Y-82647468D01*
G37*
G36*
X126201981Y-82647468D02*
X126384150Y-82722925D01*
X126548103Y-82832475D01*
X126687525Y-82971897D01*
X126797075Y-83135850D01*
X126872532Y-83318019D01*
X126911000Y-83511410D01*
X126911000Y-83708590D01*
X126872532Y-83901981D01*
X126797075Y-84084150D01*
X126687525Y-84248103D01*
X126548103Y-84387525D01*
X126384150Y-84497075D01*
X126201981Y-84572532D01*
X126008590Y-84611000D01*
X125811410Y-84611000D01*
X125618019Y-84572532D01*
X125435850Y-84497075D01*
X125271897Y-84387525D01*
X125132475Y-84248103D01*
X125022925Y-84084150D01*
X124947468Y-83901981D01*
X124909000Y-83708590D01*
X124909000Y-83511410D01*
X124947468Y-83318019D01*
X125022925Y-83135850D01*
X125132475Y-82971897D01*
X125271897Y-82832475D01*
X125435850Y-82722925D01*
X125618019Y-82647468D01*
X125811410Y-82609000D01*
X126008590Y-82609000D01*
X126201981Y-82647468D01*
X126201981Y-82647468D01*
G37*
G36*
X133821981Y-82647468D02*
X134004150Y-82722925D01*
X134168103Y-82832475D01*
X134307525Y-82971897D01*
X134417075Y-83135850D01*
X134492532Y-83318019D01*
X134531000Y-83511410D01*
X134531000Y-83708590D01*
X134492532Y-83901981D01*
X134417075Y-84084150D01*
X134307525Y-84248103D01*
X134168103Y-84387525D01*
X134004150Y-84497075D01*
X133821981Y-84572532D01*
X133628590Y-84611000D01*
X133431410Y-84611000D01*
X133238019Y-84572532D01*
X133055850Y-84497075D01*
X132891897Y-84387525D01*
X132752475Y-84248103D01*
X132642925Y-84084150D01*
X132567468Y-83901981D01*
X132529000Y-83708590D01*
X132529000Y-83511410D01*
X132567468Y-83318019D01*
X132642925Y-83135850D01*
X132752475Y-82971897D01*
X132891897Y-82832475D01*
X133055850Y-82722925D01*
X133238019Y-82647468D01*
X133431410Y-82609000D01*
X133628590Y-82609000D01*
X133821981Y-82647468D01*
X133821981Y-82647468D01*
G37*
G36*
X136361981Y-82647468D02*
X136544150Y-82722925D01*
X136708103Y-82832475D01*
X136847525Y-82971897D01*
X136957075Y-83135850D01*
X137032532Y-83318019D01*
X137071000Y-83511410D01*
X137071000Y-83708590D01*
X137032532Y-83901981D01*
X136957075Y-84084150D01*
X136847525Y-84248103D01*
X136708103Y-84387525D01*
X136544150Y-84497075D01*
X136361981Y-84572532D01*
X136168590Y-84611000D01*
X135971410Y-84611000D01*
X135778019Y-84572532D01*
X135595850Y-84497075D01*
X135431897Y-84387525D01*
X135292475Y-84248103D01*
X135182925Y-84084150D01*
X135107468Y-83901981D01*
X135069000Y-83708590D01*
X135069000Y-83511410D01*
X135107468Y-83318019D01*
X135182925Y-83135850D01*
X135292475Y-82971897D01*
X135431897Y-82832475D01*
X135595850Y-82722925D01*
X135778019Y-82647468D01*
X135971410Y-82609000D01*
X136168590Y-82609000D01*
X136361981Y-82647468D01*
X136361981Y-82647468D01*
G37*
G36*
X138901981Y-82647468D02*
X139084150Y-82722925D01*
X139248103Y-82832475D01*
X139387525Y-82971897D01*
X139497075Y-83135850D01*
X139572532Y-83318019D01*
X139611000Y-83511410D01*
X139611000Y-83708590D01*
X139572532Y-83901981D01*
X139497075Y-84084150D01*
X139387525Y-84248103D01*
X139248103Y-84387525D01*
X139084150Y-84497075D01*
X138901981Y-84572532D01*
X138708590Y-84611000D01*
X138511410Y-84611000D01*
X138318019Y-84572532D01*
X138135850Y-84497075D01*
X137971897Y-84387525D01*
X137832475Y-84248103D01*
X137722925Y-84084150D01*
X137647468Y-83901981D01*
X137609000Y-83708590D01*
X137609000Y-83511410D01*
X137647468Y-83318019D01*
X137722925Y-83135850D01*
X137832475Y-82971897D01*
X137971897Y-82832475D01*
X138135850Y-82722925D01*
X138318019Y-82647468D01*
X138511410Y-82609000D01*
X138708590Y-82609000D01*
X138901981Y-82647468D01*
X138901981Y-82647468D01*
G37*
G36*
X141441981Y-82647468D02*
X141624150Y-82722925D01*
X141788103Y-82832475D01*
X141927525Y-82971897D01*
X142037075Y-83135850D01*
X142112532Y-83318019D01*
X142151000Y-83511410D01*
X142151000Y-83708590D01*
X142112532Y-83901981D01*
X142037075Y-84084150D01*
X141927525Y-84248103D01*
X141788103Y-84387525D01*
X141624150Y-84497075D01*
X141441981Y-84572532D01*
X141248590Y-84611000D01*
X141051410Y-84611000D01*
X140858019Y-84572532D01*
X140675850Y-84497075D01*
X140511897Y-84387525D01*
X140372475Y-84248103D01*
X140262925Y-84084150D01*
X140187468Y-83901981D01*
X140149000Y-83708590D01*
X140149000Y-83511410D01*
X140187468Y-83318019D01*
X140262925Y-83135850D01*
X140372475Y-82971897D01*
X140511897Y-82832475D01*
X140675850Y-82722925D01*
X140858019Y-82647468D01*
X141051410Y-82609000D01*
X141248590Y-82609000D01*
X141441981Y-82647468D01*
X141441981Y-82647468D01*
G37*
G36*
X143981981Y-82647468D02*
X144164150Y-82722925D01*
X144328103Y-82832475D01*
X144467525Y-82971897D01*
X144577075Y-83135850D01*
X144652532Y-83318019D01*
X144691000Y-83511410D01*
X144691000Y-83708590D01*
X144652532Y-83901981D01*
X144577075Y-84084150D01*
X144467525Y-84248103D01*
X144328103Y-84387525D01*
X144164150Y-84497075D01*
X143981981Y-84572532D01*
X143788590Y-84611000D01*
X143591410Y-84611000D01*
X143398019Y-84572532D01*
X143215850Y-84497075D01*
X143051897Y-84387525D01*
X142912475Y-84248103D01*
X142802925Y-84084150D01*
X142727468Y-83901981D01*
X142689000Y-83708590D01*
X142689000Y-83511410D01*
X142727468Y-83318019D01*
X142802925Y-83135850D01*
X142912475Y-82971897D01*
X143051897Y-82832475D01*
X143215850Y-82722925D01*
X143398019Y-82647468D01*
X143591410Y-82609000D01*
X143788590Y-82609000D01*
X143981981Y-82647468D01*
X143981981Y-82647468D01*
G37*
G36*
X146521981Y-82647468D02*
X146704150Y-82722925D01*
X146868103Y-82832475D01*
X147007525Y-82971897D01*
X147117075Y-83135850D01*
X147192532Y-83318019D01*
X147231000Y-83511410D01*
X147231000Y-83708590D01*
X147192532Y-83901981D01*
X147117075Y-84084150D01*
X147007525Y-84248103D01*
X146868103Y-84387525D01*
X146704150Y-84497075D01*
X146521981Y-84572532D01*
X146328590Y-84611000D01*
X146131410Y-84611000D01*
X145938019Y-84572532D01*
X145755850Y-84497075D01*
X145591897Y-84387525D01*
X145452475Y-84248103D01*
X145342925Y-84084150D01*
X145267468Y-83901981D01*
X145229000Y-83708590D01*
X145229000Y-83511410D01*
X145267468Y-83318019D01*
X145342925Y-83135850D01*
X145452475Y-82971897D01*
X145591897Y-82832475D01*
X145755850Y-82722925D01*
X145938019Y-82647468D01*
X146131410Y-82609000D01*
X146328590Y-82609000D01*
X146521981Y-82647468D01*
X146521981Y-82647468D01*
G37*
G36*
X151601981Y-82647468D02*
X151784150Y-82722925D01*
X151948103Y-82832475D01*
X152087525Y-82971897D01*
X152197075Y-83135850D01*
X152272532Y-83318019D01*
X152311000Y-83511410D01*
X152311000Y-83708590D01*
X152272532Y-83901981D01*
X152197075Y-84084150D01*
X152087525Y-84248103D01*
X151948103Y-84387525D01*
X151784150Y-84497075D01*
X151601981Y-84572532D01*
X151408590Y-84611000D01*
X151211410Y-84611000D01*
X151018019Y-84572532D01*
X150835850Y-84497075D01*
X150671897Y-84387525D01*
X150532475Y-84248103D01*
X150422925Y-84084150D01*
X150347468Y-83901981D01*
X150309000Y-83708590D01*
X150309000Y-83511410D01*
X150347468Y-83318019D01*
X150422925Y-83135850D01*
X150532475Y-82971897D01*
X150671897Y-82832475D01*
X150835850Y-82722925D01*
X151018019Y-82647468D01*
X151211410Y-82609000D01*
X151408590Y-82609000D01*
X151601981Y-82647468D01*
X151601981Y-82647468D01*
G37*
G36*
X156681981Y-82647468D02*
X156864150Y-82722925D01*
X157028103Y-82832475D01*
X157167525Y-82971897D01*
X157277075Y-83135850D01*
X157352532Y-83318019D01*
X157391000Y-83511410D01*
X157391000Y-83708590D01*
X157352532Y-83901981D01*
X157277075Y-84084150D01*
X157167525Y-84248103D01*
X157028103Y-84387525D01*
X156864150Y-84497075D01*
X156681981Y-84572532D01*
X156488590Y-84611000D01*
X156291410Y-84611000D01*
X156098019Y-84572532D01*
X155915850Y-84497075D01*
X155751897Y-84387525D01*
X155612475Y-84248103D01*
X155502925Y-84084150D01*
X155427468Y-83901981D01*
X155389000Y-83708590D01*
X155389000Y-83511410D01*
X155427468Y-83318019D01*
X155502925Y-83135850D01*
X155612475Y-82971897D01*
X155751897Y-82832475D01*
X155915850Y-82722925D01*
X156098019Y-82647468D01*
X156291410Y-82609000D01*
X156488590Y-82609000D01*
X156681981Y-82647468D01*
X156681981Y-82647468D01*
G37*
G36*
X159221981Y-82647468D02*
X159404150Y-82722925D01*
X159568103Y-82832475D01*
X159707525Y-82971897D01*
X159817075Y-83135850D01*
X159892532Y-83318019D01*
X159931000Y-83511410D01*
X159931000Y-83708590D01*
X159892532Y-83901981D01*
X159817075Y-84084150D01*
X159707525Y-84248103D01*
X159568103Y-84387525D01*
X159404150Y-84497075D01*
X159221981Y-84572532D01*
X159028590Y-84611000D01*
X158831410Y-84611000D01*
X158638019Y-84572532D01*
X158455850Y-84497075D01*
X158291897Y-84387525D01*
X158152475Y-84248103D01*
X158042925Y-84084150D01*
X157967468Y-83901981D01*
X157929000Y-83708590D01*
X157929000Y-83511410D01*
X157967468Y-83318019D01*
X158042925Y-83135850D01*
X158152475Y-82971897D01*
X158291897Y-82832475D01*
X158455850Y-82722925D01*
X158638019Y-82647468D01*
X158831410Y-82609000D01*
X159028590Y-82609000D01*
X159221981Y-82647468D01*
X159221981Y-82647468D01*
G37*
G36*
X164301981Y-82647468D02*
X164484150Y-82722925D01*
X164648103Y-82832475D01*
X164787525Y-82971897D01*
X164897075Y-83135850D01*
X164972532Y-83318019D01*
X165011000Y-83511410D01*
X165011000Y-83708590D01*
X164972532Y-83901981D01*
X164897075Y-84084150D01*
X164787525Y-84248103D01*
X164648103Y-84387525D01*
X164484150Y-84497075D01*
X164301981Y-84572532D01*
X164108590Y-84611000D01*
X163911410Y-84611000D01*
X163718019Y-84572532D01*
X163535850Y-84497075D01*
X163371897Y-84387525D01*
X163232475Y-84248103D01*
X163122925Y-84084150D01*
X163047468Y-83901981D01*
X163009000Y-83708590D01*
X163009000Y-83511410D01*
X163047468Y-83318019D01*
X163122925Y-83135850D01*
X163232475Y-82971897D01*
X163371897Y-82832475D01*
X163535850Y-82722925D01*
X163718019Y-82647468D01*
X163911410Y-82609000D01*
X164108590Y-82609000D01*
X164301981Y-82647468D01*
X164301981Y-82647468D01*
G37*
G36*
X166841981Y-82647468D02*
X167024150Y-82722925D01*
X167188103Y-82832475D01*
X167327525Y-82971897D01*
X167437075Y-83135850D01*
X167512532Y-83318019D01*
X167551000Y-83511410D01*
X167551000Y-83708590D01*
X167512532Y-83901981D01*
X167437075Y-84084150D01*
X167327525Y-84248103D01*
X167188103Y-84387525D01*
X167024150Y-84497075D01*
X166841981Y-84572532D01*
X166648590Y-84611000D01*
X166451410Y-84611000D01*
X166258019Y-84572532D01*
X166075850Y-84497075D01*
X165911897Y-84387525D01*
X165772475Y-84248103D01*
X165662925Y-84084150D01*
X165587468Y-83901981D01*
X165549000Y-83708590D01*
X165549000Y-83511410D01*
X165587468Y-83318019D01*
X165662925Y-83135850D01*
X165772475Y-82971897D01*
X165911897Y-82832475D01*
X166075850Y-82722925D01*
X166258019Y-82647468D01*
X166451410Y-82609000D01*
X166648590Y-82609000D01*
X166841981Y-82647468D01*
X166841981Y-82647468D01*
G37*
G36*
X169381981Y-82647468D02*
X169564150Y-82722925D01*
X169728103Y-82832475D01*
X169867525Y-82971897D01*
X169977075Y-83135850D01*
X170052532Y-83318019D01*
X170091000Y-83511410D01*
X170091000Y-83708590D01*
X170052532Y-83901981D01*
X169977075Y-84084150D01*
X169867525Y-84248103D01*
X169728103Y-84387525D01*
X169564150Y-84497075D01*
X169381981Y-84572532D01*
X169188590Y-84611000D01*
X168991410Y-84611000D01*
X168798019Y-84572532D01*
X168615850Y-84497075D01*
X168451897Y-84387525D01*
X168312475Y-84248103D01*
X168202925Y-84084150D01*
X168127468Y-83901981D01*
X168089000Y-83708590D01*
X168089000Y-83511410D01*
X168127468Y-83318019D01*
X168202925Y-83135850D01*
X168312475Y-82971897D01*
X168451897Y-82832475D01*
X168615850Y-82722925D01*
X168798019Y-82647468D01*
X168991410Y-82609000D01*
X169188590Y-82609000D01*
X169381981Y-82647468D01*
X169381981Y-82647468D01*
G37*
G36*
X128741981Y-82647468D02*
X128924150Y-82722925D01*
X129088103Y-82832475D01*
X129227525Y-82971897D01*
X129337075Y-83135850D01*
X129412532Y-83318019D01*
X129451000Y-83511410D01*
X129451000Y-83708590D01*
X129412532Y-83901981D01*
X129337075Y-84084150D01*
X129227525Y-84248103D01*
X129088103Y-84387525D01*
X128924150Y-84497075D01*
X128741981Y-84572532D01*
X128548590Y-84611000D01*
X128351410Y-84611000D01*
X128158019Y-84572532D01*
X127975850Y-84497075D01*
X127811897Y-84387525D01*
X127672475Y-84248103D01*
X127562925Y-84084150D01*
X127487468Y-83901981D01*
X127449000Y-83708590D01*
X127449000Y-83511410D01*
X127487468Y-83318019D01*
X127562925Y-83135850D01*
X127672475Y-82971897D01*
X127811897Y-82832475D01*
X127975850Y-82722925D01*
X128158019Y-82647468D01*
X128351410Y-82609000D01*
X128548590Y-82609000D01*
X128741981Y-82647468D01*
X128741981Y-82647468D01*
G37*
G36*
X131281981Y-82647468D02*
X131464150Y-82722925D01*
X131628103Y-82832475D01*
X131767525Y-82971897D01*
X131877075Y-83135850D01*
X131952532Y-83318019D01*
X131991000Y-83511410D01*
X131991000Y-83708590D01*
X131952532Y-83901981D01*
X131877075Y-84084150D01*
X131767525Y-84248103D01*
X131628103Y-84387525D01*
X131464150Y-84497075D01*
X131281981Y-84572532D01*
X131088590Y-84611000D01*
X130891410Y-84611000D01*
X130698019Y-84572532D01*
X130515850Y-84497075D01*
X130351897Y-84387525D01*
X130212475Y-84248103D01*
X130102925Y-84084150D01*
X130027468Y-83901981D01*
X129989000Y-83708590D01*
X129989000Y-83511410D01*
X130027468Y-83318019D01*
X130102925Y-83135850D01*
X130212475Y-82971897D01*
X130351897Y-82832475D01*
X130515850Y-82722925D01*
X130698019Y-82647468D01*
X130891410Y-82609000D01*
X131088590Y-82609000D01*
X131281981Y-82647468D01*
X131281981Y-82647468D01*
G37*
G36*
X161761981Y-82647468D02*
X161944150Y-82722925D01*
X162108103Y-82832475D01*
X162247525Y-82971897D01*
X162357075Y-83135850D01*
X162432532Y-83318019D01*
X162471000Y-83511410D01*
X162471000Y-83708590D01*
X162432532Y-83901981D01*
X162357075Y-84084150D01*
X162247525Y-84248103D01*
X162108103Y-84387525D01*
X161944150Y-84497075D01*
X161761981Y-84572532D01*
X161568590Y-84611000D01*
X161371410Y-84611000D01*
X161178019Y-84572532D01*
X160995850Y-84497075D01*
X160831897Y-84387525D01*
X160692475Y-84248103D01*
X160582925Y-84084150D01*
X160507468Y-83901981D01*
X160469000Y-83708590D01*
X160469000Y-83511410D01*
X160507468Y-83318019D01*
X160582925Y-83135850D01*
X160692475Y-82971897D01*
X160831897Y-82832475D01*
X160995850Y-82722925D01*
X161178019Y-82647468D01*
X161371410Y-82609000D01*
X161568590Y-82609000D01*
X161761981Y-82647468D01*
X161761981Y-82647468D01*
G37*
G36*
X154141981Y-82647468D02*
X154324150Y-82722925D01*
X154488103Y-82832475D01*
X154627525Y-82971897D01*
X154737075Y-83135850D01*
X154812532Y-83318019D01*
X154851000Y-83511410D01*
X154851000Y-83708590D01*
X154812532Y-83901981D01*
X154737075Y-84084150D01*
X154627525Y-84248103D01*
X154488103Y-84387525D01*
X154324150Y-84497075D01*
X154141981Y-84572532D01*
X153948590Y-84611000D01*
X153751410Y-84611000D01*
X153558019Y-84572532D01*
X153375850Y-84497075D01*
X153211897Y-84387525D01*
X153072475Y-84248103D01*
X152962925Y-84084150D01*
X152887468Y-83901981D01*
X152849000Y-83708590D01*
X152849000Y-83511410D01*
X152887468Y-83318019D01*
X152962925Y-83135850D01*
X153072475Y-82971897D01*
X153211897Y-82832475D01*
X153375850Y-82722925D01*
X153558019Y-82647468D01*
X153751410Y-82609000D01*
X153948590Y-82609000D01*
X154141981Y-82647468D01*
X154141981Y-82647468D01*
G37*
G36*
X179366821Y-80941313D02*
X179366824Y-80941314D01*
X179366825Y-80941314D01*
X179527239Y-80989975D01*
X179527241Y-80989976D01*
X179527244Y-80989977D01*
X179675078Y-81068995D01*
X179804659Y-81175341D01*
X179911005Y-81304922D01*
X179990023Y-81452756D01*
X179990024Y-81452759D01*
X179990025Y-81452761D01*
X180024751Y-81567239D01*
X180038687Y-81613179D01*
X180055117Y-81780000D01*
X180038687Y-81946821D01*
X180038686Y-81946824D01*
X180038686Y-81946825D01*
X180013448Y-82030025D01*
X179990023Y-82107244D01*
X179911005Y-82255078D01*
X179804659Y-82384659D01*
X179675078Y-82491005D01*
X179527244Y-82570023D01*
X179527241Y-82570024D01*
X179527239Y-82570025D01*
X179366825Y-82618686D01*
X179366824Y-82618686D01*
X179366821Y-82618687D01*
X179241804Y-82631000D01*
X179158196Y-82631000D01*
X179033179Y-82618687D01*
X179033176Y-82618686D01*
X179033175Y-82618686D01*
X178872761Y-82570025D01*
X178872759Y-82570024D01*
X178872756Y-82570023D01*
X178724922Y-82491005D01*
X178595341Y-82384659D01*
X178488995Y-82255078D01*
X178409977Y-82107244D01*
X178386553Y-82030025D01*
X178361314Y-81946825D01*
X178361314Y-81946824D01*
X178361313Y-81946821D01*
X178344883Y-81780000D01*
X178361313Y-81613179D01*
X178375249Y-81567239D01*
X178409975Y-81452761D01*
X178409976Y-81452759D01*
X178409977Y-81452756D01*
X178488995Y-81304922D01*
X178595341Y-81175341D01*
X178724922Y-81068995D01*
X178872756Y-80989977D01*
X178872759Y-80989976D01*
X178872761Y-80989975D01*
X179033175Y-80941314D01*
X179033176Y-80941314D01*
X179033179Y-80941313D01*
X179158196Y-80929000D01*
X179241804Y-80929000D01*
X179366821Y-80941313D01*
X179366821Y-80941313D01*
G37*
G36*
X181906821Y-80941313D02*
X181906824Y-80941314D01*
X181906825Y-80941314D01*
X182067239Y-80989975D01*
X182067241Y-80989976D01*
X182067244Y-80989977D01*
X182215078Y-81068995D01*
X182344659Y-81175341D01*
X182451005Y-81304922D01*
X182530023Y-81452756D01*
X182530024Y-81452759D01*
X182530025Y-81452761D01*
X182564751Y-81567239D01*
X182578687Y-81613179D01*
X182595117Y-81780000D01*
X182578687Y-81946821D01*
X182578686Y-81946824D01*
X182578686Y-81946825D01*
X182553448Y-82030025D01*
X182530023Y-82107244D01*
X182451005Y-82255078D01*
X182344659Y-82384659D01*
X182215078Y-82491005D01*
X182067244Y-82570023D01*
X182067241Y-82570024D01*
X182067239Y-82570025D01*
X181906825Y-82618686D01*
X181906824Y-82618686D01*
X181906821Y-82618687D01*
X181781804Y-82631000D01*
X181698196Y-82631000D01*
X181573179Y-82618687D01*
X181573176Y-82618686D01*
X181573175Y-82618686D01*
X181412761Y-82570025D01*
X181412759Y-82570024D01*
X181412756Y-82570023D01*
X181264922Y-82491005D01*
X181135341Y-82384659D01*
X181028995Y-82255078D01*
X180949977Y-82107244D01*
X180926553Y-82030025D01*
X180901314Y-81946825D01*
X180901314Y-81946824D01*
X180901313Y-81946821D01*
X180884883Y-81780000D01*
X180901313Y-81613179D01*
X180915249Y-81567239D01*
X180949975Y-81452761D01*
X180949976Y-81452759D01*
X180949977Y-81452756D01*
X181028995Y-81304922D01*
X181135341Y-81175341D01*
X181264922Y-81068995D01*
X181412756Y-80989977D01*
X181412759Y-80989976D01*
X181412761Y-80989975D01*
X181573175Y-80941314D01*
X181573176Y-80941314D01*
X181573179Y-80941313D01*
X181698196Y-80929000D01*
X181781804Y-80929000D01*
X181906821Y-80941313D01*
X181906821Y-80941313D01*
G37*
G36*
X186804981Y-82113352D02*
X184902981Y-82113352D01*
X184902981Y-80211352D01*
X186804981Y-80211352D01*
X186804981Y-82113352D01*
X186804981Y-82113352D01*
G37*
G36*
X189666821Y-80401313D02*
X189666824Y-80401314D01*
X189666825Y-80401314D01*
X189827239Y-80449975D01*
X189827241Y-80449976D01*
X189827244Y-80449977D01*
X189975078Y-80528995D01*
X190104659Y-80635341D01*
X190211005Y-80764922D01*
X190290023Y-80912756D01*
X190290024Y-80912759D01*
X190290025Y-80912761D01*
X190313448Y-80989977D01*
X190338687Y-81073179D01*
X190355117Y-81240000D01*
X190338687Y-81406821D01*
X190338686Y-81406824D01*
X190338686Y-81406825D01*
X190301314Y-81530025D01*
X190290023Y-81567244D01*
X190211005Y-81715078D01*
X190104659Y-81844659D01*
X189975078Y-81951005D01*
X189827244Y-82030023D01*
X189827241Y-82030024D01*
X189827239Y-82030025D01*
X189666825Y-82078686D01*
X189666824Y-82078686D01*
X189666821Y-82078687D01*
X189541804Y-82091000D01*
X189458196Y-82091000D01*
X189333179Y-82078687D01*
X189333176Y-82078686D01*
X189333175Y-82078686D01*
X189172761Y-82030025D01*
X189172759Y-82030024D01*
X189172756Y-82030023D01*
X189024922Y-81951005D01*
X188895341Y-81844659D01*
X188788995Y-81715078D01*
X188709977Y-81567244D01*
X188698687Y-81530025D01*
X188661314Y-81406825D01*
X188661314Y-81406824D01*
X188661313Y-81406821D01*
X188644883Y-81240000D01*
X188661313Y-81073179D01*
X188686552Y-80989977D01*
X188709975Y-80912761D01*
X188709976Y-80912759D01*
X188709977Y-80912756D01*
X188788995Y-80764922D01*
X188895341Y-80635341D01*
X189024922Y-80528995D01*
X189172756Y-80449977D01*
X189172759Y-80449976D01*
X189172761Y-80449975D01*
X189333175Y-80401314D01*
X189333176Y-80401314D01*
X189333179Y-80401313D01*
X189458196Y-80389000D01*
X189541804Y-80389000D01*
X189666821Y-80401313D01*
X189666821Y-80401313D01*
G37*
G36*
X175366821Y-79901313D02*
X175366824Y-79901314D01*
X175366825Y-79901314D01*
X175527239Y-79949975D01*
X175527241Y-79949976D01*
X175527244Y-79949977D01*
X175675078Y-80028995D01*
X175804659Y-80135341D01*
X175911005Y-80264922D01*
X175990023Y-80412756D01*
X175990024Y-80412759D01*
X175990025Y-80412761D01*
X176001314Y-80449977D01*
X176038687Y-80573179D01*
X176055117Y-80740000D01*
X176038687Y-80906821D01*
X176038686Y-80906824D01*
X176038686Y-80906825D01*
X176013463Y-80989975D01*
X175990023Y-81067244D01*
X175911005Y-81215078D01*
X175804659Y-81344659D01*
X175675078Y-81451005D01*
X175527244Y-81530023D01*
X175527241Y-81530024D01*
X175527239Y-81530025D01*
X175366825Y-81578686D01*
X175366824Y-81578686D01*
X175366821Y-81578687D01*
X175241804Y-81591000D01*
X175158196Y-81591000D01*
X175033179Y-81578687D01*
X175033176Y-81578686D01*
X175033175Y-81578686D01*
X174872761Y-81530025D01*
X174872759Y-81530024D01*
X174872756Y-81530023D01*
X174724922Y-81451005D01*
X174595341Y-81344659D01*
X174488995Y-81215078D01*
X174409977Y-81067244D01*
X174386538Y-80989975D01*
X174361314Y-80906825D01*
X174361314Y-80906824D01*
X174361313Y-80906821D01*
X174344883Y-80740000D01*
X174361313Y-80573179D01*
X174398686Y-80449977D01*
X174409975Y-80412761D01*
X174409976Y-80412759D01*
X174409977Y-80412756D01*
X174488995Y-80264922D01*
X174595341Y-80135341D01*
X174724922Y-80028995D01*
X174872756Y-79949977D01*
X174872759Y-79949976D01*
X174872761Y-79949975D01*
X175033175Y-79901314D01*
X175033176Y-79901314D01*
X175033179Y-79901313D01*
X175158196Y-79889000D01*
X175241804Y-79889000D01*
X175366821Y-79901313D01*
X175366821Y-79901313D01*
G37*
G36*
X200783600Y-77552989D02*
X200816649Y-77563014D01*
X200847106Y-77579294D01*
X200873799Y-77601201D01*
X200895706Y-77627894D01*
X200911986Y-77658351D01*
X200922011Y-77691400D01*
X200926000Y-77731904D01*
X200926000Y-79168096D01*
X200922011Y-79208600D01*
X200911986Y-79241649D01*
X200895706Y-79272106D01*
X200873799Y-79298799D01*
X200847106Y-79320706D01*
X200816649Y-79336986D01*
X200783600Y-79347011D01*
X200743096Y-79351000D01*
X199056904Y-79351000D01*
X199016400Y-79347011D01*
X198983351Y-79336986D01*
X198952894Y-79320706D01*
X198926201Y-79298799D01*
X198904294Y-79272106D01*
X198888014Y-79241649D01*
X198877989Y-79208600D01*
X198874000Y-79168096D01*
X198874000Y-77731904D01*
X198877989Y-77691400D01*
X198888014Y-77658351D01*
X198904294Y-77627894D01*
X198926201Y-77601201D01*
X198952894Y-77579294D01*
X198983351Y-77563014D01*
X199016400Y-77552989D01*
X199056904Y-77549000D01*
X200743096Y-77549000D01*
X200783600Y-77552989D01*
X200783600Y-77552989D01*
G37*
G36*
X175606821Y-76461313D02*
X175606824Y-76461314D01*
X175606825Y-76461314D01*
X175767239Y-76509975D01*
X175767241Y-76509976D01*
X175767244Y-76509977D01*
X175915078Y-76588995D01*
X176044659Y-76695341D01*
X176151005Y-76824922D01*
X176230023Y-76972756D01*
X176230024Y-76972759D01*
X176230025Y-76972761D01*
X176278686Y-77133175D01*
X176278687Y-77133179D01*
X176295117Y-77300000D01*
X176278687Y-77466821D01*
X176278686Y-77466824D01*
X176278686Y-77466825D01*
X176230214Y-77626617D01*
X176230023Y-77627244D01*
X176151005Y-77775078D01*
X176044659Y-77904659D01*
X175915078Y-78011005D01*
X175767244Y-78090023D01*
X175767241Y-78090024D01*
X175767239Y-78090025D01*
X175606825Y-78138686D01*
X175606824Y-78138686D01*
X175606821Y-78138687D01*
X175481804Y-78151000D01*
X175398196Y-78151000D01*
X175273179Y-78138687D01*
X175273176Y-78138686D01*
X175273175Y-78138686D01*
X175112761Y-78090025D01*
X175112759Y-78090024D01*
X175112756Y-78090023D01*
X174964922Y-78011005D01*
X174835341Y-77904659D01*
X174728995Y-77775078D01*
X174649977Y-77627244D01*
X174649787Y-77626617D01*
X174601314Y-77466825D01*
X174601314Y-77466824D01*
X174601313Y-77466821D01*
X174584883Y-77300000D01*
X174601313Y-77133179D01*
X174601314Y-77133175D01*
X174649975Y-76972761D01*
X174649976Y-76972759D01*
X174649977Y-76972756D01*
X174728995Y-76824922D01*
X174835341Y-76695341D01*
X174964922Y-76588995D01*
X175112756Y-76509977D01*
X175112759Y-76509976D01*
X175112761Y-76509975D01*
X175273175Y-76461314D01*
X175273176Y-76461314D01*
X175273179Y-76461313D01*
X175398196Y-76449000D01*
X175481804Y-76449000D01*
X175606821Y-76461313D01*
X175606821Y-76461313D01*
G37*
G36*
X185848228Y-76481703D02*
X186003100Y-76545853D01*
X186142481Y-76638985D01*
X186261015Y-76757519D01*
X186354147Y-76896900D01*
X186418297Y-77051772D01*
X186451000Y-77216184D01*
X186451000Y-77383816D01*
X186418297Y-77548228D01*
X186354147Y-77703100D01*
X186261015Y-77842481D01*
X186142481Y-77961015D01*
X186003100Y-78054147D01*
X185848228Y-78118297D01*
X185683816Y-78151000D01*
X185516184Y-78151000D01*
X185351772Y-78118297D01*
X185196900Y-78054147D01*
X185057519Y-77961015D01*
X184938985Y-77842481D01*
X184845853Y-77703100D01*
X184781703Y-77548228D01*
X184749000Y-77383816D01*
X184749000Y-77216184D01*
X184781703Y-77051772D01*
X184845853Y-76896900D01*
X184938985Y-76757519D01*
X185057519Y-76638985D01*
X185196900Y-76545853D01*
X185351772Y-76481703D01*
X185516184Y-76449000D01*
X185683816Y-76449000D01*
X185848228Y-76481703D01*
X185848228Y-76481703D01*
G37*
G36*
X200135442Y-75055518D02*
X200201627Y-75062037D01*
X200314853Y-75096384D01*
X200371467Y-75113557D01*
X200510087Y-75187652D01*
X200527991Y-75197222D01*
X200563729Y-75226552D01*
X200665186Y-75309814D01*
X200748448Y-75411271D01*
X200777778Y-75447009D01*
X200777779Y-75447011D01*
X200861443Y-75603533D01*
X200861443Y-75603534D01*
X200912963Y-75773373D01*
X200930359Y-75950000D01*
X200912963Y-76126627D01*
X200878616Y-76239853D01*
X200861443Y-76296467D01*
X200787348Y-76435087D01*
X200777778Y-76452991D01*
X200754214Y-76481704D01*
X200665186Y-76590186D01*
X200563729Y-76673448D01*
X200527991Y-76702778D01*
X200527989Y-76702779D01*
X200371467Y-76786443D01*
X200314853Y-76803616D01*
X200201627Y-76837963D01*
X200135443Y-76844481D01*
X200069260Y-76851000D01*
X199730740Y-76851000D01*
X199664557Y-76844481D01*
X199598373Y-76837963D01*
X199485147Y-76803616D01*
X199428533Y-76786443D01*
X199272011Y-76702779D01*
X199272009Y-76702778D01*
X199236271Y-76673448D01*
X199134814Y-76590186D01*
X199045786Y-76481704D01*
X199022222Y-76452991D01*
X199012652Y-76435087D01*
X198938557Y-76296467D01*
X198921384Y-76239853D01*
X198887037Y-76126627D01*
X198869641Y-75950000D01*
X198887037Y-75773373D01*
X198938557Y-75603534D01*
X198938557Y-75603533D01*
X199022221Y-75447011D01*
X199022222Y-75447009D01*
X199051552Y-75411271D01*
X199134814Y-75309814D01*
X199236271Y-75226552D01*
X199272009Y-75197222D01*
X199289913Y-75187652D01*
X199428533Y-75113557D01*
X199485147Y-75096384D01*
X199598373Y-75062037D01*
X199664558Y-75055518D01*
X199730740Y-75049000D01*
X200069260Y-75049000D01*
X200135442Y-75055518D01*
X200135442Y-75055518D01*
G37*
G36*
X200135443Y-72555519D02*
X200201627Y-72562037D01*
X200314853Y-72596384D01*
X200371467Y-72613557D01*
X200510087Y-72687652D01*
X200527991Y-72697222D01*
X200548223Y-72713826D01*
X200665186Y-72809814D01*
X200730030Y-72888828D01*
X200777778Y-72947009D01*
X200777779Y-72947011D01*
X200861443Y-73103533D01*
X200861520Y-73103787D01*
X200912963Y-73273373D01*
X200930359Y-73450000D01*
X200912963Y-73626627D01*
X200878616Y-73739853D01*
X200861443Y-73796467D01*
X200787348Y-73935087D01*
X200777778Y-73952991D01*
X200748448Y-73988729D01*
X200665186Y-74090186D01*
X200563729Y-74173448D01*
X200527991Y-74202778D01*
X200527989Y-74202779D01*
X200371467Y-74286443D01*
X200314853Y-74303616D01*
X200201627Y-74337963D01*
X200135443Y-74344481D01*
X200069260Y-74351000D01*
X199730740Y-74351000D01*
X199664557Y-74344481D01*
X199598373Y-74337963D01*
X199485147Y-74303616D01*
X199428533Y-74286443D01*
X199272011Y-74202779D01*
X199272009Y-74202778D01*
X199236271Y-74173448D01*
X199134814Y-74090186D01*
X199051552Y-73988729D01*
X199022222Y-73952991D01*
X199012652Y-73935087D01*
X198938557Y-73796467D01*
X198921384Y-73739853D01*
X198887037Y-73626627D01*
X198869641Y-73450000D01*
X198887037Y-73273373D01*
X198938480Y-73103787D01*
X198938557Y-73103533D01*
X199022221Y-72947011D01*
X199022222Y-72947009D01*
X199069970Y-72888828D01*
X199134814Y-72809814D01*
X199251777Y-72713826D01*
X199272009Y-72697222D01*
X199289913Y-72687652D01*
X199428533Y-72613557D01*
X199485147Y-72596384D01*
X199598373Y-72562037D01*
X199664557Y-72555519D01*
X199730740Y-72549000D01*
X200069260Y-72549000D01*
X200135443Y-72555519D01*
X200135443Y-72555519D01*
G37*
G36*
X180342916Y-71507334D02*
X180451492Y-71540271D01*
X180544876Y-71590185D01*
X180551557Y-71593756D01*
X180639264Y-71665736D01*
X180702374Y-71742635D01*
X180719701Y-71759962D01*
X180740076Y-71773576D01*
X180762715Y-71782954D01*
X180786748Y-71787734D01*
X180811252Y-71787734D01*
X180835286Y-71782953D01*
X180857925Y-71773576D01*
X180878299Y-71759962D01*
X180895626Y-71742635D01*
X180909240Y-71722260D01*
X180918618Y-71699621D01*
X180924000Y-71663336D01*
X180924000Y-71499000D01*
X182076000Y-71499000D01*
X182076000Y-73101000D01*
X180924000Y-73101000D01*
X180924000Y-72936663D01*
X180921598Y-72912277D01*
X180914485Y-72888828D01*
X180902934Y-72867217D01*
X180887388Y-72848275D01*
X180868446Y-72832729D01*
X180846835Y-72821178D01*
X180823386Y-72814065D01*
X180799000Y-72811663D01*
X180774614Y-72814065D01*
X180751165Y-72821178D01*
X180729554Y-72832729D01*
X180702377Y-72857361D01*
X180639264Y-72934264D01*
X180551556Y-73006244D01*
X180451491Y-73059729D01*
X180342915Y-73092666D01*
X180230000Y-73103787D01*
X180117084Y-73092666D01*
X180008508Y-73059729D01*
X179908443Y-73006244D01*
X179820736Y-72934264D01*
X179748756Y-72846556D01*
X179705240Y-72765142D01*
X179691627Y-72744767D01*
X179674299Y-72727440D01*
X179653925Y-72713826D01*
X179631286Y-72704449D01*
X179607253Y-72699668D01*
X179582748Y-72699668D01*
X179558715Y-72704448D01*
X179536076Y-72713826D01*
X179515701Y-72727439D01*
X179498374Y-72744767D01*
X179484767Y-72765131D01*
X179441244Y-72846557D01*
X179369264Y-72934264D01*
X179281556Y-73006244D01*
X179181491Y-73059729D01*
X179072915Y-73092666D01*
X178960000Y-73103787D01*
X178847084Y-73092666D01*
X178738508Y-73059729D01*
X178638443Y-73006244D01*
X178550736Y-72934264D01*
X178478756Y-72846556D01*
X178425271Y-72746491D01*
X178392334Y-72637915D01*
X178384000Y-72553297D01*
X178384000Y-72046702D01*
X178392334Y-71962084D01*
X178425271Y-71853508D01*
X178462983Y-71782954D01*
X178478755Y-71753446D01*
X178504349Y-71722260D01*
X178550737Y-71665736D01*
X178638444Y-71593756D01*
X178738509Y-71540271D01*
X178847085Y-71507334D01*
X178960000Y-71496213D01*
X179072916Y-71507334D01*
X179181492Y-71540271D01*
X179274876Y-71590185D01*
X179281557Y-71593756D01*
X179369264Y-71665736D01*
X179441244Y-71753443D01*
X179484760Y-71834857D01*
X179498373Y-71855232D01*
X179515701Y-71872559D01*
X179536075Y-71886173D01*
X179558714Y-71895550D01*
X179582747Y-71900331D01*
X179607252Y-71900331D01*
X179631285Y-71895551D01*
X179653924Y-71886173D01*
X179674299Y-71872560D01*
X179691626Y-71855232D01*
X179705240Y-71834857D01*
X179748755Y-71753446D01*
X179774349Y-71722260D01*
X179820737Y-71665736D01*
X179908444Y-71593756D01*
X180008509Y-71540271D01*
X180117085Y-71507334D01*
X180230000Y-71496213D01*
X180342916Y-71507334D01*
X180342916Y-71507334D01*
G37*
G36*
X200135442Y-70055518D02*
X200201627Y-70062037D01*
X200314853Y-70096384D01*
X200371467Y-70113557D01*
X200510087Y-70187652D01*
X200527991Y-70197222D01*
X200563729Y-70226552D01*
X200665186Y-70309814D01*
X200748448Y-70411271D01*
X200777778Y-70447009D01*
X200777779Y-70447011D01*
X200861443Y-70603533D01*
X200861443Y-70603534D01*
X200912963Y-70773373D01*
X200930359Y-70950000D01*
X200912963Y-71126627D01*
X200878616Y-71239853D01*
X200861443Y-71296467D01*
X200787348Y-71435087D01*
X200777778Y-71452991D01*
X200748448Y-71488729D01*
X200665186Y-71590186D01*
X200563729Y-71673448D01*
X200527991Y-71702778D01*
X200527989Y-71702779D01*
X200371467Y-71786443D01*
X200314853Y-71803616D01*
X200201627Y-71837963D01*
X200135443Y-71844481D01*
X200069260Y-71851000D01*
X199730740Y-71851000D01*
X199664557Y-71844481D01*
X199598373Y-71837963D01*
X199485147Y-71803616D01*
X199428533Y-71786443D01*
X199272011Y-71702779D01*
X199272009Y-71702778D01*
X199236271Y-71673448D01*
X199134814Y-71590186D01*
X199051552Y-71488729D01*
X199022222Y-71452991D01*
X199012652Y-71435087D01*
X198938557Y-71296467D01*
X198921384Y-71239853D01*
X198887037Y-71126627D01*
X198869641Y-70950000D01*
X198887037Y-70773373D01*
X198938557Y-70603534D01*
X198938557Y-70603533D01*
X199022221Y-70447011D01*
X199022222Y-70447009D01*
X199051552Y-70411271D01*
X199134814Y-70309814D01*
X199236271Y-70226552D01*
X199272009Y-70197222D01*
X199289913Y-70187652D01*
X199428533Y-70113557D01*
X199485147Y-70096384D01*
X199598373Y-70062037D01*
X199664558Y-70055518D01*
X199730740Y-70049000D01*
X200069260Y-70049000D01*
X200135442Y-70055518D01*
X200135442Y-70055518D01*
G37*
G36*
X191017184Y-64399938D02*
X191273268Y-64450876D01*
X191755719Y-64650714D01*
X192186989Y-64938879D01*
X192189917Y-64940836D01*
X192559164Y-65310083D01*
X192559166Y-65310086D01*
X192849286Y-65744281D01*
X193049124Y-66226732D01*
X193151000Y-66738899D01*
X193151000Y-67261101D01*
X193049124Y-67773268D01*
X192849286Y-68255719D01*
X192561121Y-68686989D01*
X192559164Y-68689917D01*
X192189917Y-69059164D01*
X192189914Y-69059166D01*
X191755719Y-69349286D01*
X191273268Y-69549124D01*
X191017184Y-69600062D01*
X190761102Y-69651000D01*
X190238898Y-69651000D01*
X189982816Y-69600062D01*
X189726732Y-69549124D01*
X189244281Y-69349286D01*
X188810086Y-69059166D01*
X188810083Y-69059164D01*
X188440836Y-68689917D01*
X188438879Y-68686989D01*
X188150714Y-68255719D01*
X187950876Y-67773268D01*
X187849000Y-67261101D01*
X187849000Y-66738899D01*
X187950876Y-66226732D01*
X188150714Y-65744281D01*
X188440834Y-65310086D01*
X188440836Y-65310083D01*
X188810083Y-64940836D01*
X188813011Y-64938879D01*
X189244281Y-64650714D01*
X189726732Y-64450876D01*
X189982816Y-64399938D01*
X190238898Y-64349000D01*
X190761102Y-64349000D01*
X191017184Y-64399938D01*
X191017184Y-64399938D01*
G37*
G36*
X96917184Y-64399938D02*
X97173268Y-64450876D01*
X97655719Y-64650714D01*
X98086989Y-64938879D01*
X98089917Y-64940836D01*
X98459164Y-65310083D01*
X98459166Y-65310086D01*
X98749286Y-65744281D01*
X98949124Y-66226732D01*
X99051000Y-66738899D01*
X99051000Y-67261101D01*
X98949124Y-67773268D01*
X98749286Y-68255719D01*
X98461121Y-68686989D01*
X98459164Y-68689917D01*
X98089917Y-69059164D01*
X98089914Y-69059166D01*
X97655719Y-69349286D01*
X97173268Y-69549124D01*
X96917184Y-69600062D01*
X96661102Y-69651000D01*
X96138898Y-69651000D01*
X95882816Y-69600062D01*
X95626732Y-69549124D01*
X95144281Y-69349286D01*
X94710086Y-69059166D01*
X94710083Y-69059164D01*
X94340836Y-68689917D01*
X94338879Y-68686989D01*
X94050714Y-68255719D01*
X93850876Y-67773268D01*
X93749000Y-67261101D01*
X93749000Y-66738899D01*
X93850876Y-66226732D01*
X94050714Y-65744281D01*
X94340834Y-65310086D01*
X94340836Y-65310083D01*
X94710083Y-64940836D01*
X94713011Y-64938879D01*
X95144281Y-64650714D01*
X95626732Y-64450876D01*
X95882816Y-64399938D01*
X96138898Y-64349000D01*
X96661102Y-64349000D01*
X96917184Y-64399938D01*
X96917184Y-64399938D01*
G37*
G36*
X200135443Y-67555519D02*
X200201627Y-67562037D01*
X200314853Y-67596384D01*
X200371467Y-67613557D01*
X200462412Y-67662169D01*
X200527991Y-67697222D01*
X200551096Y-67716184D01*
X200665186Y-67809814D01*
X200748448Y-67911271D01*
X200777778Y-67947009D01*
X200777779Y-67947011D01*
X200861443Y-68103533D01*
X200861443Y-68103534D01*
X200912963Y-68273373D01*
X200930359Y-68450000D01*
X200912963Y-68626627D01*
X200893765Y-68689914D01*
X200861443Y-68796467D01*
X200787348Y-68935087D01*
X200777778Y-68952991D01*
X200748448Y-68988729D01*
X200665186Y-69090186D01*
X200563729Y-69173448D01*
X200527991Y-69202778D01*
X200527989Y-69202779D01*
X200371467Y-69286443D01*
X200314853Y-69303616D01*
X200201627Y-69337963D01*
X200135443Y-69344481D01*
X200069260Y-69351000D01*
X199730740Y-69351000D01*
X199664557Y-69344481D01*
X199598373Y-69337963D01*
X199485147Y-69303616D01*
X199428533Y-69286443D01*
X199272011Y-69202779D01*
X199272009Y-69202778D01*
X199236271Y-69173448D01*
X199134814Y-69090186D01*
X199051552Y-68988729D01*
X199022222Y-68952991D01*
X199012652Y-68935087D01*
X198938557Y-68796467D01*
X198906235Y-68689914D01*
X198887037Y-68626627D01*
X198869641Y-68450000D01*
X198887037Y-68273373D01*
X198938557Y-68103534D01*
X198938557Y-68103533D01*
X199022221Y-67947011D01*
X199022222Y-67947009D01*
X199051552Y-67911271D01*
X199134814Y-67809814D01*
X199248904Y-67716184D01*
X199272009Y-67697222D01*
X199337588Y-67662169D01*
X199428533Y-67613557D01*
X199485147Y-67596384D01*
X199598373Y-67562037D01*
X199664557Y-67555519D01*
X199730740Y-67549000D01*
X200069260Y-67549000D01*
X200135443Y-67555519D01*
X200135443Y-67555519D01*
G37*
G36*
X185648228Y-66981703D02*
X185803100Y-67045853D01*
X185942481Y-67138985D01*
X186061015Y-67257519D01*
X186154147Y-67396900D01*
X186218297Y-67551772D01*
X186251000Y-67716184D01*
X186251000Y-67883816D01*
X186218297Y-68048228D01*
X186154147Y-68203100D01*
X186061015Y-68342481D01*
X185942481Y-68461015D01*
X185803100Y-68554147D01*
X185648228Y-68618297D01*
X185483816Y-68651000D01*
X185316184Y-68651000D01*
X185151772Y-68618297D01*
X184996900Y-68554147D01*
X184857519Y-68461015D01*
X184738985Y-68342481D01*
X184645853Y-68203100D01*
X184581703Y-68048228D01*
X184549000Y-67883816D01*
X184549000Y-67716184D01*
X184581703Y-67551772D01*
X184645853Y-67396900D01*
X184738985Y-67257519D01*
X184857519Y-67138985D01*
X184996900Y-67045853D01*
X185151772Y-66981703D01*
X185316184Y-66949000D01*
X185483816Y-66949000D01*
X185648228Y-66981703D01*
X185648228Y-66981703D01*
G37*
G36*
X175406821Y-66961313D02*
X175406824Y-66961314D01*
X175406825Y-66961314D01*
X175567239Y-67009975D01*
X175567241Y-67009976D01*
X175567244Y-67009977D01*
X175715078Y-67088995D01*
X175844659Y-67195341D01*
X175951005Y-67324922D01*
X176030023Y-67472756D01*
X176030024Y-67472759D01*
X176030025Y-67472761D01*
X176072735Y-67613557D01*
X176078687Y-67633179D01*
X176095117Y-67800000D01*
X176078687Y-67966821D01*
X176030024Y-68127243D01*
X175951005Y-68275078D01*
X175844659Y-68404659D01*
X175715078Y-68511005D01*
X175567244Y-68590023D01*
X175567241Y-68590024D01*
X175567239Y-68590025D01*
X175406825Y-68638686D01*
X175406824Y-68638686D01*
X175406821Y-68638687D01*
X175281804Y-68651000D01*
X175198196Y-68651000D01*
X175073179Y-68638687D01*
X175073176Y-68638686D01*
X175073175Y-68638686D01*
X174912761Y-68590025D01*
X174912759Y-68590024D01*
X174912756Y-68590023D01*
X174764922Y-68511005D01*
X174635341Y-68404659D01*
X174528995Y-68275078D01*
X174449976Y-68127243D01*
X174401313Y-67966821D01*
X174384883Y-67800000D01*
X174401313Y-67633179D01*
X174407265Y-67613557D01*
X174449975Y-67472761D01*
X174449976Y-67472759D01*
X174449977Y-67472756D01*
X174528995Y-67324922D01*
X174635341Y-67195341D01*
X174764922Y-67088995D01*
X174912756Y-67009977D01*
X174912759Y-67009976D01*
X174912761Y-67009975D01*
X175073175Y-66961314D01*
X175073176Y-66961314D01*
X175073179Y-66961313D01*
X175198196Y-66949000D01*
X175281804Y-66949000D01*
X175406821Y-66961313D01*
X175406821Y-66961313D01*
G37*
G36*
X151049182Y-66225487D02*
X151231351Y-66300944D01*
X151395304Y-66410494D01*
X151534726Y-66549916D01*
X151644276Y-66713869D01*
X151719733Y-66896038D01*
X151758201Y-67089429D01*
X151758201Y-67286609D01*
X151719733Y-67480000D01*
X151644276Y-67662169D01*
X151534726Y-67826122D01*
X151395304Y-67965544D01*
X151231351Y-68075094D01*
X151105462Y-68127239D01*
X151049182Y-68150551D01*
X150855791Y-68189019D01*
X150658611Y-68189019D01*
X150465220Y-68150551D01*
X150408940Y-68127239D01*
X150283051Y-68075094D01*
X150119098Y-67965544D01*
X149979676Y-67826122D01*
X149870126Y-67662169D01*
X149794669Y-67480000D01*
X149756201Y-67286609D01*
X149756201Y-67089429D01*
X149794669Y-66896038D01*
X149870126Y-66713869D01*
X149979676Y-66549916D01*
X150119098Y-66410494D01*
X150283051Y-66300944D01*
X150465220Y-66225487D01*
X150658611Y-66187019D01*
X150855791Y-66187019D01*
X151049182Y-66225487D01*
X151049182Y-66225487D01*
G37*
G36*
X161209182Y-66225487D02*
X161391351Y-66300944D01*
X161555304Y-66410494D01*
X161694726Y-66549916D01*
X161804276Y-66713869D01*
X161879733Y-66896038D01*
X161918201Y-67089429D01*
X161918201Y-67286609D01*
X161879733Y-67480000D01*
X161804276Y-67662169D01*
X161694726Y-67826122D01*
X161555304Y-67965544D01*
X161391351Y-68075094D01*
X161265462Y-68127239D01*
X161209182Y-68150551D01*
X161015791Y-68189019D01*
X160818611Y-68189019D01*
X160625220Y-68150551D01*
X160568940Y-68127239D01*
X160443051Y-68075094D01*
X160279098Y-67965544D01*
X160139676Y-67826122D01*
X160030126Y-67662169D01*
X159954669Y-67480000D01*
X159916201Y-67286609D01*
X159916201Y-67089429D01*
X159954669Y-66896038D01*
X160030126Y-66713869D01*
X160139676Y-66549916D01*
X160279098Y-66410494D01*
X160443051Y-66300944D01*
X160625220Y-66225487D01*
X160818611Y-66187019D01*
X161015791Y-66187019D01*
X161209182Y-66225487D01*
X161209182Y-66225487D01*
G37*
G36*
X166289182Y-66225487D02*
X166471351Y-66300944D01*
X166635304Y-66410494D01*
X166774726Y-66549916D01*
X166884276Y-66713869D01*
X166959733Y-66896038D01*
X166998201Y-67089429D01*
X166998201Y-67286609D01*
X166959733Y-67480000D01*
X166884276Y-67662169D01*
X166774726Y-67826122D01*
X166635304Y-67965544D01*
X166471351Y-68075094D01*
X166345462Y-68127239D01*
X166289182Y-68150551D01*
X166095791Y-68189019D01*
X165898611Y-68189019D01*
X165705220Y-68150551D01*
X165648940Y-68127239D01*
X165523051Y-68075094D01*
X165359098Y-67965544D01*
X165219676Y-67826122D01*
X165110126Y-67662169D01*
X165034669Y-67480000D01*
X164996201Y-67286609D01*
X164996201Y-67089429D01*
X165034669Y-66896038D01*
X165110126Y-66713869D01*
X165219676Y-66549916D01*
X165359098Y-66410494D01*
X165523051Y-66300944D01*
X165705220Y-66225487D01*
X165898611Y-66187019D01*
X166095791Y-66187019D01*
X166289182Y-66225487D01*
X166289182Y-66225487D01*
G37*
G36*
X163749182Y-66225487D02*
X163931351Y-66300944D01*
X164095304Y-66410494D01*
X164234726Y-66549916D01*
X164344276Y-66713869D01*
X164419733Y-66896038D01*
X164458201Y-67089429D01*
X164458201Y-67286609D01*
X164419733Y-67480000D01*
X164344276Y-67662169D01*
X164234726Y-67826122D01*
X164095304Y-67965544D01*
X163931351Y-68075094D01*
X163805462Y-68127239D01*
X163749182Y-68150551D01*
X163555791Y-68189019D01*
X163358611Y-68189019D01*
X163165220Y-68150551D01*
X163108940Y-68127239D01*
X162983051Y-68075094D01*
X162819098Y-67965544D01*
X162679676Y-67826122D01*
X162570126Y-67662169D01*
X162494669Y-67480000D01*
X162456201Y-67286609D01*
X162456201Y-67089429D01*
X162494669Y-66896038D01*
X162570126Y-66713869D01*
X162679676Y-66549916D01*
X162819098Y-66410494D01*
X162983051Y-66300944D01*
X163165220Y-66225487D01*
X163358611Y-66187019D01*
X163555791Y-66187019D01*
X163749182Y-66225487D01*
X163749182Y-66225487D01*
G37*
G36*
X156129182Y-66225487D02*
X156311351Y-66300944D01*
X156475304Y-66410494D01*
X156614726Y-66549916D01*
X156724276Y-66713869D01*
X156799733Y-66896038D01*
X156838201Y-67089429D01*
X156838201Y-67286609D01*
X156799733Y-67480000D01*
X156724276Y-67662169D01*
X156614726Y-67826122D01*
X156475304Y-67965544D01*
X156311351Y-68075094D01*
X156185462Y-68127239D01*
X156129182Y-68150551D01*
X155935791Y-68189019D01*
X155738611Y-68189019D01*
X155545220Y-68150551D01*
X155488940Y-68127239D01*
X155363051Y-68075094D01*
X155199098Y-67965544D01*
X155059676Y-67826122D01*
X154950126Y-67662169D01*
X154874669Y-67480000D01*
X154836201Y-67286609D01*
X154836201Y-67089429D01*
X154874669Y-66896038D01*
X154950126Y-66713869D01*
X155059676Y-66549916D01*
X155199098Y-66410494D01*
X155363051Y-66300944D01*
X155545220Y-66225487D01*
X155738611Y-66187019D01*
X155935791Y-66187019D01*
X156129182Y-66225487D01*
X156129182Y-66225487D01*
G37*
G36*
X148509182Y-66225487D02*
X148691351Y-66300944D01*
X148855304Y-66410494D01*
X148994726Y-66549916D01*
X149104276Y-66713869D01*
X149179733Y-66896038D01*
X149218201Y-67089429D01*
X149218201Y-67286609D01*
X149179733Y-67480000D01*
X149104276Y-67662169D01*
X148994726Y-67826122D01*
X148855304Y-67965544D01*
X148691351Y-68075094D01*
X148565462Y-68127239D01*
X148509182Y-68150551D01*
X148315791Y-68189019D01*
X148118611Y-68189019D01*
X147925220Y-68150551D01*
X147868940Y-68127239D01*
X147743051Y-68075094D01*
X147579098Y-67965544D01*
X147439676Y-67826122D01*
X147330126Y-67662169D01*
X147254669Y-67480000D01*
X147216201Y-67286609D01*
X147216201Y-67089429D01*
X147254669Y-66896038D01*
X147330126Y-66713869D01*
X147439676Y-66549916D01*
X147579098Y-66410494D01*
X147743051Y-66300944D01*
X147925220Y-66225487D01*
X148118611Y-66187019D01*
X148315791Y-66187019D01*
X148509182Y-66225487D01*
X148509182Y-66225487D01*
G37*
G36*
X153589182Y-66225487D02*
X153771351Y-66300944D01*
X153935304Y-66410494D01*
X154074726Y-66549916D01*
X154184276Y-66713869D01*
X154259733Y-66896038D01*
X154298201Y-67089429D01*
X154298201Y-67286609D01*
X154259733Y-67480000D01*
X154184276Y-67662169D01*
X154074726Y-67826122D01*
X153935304Y-67965544D01*
X153771351Y-68075094D01*
X153645462Y-68127239D01*
X153589182Y-68150551D01*
X153395791Y-68189019D01*
X153198611Y-68189019D01*
X153005220Y-68150551D01*
X152948940Y-68127239D01*
X152823051Y-68075094D01*
X152659098Y-67965544D01*
X152519676Y-67826122D01*
X152410126Y-67662169D01*
X152334669Y-67480000D01*
X152296201Y-67286609D01*
X152296201Y-67089429D01*
X152334669Y-66896038D01*
X152410126Y-66713869D01*
X152519676Y-66549916D01*
X152659098Y-66410494D01*
X152823051Y-66300944D01*
X153005220Y-66225487D01*
X153198611Y-66187019D01*
X153395791Y-66187019D01*
X153589182Y-66225487D01*
X153589182Y-66225487D01*
G37*
G36*
X158669182Y-66225487D02*
X158851351Y-66300944D01*
X159015304Y-66410494D01*
X159154726Y-66549916D01*
X159264276Y-66713869D01*
X159339733Y-66896038D01*
X159378201Y-67089429D01*
X159378201Y-67286609D01*
X159339733Y-67480000D01*
X159264276Y-67662169D01*
X159154726Y-67826122D01*
X159015304Y-67965544D01*
X158851351Y-68075094D01*
X158725462Y-68127239D01*
X158669182Y-68150551D01*
X158475791Y-68189019D01*
X158278611Y-68189019D01*
X158085220Y-68150551D01*
X158028940Y-68127239D01*
X157903051Y-68075094D01*
X157739098Y-67965544D01*
X157599676Y-67826122D01*
X157490126Y-67662169D01*
X157414669Y-67480000D01*
X157376201Y-67286609D01*
X157376201Y-67089429D01*
X157414669Y-66896038D01*
X157490126Y-66713869D01*
X157599676Y-66549916D01*
X157739098Y-66410494D01*
X157903051Y-66300944D01*
X158085220Y-66225487D01*
X158278611Y-66187019D01*
X158475791Y-66187019D01*
X158669182Y-66225487D01*
X158669182Y-66225487D01*
G37*
G36*
X127481981Y-66197468D02*
X127664150Y-66272925D01*
X127828103Y-66382475D01*
X127967525Y-66521897D01*
X128077075Y-66685850D01*
X128152532Y-66868019D01*
X128191000Y-67061410D01*
X128191000Y-67258590D01*
X128152532Y-67451981D01*
X128077075Y-67634150D01*
X127967525Y-67798103D01*
X127828103Y-67937525D01*
X127664150Y-68047075D01*
X127481981Y-68122532D01*
X127288590Y-68161000D01*
X127091410Y-68161000D01*
X126898019Y-68122532D01*
X126715850Y-68047075D01*
X126551897Y-67937525D01*
X126412475Y-67798103D01*
X126302925Y-67634150D01*
X126227468Y-67451981D01*
X126189000Y-67258590D01*
X126189000Y-67061410D01*
X126227468Y-66868019D01*
X126302925Y-66685850D01*
X126412475Y-66521897D01*
X126551897Y-66382475D01*
X126715850Y-66272925D01*
X126898019Y-66197468D01*
X127091410Y-66159000D01*
X127288590Y-66159000D01*
X127481981Y-66197468D01*
X127481981Y-66197468D01*
G37*
G36*
X124941981Y-66197468D02*
X125124150Y-66272925D01*
X125288103Y-66382475D01*
X125427525Y-66521897D01*
X125537075Y-66685850D01*
X125612532Y-66868019D01*
X125651000Y-67061410D01*
X125651000Y-67258590D01*
X125612532Y-67451981D01*
X125537075Y-67634150D01*
X125427525Y-67798103D01*
X125288103Y-67937525D01*
X125124150Y-68047075D01*
X124987846Y-68103534D01*
X124941981Y-68122532D01*
X124748590Y-68161000D01*
X124551410Y-68161000D01*
X124358019Y-68122532D01*
X124312154Y-68103534D01*
X124175850Y-68047075D01*
X124011897Y-67937525D01*
X123872475Y-67798103D01*
X123762925Y-67634150D01*
X123687468Y-67451981D01*
X123649000Y-67258590D01*
X123649000Y-67061410D01*
X123687468Y-66868019D01*
X123762925Y-66685850D01*
X123872475Y-66521897D01*
X124011897Y-66382475D01*
X124175850Y-66272925D01*
X124358019Y-66197468D01*
X124551410Y-66159000D01*
X124748590Y-66159000D01*
X124941981Y-66197468D01*
X124941981Y-66197468D01*
G37*
G36*
X130021981Y-66197468D02*
X130204150Y-66272925D01*
X130368103Y-66382475D01*
X130507525Y-66521897D01*
X130617075Y-66685850D01*
X130692532Y-66868019D01*
X130731000Y-67061410D01*
X130731000Y-67258590D01*
X130692532Y-67451981D01*
X130617075Y-67634150D01*
X130507525Y-67798103D01*
X130368103Y-67937525D01*
X130204150Y-68047075D01*
X130067846Y-68103534D01*
X130021981Y-68122532D01*
X129828590Y-68161000D01*
X129631410Y-68161000D01*
X129438019Y-68122532D01*
X129392154Y-68103534D01*
X129255850Y-68047075D01*
X129091897Y-67937525D01*
X128952475Y-67798103D01*
X128842925Y-67634150D01*
X128767468Y-67451981D01*
X128729000Y-67258590D01*
X128729000Y-67061410D01*
X128767468Y-66868019D01*
X128842925Y-66685850D01*
X128952475Y-66521897D01*
X129091897Y-66382475D01*
X129255850Y-66272925D01*
X129438019Y-66197468D01*
X129631410Y-66159000D01*
X129828590Y-66159000D01*
X130021981Y-66197468D01*
X130021981Y-66197468D01*
G37*
G36*
X132561981Y-66197468D02*
X132744150Y-66272925D01*
X132908103Y-66382475D01*
X133047525Y-66521897D01*
X133157075Y-66685850D01*
X133232532Y-66868019D01*
X133271000Y-67061410D01*
X133271000Y-67258590D01*
X133232532Y-67451981D01*
X133157075Y-67634150D01*
X133047525Y-67798103D01*
X132908103Y-67937525D01*
X132744150Y-68047075D01*
X132607846Y-68103534D01*
X132561981Y-68122532D01*
X132368590Y-68161000D01*
X132171410Y-68161000D01*
X131978019Y-68122532D01*
X131932154Y-68103534D01*
X131795850Y-68047075D01*
X131631897Y-67937525D01*
X131492475Y-67798103D01*
X131382925Y-67634150D01*
X131307468Y-67451981D01*
X131269000Y-67258590D01*
X131269000Y-67061410D01*
X131307468Y-66868019D01*
X131382925Y-66685850D01*
X131492475Y-66521897D01*
X131631897Y-66382475D01*
X131795850Y-66272925D01*
X131978019Y-66197468D01*
X132171410Y-66159000D01*
X132368590Y-66159000D01*
X132561981Y-66197468D01*
X132561981Y-66197468D01*
G37*
G36*
X135101981Y-66197468D02*
X135284150Y-66272925D01*
X135448103Y-66382475D01*
X135587525Y-66521897D01*
X135697075Y-66685850D01*
X135772532Y-66868019D01*
X135811000Y-67061410D01*
X135811000Y-67258590D01*
X135772532Y-67451981D01*
X135697075Y-67634150D01*
X135587525Y-67798103D01*
X135448103Y-67937525D01*
X135284150Y-68047075D01*
X135147846Y-68103534D01*
X135101981Y-68122532D01*
X134908590Y-68161000D01*
X134711410Y-68161000D01*
X134518019Y-68122532D01*
X134472154Y-68103534D01*
X134335850Y-68047075D01*
X134171897Y-67937525D01*
X134032475Y-67798103D01*
X133922925Y-67634150D01*
X133847468Y-67451981D01*
X133809000Y-67258590D01*
X133809000Y-67061410D01*
X133847468Y-66868019D01*
X133922925Y-66685850D01*
X134032475Y-66521897D01*
X134171897Y-66382475D01*
X134335850Y-66272925D01*
X134518019Y-66197468D01*
X134711410Y-66159000D01*
X134908590Y-66159000D01*
X135101981Y-66197468D01*
X135101981Y-66197468D01*
G37*
G36*
X137641981Y-66197468D02*
X137824150Y-66272925D01*
X137988103Y-66382475D01*
X138127525Y-66521897D01*
X138237075Y-66685850D01*
X138312532Y-66868019D01*
X138351000Y-67061410D01*
X138351000Y-67258590D01*
X138312532Y-67451981D01*
X138237075Y-67634150D01*
X138127525Y-67798103D01*
X137988103Y-67937525D01*
X137824150Y-68047075D01*
X137641981Y-68122532D01*
X137448590Y-68161000D01*
X137251410Y-68161000D01*
X137058019Y-68122532D01*
X136875850Y-68047075D01*
X136711897Y-67937525D01*
X136572475Y-67798103D01*
X136462925Y-67634150D01*
X136387468Y-67451981D01*
X136349000Y-67258590D01*
X136349000Y-67061410D01*
X136387468Y-66868019D01*
X136462925Y-66685850D01*
X136572475Y-66521897D01*
X136711897Y-66382475D01*
X136875850Y-66272925D01*
X137058019Y-66197468D01*
X137251410Y-66159000D01*
X137448590Y-66159000D01*
X137641981Y-66197468D01*
X137641981Y-66197468D01*
G37*
G36*
X140181981Y-66197468D02*
X140364150Y-66272925D01*
X140528103Y-66382475D01*
X140667525Y-66521897D01*
X140777075Y-66685850D01*
X140852532Y-66868019D01*
X140891000Y-67061410D01*
X140891000Y-67258590D01*
X140852532Y-67451981D01*
X140777075Y-67634150D01*
X140667525Y-67798103D01*
X140528103Y-67937525D01*
X140364150Y-68047075D01*
X140181981Y-68122532D01*
X139988590Y-68161000D01*
X139791410Y-68161000D01*
X139598019Y-68122532D01*
X139415850Y-68047075D01*
X139251897Y-67937525D01*
X139112475Y-67798103D01*
X139002925Y-67634150D01*
X138927468Y-67451981D01*
X138889000Y-67258590D01*
X138889000Y-67061410D01*
X138927468Y-66868019D01*
X139002925Y-66685850D01*
X139112475Y-66521897D01*
X139251897Y-66382475D01*
X139415850Y-66272925D01*
X139598019Y-66197468D01*
X139791410Y-66159000D01*
X139988590Y-66159000D01*
X140181981Y-66197468D01*
X140181981Y-66197468D01*
G37*
G36*
X142721981Y-66197468D02*
X142904150Y-66272925D01*
X143068103Y-66382475D01*
X143207525Y-66521897D01*
X143317075Y-66685850D01*
X143392532Y-66868019D01*
X143431000Y-67061410D01*
X143431000Y-67258590D01*
X143392532Y-67451981D01*
X143317075Y-67634150D01*
X143207525Y-67798103D01*
X143068103Y-67937525D01*
X142904150Y-68047075D01*
X142721981Y-68122532D01*
X142528590Y-68161000D01*
X142331410Y-68161000D01*
X142138019Y-68122532D01*
X141955850Y-68047075D01*
X141791897Y-67937525D01*
X141652475Y-67798103D01*
X141542925Y-67634150D01*
X141467468Y-67451981D01*
X141429000Y-67258590D01*
X141429000Y-67061410D01*
X141467468Y-66868019D01*
X141542925Y-66685850D01*
X141652475Y-66521897D01*
X141791897Y-66382475D01*
X141955850Y-66272925D01*
X142138019Y-66197468D01*
X142331410Y-66159000D01*
X142528590Y-66159000D01*
X142721981Y-66197468D01*
X142721981Y-66197468D01*
G37*
M02*
