M48
;DRILL file {KiCad (5.0.2)-1} date 06/09/2019 12:04:36
;FORMAT={-:-/ absolute / metric / decimal}
FMAT,2
METRIC,TZ
T1C0.400
T2C0.750
T3C0.762
T4C0.800
T5C0.900
T6C0.950
T7C1.000
T8C1.020
T9C1.100
T10C3.200
%
G90
G05
T1
X132.45Y-69.95
X143.96Y-69.94
X166.3Y-76.6
T2
X178.96Y-72.3
X180.23Y-72.3
X181.5Y-72.3
T3
X187.525Y-102.625
X187.525Y-105.165
X187.525Y-107.705
T4
X175.2Y-80.74
X175.2Y-90.9
X175.24Y-67.8
X185.4Y-67.8
X178.4Y-93.1
X178.4Y-103.26
X179.2Y-81.78
X179.2Y-89.4
X181.74Y-81.78
X181.74Y-89.4
X175.2Y-93.14
X175.2Y-103.3
X175.44Y-77.3
X185.6Y-77.3
X184.9Y-95.
X189.9Y-95.
X189.5Y-81.24
X189.5Y-91.4
T5
X185.854Y-81.162
X185.854Y-91.322
T6
X108.45Y-112.1
X110.95Y-112.1
X113.45Y-112.1
X115.95Y-112.1
X199.6Y-106.6
X199.6Y-109.1
X199.6Y-111.6
X199.85Y-89.15
X199.85Y-91.65
X199.85Y-94.15
X199.85Y-96.65
X199.9Y-68.45
X199.9Y-70.95
X199.9Y-73.45
X199.9Y-75.95
X199.9Y-78.45
T7
X164.279Y-114.791
X175.679Y-114.791
X164.3Y-108.1
X175.7Y-108.1
T8
X124.985Y-108.395
X124.985Y-110.935
X124.985Y-113.475
X97.27Y-104.66
X99.81Y-104.66
X102.35Y-104.66
X104.89Y-104.66
X107.43Y-104.66
X109.97Y-104.66
X112.51Y-104.66
X115.05Y-104.66
X117.59Y-104.66
X148.217Y-67.188
X150.757Y-67.188
X153.297Y-67.188
X155.837Y-67.188
X158.377Y-67.188
X160.917Y-67.188
X163.457Y-67.188
X165.997Y-67.188
X125.91Y-83.61
X125.91Y-101.39
X128.45Y-83.61
X128.45Y-101.39
X130.99Y-83.61
X130.99Y-101.39
X133.53Y-83.61
X133.53Y-101.39
X136.07Y-83.61
X136.07Y-101.39
X138.61Y-83.61
X138.61Y-101.39
X141.15Y-83.61
X141.15Y-101.39
X143.69Y-83.61
X143.69Y-101.39
X146.23Y-83.61
X146.23Y-101.39
X148.77Y-83.61
X148.77Y-101.39
X151.31Y-83.61
X151.31Y-101.39
X153.85Y-83.61
X153.85Y-101.39
X156.39Y-83.61
X156.39Y-101.39
X158.93Y-83.61
X158.93Y-101.39
X161.47Y-83.61
X161.47Y-101.39
X164.01Y-83.61
X164.01Y-101.39
X166.55Y-83.61
X166.55Y-101.39
X169.09Y-83.61
X169.09Y-101.39
X124.65Y-67.16
X127.19Y-67.16
X129.73Y-67.16
X132.27Y-67.16
X134.81Y-67.16
X137.35Y-67.16
X139.89Y-67.16
X142.43Y-67.16
T9
X181.3Y-94.9
X181.3Y-102.52
T10
X96.4Y-67.
X96.4Y-115.5
X190.5Y-67.
X190.5Y-115.5
T0
M30
