%TF.GenerationSoftware,KiCad,Pcbnew,(5.0.2)-1*%
%TF.CreationDate,2019-09-06T13:10:14+02:00*%
%TF.ProjectId,Connected-OldtimerHardware,436f6e6e-6563-4746-9564-2d4f6c647469,rev?*%
%TF.SameCoordinates,Original*%
%TF.FileFunction,Legend,Top*%
%TF.FilePolarity,Positive*%
%FSLAX46Y46*%
G04 Gerber Fmt 4.6, Leading zero omitted, Abs format (unit mm)*
G04 Created by KiCad (PCBNEW (5.0.2)-1) date 06/09/2019 13:10:14*
%MOMM*%
%LPD*%
G01*
G04 APERTURE LIST*
%ADD10C,0.300000*%
%ADD11C,0.200000*%
%ADD12C,0.150000*%
%ADD13C,0.120000*%
G04 APERTURE END LIST*
D10*
X193803571Y-110260714D02*
X192303571Y-110260714D01*
X192375000Y-108760714D02*
X192303571Y-108903571D01*
X192303571Y-109117857D01*
X192375000Y-109332142D01*
X192517857Y-109475000D01*
X192660714Y-109546428D01*
X192946428Y-109617857D01*
X193160714Y-109617857D01*
X193446428Y-109546428D01*
X193589285Y-109475000D01*
X193732142Y-109332142D01*
X193803571Y-109117857D01*
X193803571Y-108975000D01*
X193732142Y-108760714D01*
X193660714Y-108689285D01*
X193160714Y-108689285D01*
X193160714Y-108975000D01*
X193803571Y-108046428D02*
X192303571Y-108046428D01*
X193803571Y-107189285D01*
X192303571Y-107189285D01*
X193453571Y-96603571D02*
X191953571Y-96603571D01*
X191953571Y-96246428D01*
X192025000Y-96032142D01*
X192167857Y-95889285D01*
X192310714Y-95817857D01*
X192596428Y-95746428D01*
X192810714Y-95746428D01*
X193096428Y-95817857D01*
X193239285Y-95889285D01*
X193382142Y-96032142D01*
X193453571Y-96246428D01*
X193453571Y-96603571D01*
X193453571Y-95103571D02*
X192453571Y-95103571D01*
X191953571Y-95103571D02*
X192025000Y-95175000D01*
X192096428Y-95103571D01*
X192025000Y-95032142D01*
X191953571Y-95103571D01*
X192096428Y-95103571D01*
X193382142Y-94460714D02*
X193453571Y-94317857D01*
X193453571Y-94032142D01*
X193382142Y-93889285D01*
X193239285Y-93817857D01*
X193167857Y-93817857D01*
X193025000Y-93889285D01*
X192953571Y-94032142D01*
X192953571Y-94246428D01*
X192882142Y-94389285D01*
X192739285Y-94460714D01*
X192667857Y-94460714D01*
X192525000Y-94389285D01*
X192453571Y-94246428D01*
X192453571Y-94032142D01*
X192525000Y-93889285D01*
X192453571Y-93175000D02*
X193953571Y-93175000D01*
X192525000Y-93175000D02*
X192453571Y-93032142D01*
X192453571Y-92746428D01*
X192525000Y-92603571D01*
X192596428Y-92532142D01*
X192739285Y-92460714D01*
X193167857Y-92460714D01*
X193310714Y-92532142D01*
X193382142Y-92603571D01*
X193453571Y-92746428D01*
X193453571Y-93032142D01*
X193382142Y-93175000D01*
X193453571Y-91603571D02*
X193382142Y-91746428D01*
X193239285Y-91817857D01*
X191953571Y-91817857D01*
X193453571Y-90389285D02*
X192667857Y-90389285D01*
X192525000Y-90460714D01*
X192453571Y-90603571D01*
X192453571Y-90889285D01*
X192525000Y-91032142D01*
X193382142Y-90389285D02*
X193453571Y-90532142D01*
X193453571Y-90889285D01*
X193382142Y-91032142D01*
X193239285Y-91103571D01*
X193096428Y-91103571D01*
X192953571Y-91032142D01*
X192882142Y-90889285D01*
X192882142Y-90532142D01*
X192810714Y-90389285D01*
X192453571Y-89817857D02*
X193453571Y-89460714D01*
X192453571Y-89103571D02*
X193453571Y-89460714D01*
X193810714Y-89603571D01*
X193882142Y-89675000D01*
X193953571Y-89817857D01*
X193660714Y-76614285D02*
X193732142Y-76685714D01*
X193803571Y-76900000D01*
X193803571Y-77042857D01*
X193732142Y-77257142D01*
X193589285Y-77400000D01*
X193446428Y-77471428D01*
X193160714Y-77542857D01*
X192946428Y-77542857D01*
X192660714Y-77471428D01*
X192517857Y-77400000D01*
X192375000Y-77257142D01*
X192303571Y-77042857D01*
X192303571Y-76900000D01*
X192375000Y-76685714D01*
X192446428Y-76614285D01*
X193375000Y-76042857D02*
X193375000Y-75328571D01*
X193803571Y-76185714D02*
X192303571Y-75685714D01*
X193803571Y-75185714D01*
X193803571Y-74685714D02*
X192303571Y-74685714D01*
X193803571Y-73828571D01*
X192303571Y-73828571D01*
X109992857Y-110375000D02*
X110707142Y-110375000D01*
X109850000Y-110803571D02*
X110350000Y-109303571D01*
X110850000Y-110803571D01*
X111350000Y-109303571D02*
X111350000Y-110517857D01*
X111421428Y-110660714D01*
X111492857Y-110732142D01*
X111635714Y-110803571D01*
X111921428Y-110803571D01*
X112064285Y-110732142D01*
X112135714Y-110660714D01*
X112207142Y-110517857D01*
X112207142Y-109303571D01*
X112778571Y-109303571D02*
X113778571Y-110803571D01*
X113778571Y-109303571D02*
X112778571Y-110803571D01*
D11*
X194400000Y-63750000D02*
X194400000Y-118750000D01*
D12*
X168537201Y-79253019D02*
X168537201Y-67188019D01*
X168537201Y-79253019D02*
G75*
G02X166632201Y-81158019I-1905000J0D01*
G01*
X147582201Y-81158019D02*
X166632201Y-81158019D01*
X145677201Y-79253019D02*
X145677201Y-67188019D01*
X147582201Y-81158019D02*
G75*
G02X145677201Y-79253019I0J1905000D01*
G01*
X145677201Y-67188019D02*
G75*
G02X147582201Y-65283019I1905000J0D01*
G01*
X166632201Y-65283019D02*
G75*
G02X168537201Y-67188019I0J-1905000D01*
G01*
X147582201Y-65283019D02*
X166632201Y-65283019D01*
D13*
X207610000Y-73450000D02*
X207610000Y-81010000D01*
X207610000Y-81010000D02*
X195890000Y-81010000D01*
X195890000Y-81010000D02*
X195890000Y-79590000D01*
X195890000Y-79590000D02*
X200390000Y-79590000D01*
X207610000Y-73450000D02*
X207610000Y-65890000D01*
X207610000Y-65890000D02*
X195890000Y-65890000D01*
X195890000Y-65890000D02*
X195890000Y-67310000D01*
X195890000Y-67310000D02*
X200390000Y-67310000D01*
X201500000Y-78700000D02*
X207000000Y-78700000D01*
X207000000Y-78700000D02*
X207000000Y-78200000D01*
X207000000Y-78200000D02*
X201500000Y-78200000D01*
X201500000Y-78200000D02*
X201500000Y-78700000D01*
X201500000Y-76200000D02*
X207000000Y-76200000D01*
X207000000Y-76200000D02*
X207000000Y-75700000D01*
X207000000Y-75700000D02*
X201500000Y-75700000D01*
X201500000Y-75700000D02*
X201500000Y-76200000D01*
X201500000Y-73700000D02*
X207000000Y-73700000D01*
X207000000Y-73700000D02*
X207000000Y-73200000D01*
X207000000Y-73200000D02*
X201500000Y-73200000D01*
X201500000Y-73200000D02*
X201500000Y-73700000D01*
X201500000Y-71200000D02*
X207000000Y-71200000D01*
X207000000Y-71200000D02*
X207000000Y-70700000D01*
X207000000Y-70700000D02*
X201500000Y-70700000D01*
X201500000Y-70700000D02*
X201500000Y-71200000D01*
X201500000Y-68700000D02*
X207000000Y-68700000D01*
X207000000Y-68700000D02*
X207000000Y-68200000D01*
X207000000Y-68200000D02*
X201500000Y-68200000D01*
X201500000Y-68200000D02*
X201500000Y-68700000D01*
X198400000Y-78450000D02*
X197800000Y-78750000D01*
X197800000Y-78750000D02*
X197800000Y-78150000D01*
X197800000Y-78150000D02*
X198400000Y-78450000D01*
D12*
X156735000Y-103950000D02*
X123080000Y-103950000D01*
X156735000Y-117920000D02*
X156735000Y-103950000D01*
X123080000Y-117920000D02*
X156735000Y-117920000D01*
X123080000Y-110935000D02*
X123080000Y-117920000D01*
X123080000Y-110935000D02*
X123080000Y-103950000D01*
D13*
X182528589Y-117941319D02*
X157428589Y-117941319D01*
X182528589Y-117941319D02*
X182528589Y-111641319D01*
X157428589Y-111641319D02*
X157428589Y-117941319D01*
X157428589Y-111641319D02*
X182528589Y-111641319D01*
D12*
X96000000Y-107200000D02*
X117590000Y-107200000D01*
X96000000Y-107200000D02*
G75*
G02X93460000Y-104660000I0J2540000D01*
G01*
X121400000Y-104660000D02*
G75*
G02X118860000Y-107200000I-2540000J0D01*
G01*
X117590000Y-107200000D02*
X118860000Y-107200000D01*
X121400000Y-104660000D02*
X121400000Y-81800000D01*
X118860000Y-70370000D02*
X96000000Y-70370000D01*
X93460000Y-72910000D02*
G75*
G02X96000000Y-70370000I2540000J0D01*
G01*
X118860000Y-70370000D02*
G75*
G02X121400000Y-72910000I0J-2540000D01*
G01*
X121400000Y-81800000D02*
X121400000Y-72910000D01*
X93460000Y-104660000D02*
X93460000Y-72910000D01*
X122100000Y-102660000D02*
X122100000Y-82340000D01*
X122100000Y-102660000D02*
X170360000Y-102660000D01*
X122100000Y-82340000D02*
X170360000Y-82340000D01*
X172900000Y-101390000D02*
X172900000Y-83610000D01*
X170360000Y-102660000D02*
X172900000Y-101390000D01*
X170360000Y-82340000D02*
X172900000Y-83610000D01*
D13*
X187323981Y-83522352D02*
X184383981Y-83522352D01*
X184383981Y-83522352D02*
X184383981Y-88962352D01*
X184383981Y-88962352D02*
X187323981Y-88962352D01*
X187323981Y-88962352D02*
X187323981Y-83522352D01*
X185853981Y-82302352D02*
X185853981Y-83522352D01*
X185853981Y-90182352D02*
X185853981Y-88962352D01*
X187323981Y-84422352D02*
X184383981Y-84422352D01*
X187323981Y-84542352D02*
X184383981Y-84542352D01*
X187323981Y-84302352D02*
X184383981Y-84302352D01*
X157450000Y-104950000D02*
X182550000Y-104950000D01*
X157450000Y-104950000D02*
X157450000Y-111250000D01*
X182550000Y-111250000D02*
X182550000Y-104950000D01*
X182550000Y-111250000D02*
X157450000Y-111250000D01*
X170993153Y-116151319D02*
X169789025Y-116151319D01*
X170993153Y-113431319D02*
X169789025Y-113431319D01*
X182030000Y-70450000D02*
X178430000Y-70450000D01*
X182068478Y-70461522D02*
G75*
G02X180230000Y-74900000I-1838478J-1838478D01*
G01*
X178391522Y-70461522D02*
G75*
G03X180230000Y-74900000I1838478J-1838478D01*
G01*
X189500000Y-82280000D02*
X189500000Y-83050000D01*
X189500000Y-90360000D02*
X189500000Y-89590000D01*
X188130000Y-83050000D02*
X188130000Y-89590000D01*
X190870000Y-83050000D02*
X188130000Y-83050000D01*
X190870000Y-89590000D02*
X190870000Y-83050000D01*
X188130000Y-89590000D02*
X190870000Y-89590000D01*
X173830000Y-89090000D02*
X176570000Y-89090000D01*
X176570000Y-89090000D02*
X176570000Y-82550000D01*
X176570000Y-82550000D02*
X173830000Y-82550000D01*
X173830000Y-82550000D02*
X173830000Y-89090000D01*
X175200000Y-89860000D02*
X175200000Y-89090000D01*
X175200000Y-81780000D02*
X175200000Y-82550000D01*
X183790000Y-78670000D02*
X183790000Y-75930000D01*
X183790000Y-75930000D02*
X177250000Y-75930000D01*
X177250000Y-75930000D02*
X177250000Y-78670000D01*
X177250000Y-78670000D02*
X183790000Y-78670000D01*
X184560000Y-77300000D02*
X183790000Y-77300000D01*
X176480000Y-77300000D02*
X177250000Y-77300000D01*
X176280000Y-67800000D02*
X177050000Y-67800000D01*
X184360000Y-67800000D02*
X183590000Y-67800000D01*
X177050000Y-69170000D02*
X183590000Y-69170000D01*
X177050000Y-66430000D02*
X177050000Y-69170000D01*
X183590000Y-66430000D02*
X177050000Y-66430000D01*
X183590000Y-69170000D02*
X183590000Y-66430000D01*
D12*
X191335000Y-105165000D02*
X191335000Y-98180000D01*
X191335000Y-98180000D02*
X183715000Y-98180000D01*
X183715000Y-98180000D02*
X183715000Y-112150000D01*
X183715000Y-112150000D02*
X191335000Y-112150000D01*
X191335000Y-112150000D02*
X191335000Y-105165000D01*
X143065000Y-65255000D02*
X124015000Y-65255000D01*
X122110000Y-67160000D02*
X122110000Y-79225000D01*
X144970000Y-79225000D02*
X144970000Y-67160000D01*
X143065000Y-65255000D02*
G75*
G02X144970000Y-67160000I0J-1905000D01*
G01*
X122110000Y-67160000D02*
G75*
G02X124015000Y-65255000I1905000J0D01*
G01*
X124015000Y-81130000D02*
G75*
G02X122110000Y-79225000I0J1905000D01*
G01*
X144970000Y-79225000D02*
G75*
G02X143065000Y-81130000I-1905000J0D01*
G01*
X143065000Y-81130000D02*
X124015000Y-81130000D01*
D13*
X177870000Y-84590000D02*
G75*
G02X177870000Y-86590000I0J-1000000D01*
G01*
X177870000Y-86590000D02*
X177870000Y-88240000D01*
X177870000Y-88240000D02*
X183070000Y-88240000D01*
X183070000Y-88240000D02*
X183070000Y-82940000D01*
X183070000Y-82940000D02*
X177870000Y-82940000D01*
X177870000Y-82940000D02*
X177870000Y-84590000D01*
X177810000Y-90730000D02*
X183130000Y-90730000D01*
X183130000Y-90730000D02*
X183130000Y-80450000D01*
X183130000Y-80450000D02*
X177810000Y-80450000D01*
X177810000Y-80450000D02*
X177810000Y-90730000D01*
X170814564Y-109460000D02*
X169610436Y-109460000D01*
X170814564Y-106740000D02*
X169610436Y-106740000D01*
X183280000Y-93630000D02*
X191520000Y-93630000D01*
X183280000Y-96370000D02*
X191520000Y-96370000D01*
X183280000Y-93630000D02*
X183280000Y-96370000D01*
X191520000Y-93630000D02*
X191520000Y-96370000D01*
X175200000Y-94180000D02*
X175200000Y-94950000D01*
X175200000Y-102260000D02*
X175200000Y-101490000D01*
X173830000Y-94950000D02*
X173830000Y-101490000D01*
X176570000Y-94950000D02*
X173830000Y-94950000D01*
X176570000Y-101490000D02*
X176570000Y-94950000D01*
X173830000Y-101490000D02*
X176570000Y-101490000D01*
X179770000Y-94910000D02*
X177030000Y-94910000D01*
X177030000Y-94910000D02*
X177030000Y-101450000D01*
X177030000Y-101450000D02*
X179770000Y-101450000D01*
X179770000Y-101450000D02*
X179770000Y-94910000D01*
X178400000Y-94140000D02*
X178400000Y-94910000D01*
X178400000Y-102220000D02*
X178400000Y-101450000D01*
X182640000Y-95990000D02*
X182770000Y-95990000D01*
X182770000Y-95990000D02*
X182770000Y-101430000D01*
X182770000Y-101430000D02*
X182640000Y-101430000D01*
X179960000Y-95990000D02*
X179830000Y-95990000D01*
X179830000Y-95990000D02*
X179830000Y-101430000D01*
X179830000Y-101430000D02*
X179960000Y-101430000D01*
X182770000Y-96890000D02*
X179830000Y-96890000D01*
X182770000Y-97010000D02*
X179830000Y-97010000D01*
X182770000Y-96770000D02*
X179830000Y-96770000D01*
X207560000Y-92900000D02*
X207560000Y-99210000D01*
X207560000Y-99210000D02*
X195840000Y-99210000D01*
X195840000Y-99210000D02*
X195840000Y-97790000D01*
X195840000Y-97790000D02*
X200340000Y-97790000D01*
X207560000Y-92900000D02*
X207560000Y-86590000D01*
X207560000Y-86590000D02*
X195840000Y-86590000D01*
X195840000Y-86590000D02*
X195840000Y-88010000D01*
X195840000Y-88010000D02*
X200340000Y-88010000D01*
X201450000Y-96900000D02*
X206950000Y-96900000D01*
X206950000Y-96900000D02*
X206950000Y-96400000D01*
X206950000Y-96400000D02*
X201450000Y-96400000D01*
X201450000Y-96400000D02*
X201450000Y-96900000D01*
X201450000Y-94400000D02*
X206950000Y-94400000D01*
X206950000Y-94400000D02*
X206950000Y-93900000D01*
X206950000Y-93900000D02*
X201450000Y-93900000D01*
X201450000Y-93900000D02*
X201450000Y-94400000D01*
X201450000Y-91900000D02*
X206950000Y-91900000D01*
X206950000Y-91900000D02*
X206950000Y-91400000D01*
X206950000Y-91400000D02*
X201450000Y-91400000D01*
X201450000Y-91400000D02*
X201450000Y-91900000D01*
X201450000Y-89400000D02*
X206950000Y-89400000D01*
X206950000Y-89400000D02*
X206950000Y-88900000D01*
X206950000Y-88900000D02*
X201450000Y-88900000D01*
X201450000Y-88900000D02*
X201450000Y-89400000D01*
X198350000Y-96650000D02*
X197750000Y-96950000D01*
X197750000Y-96950000D02*
X197750000Y-96350000D01*
X197750000Y-96350000D02*
X198350000Y-96650000D01*
X207310000Y-109100000D02*
X207310000Y-114160000D01*
X207310000Y-114160000D02*
X195590000Y-114160000D01*
X195590000Y-114160000D02*
X195590000Y-112740000D01*
X195590000Y-112740000D02*
X200090000Y-112740000D01*
X207310000Y-109100000D02*
X207310000Y-104040000D01*
X207310000Y-104040000D02*
X195590000Y-104040000D01*
X195590000Y-104040000D02*
X195590000Y-105460000D01*
X195590000Y-105460000D02*
X200090000Y-105460000D01*
X201200000Y-111850000D02*
X206700000Y-111850000D01*
X206700000Y-111850000D02*
X206700000Y-111350000D01*
X206700000Y-111350000D02*
X201200000Y-111350000D01*
X201200000Y-111350000D02*
X201200000Y-111850000D01*
X201200000Y-109350000D02*
X206700000Y-109350000D01*
X206700000Y-109350000D02*
X206700000Y-108850000D01*
X206700000Y-108850000D02*
X201200000Y-108850000D01*
X201200000Y-108850000D02*
X201200000Y-109350000D01*
X201200000Y-106850000D02*
X206700000Y-106850000D01*
X206700000Y-106850000D02*
X206700000Y-106350000D01*
X206700000Y-106350000D02*
X201200000Y-106350000D01*
X201200000Y-106350000D02*
X201200000Y-106850000D01*
X198100000Y-111600000D02*
X197500000Y-111900000D01*
X197500000Y-111900000D02*
X197500000Y-111300000D01*
X197500000Y-111300000D02*
X198100000Y-111600000D01*
X112200000Y-119810000D02*
X105890000Y-119810000D01*
X105890000Y-119810000D02*
X105890000Y-108090000D01*
X105890000Y-108090000D02*
X107310000Y-108090000D01*
X107310000Y-108090000D02*
X107310000Y-112590000D01*
X112200000Y-119810000D02*
X118510000Y-119810000D01*
X118510000Y-119810000D02*
X118510000Y-108090000D01*
X118510000Y-108090000D02*
X117090000Y-108090000D01*
X117090000Y-108090000D02*
X117090000Y-112590000D01*
X108200000Y-113700000D02*
X108200000Y-119200000D01*
X108200000Y-119200000D02*
X108700000Y-119200000D01*
X108700000Y-119200000D02*
X108700000Y-113700000D01*
X108700000Y-113700000D02*
X108200000Y-113700000D01*
X110700000Y-113700000D02*
X110700000Y-119200000D01*
X110700000Y-119200000D02*
X111200000Y-119200000D01*
X111200000Y-119200000D02*
X111200000Y-113700000D01*
X111200000Y-113700000D02*
X110700000Y-113700000D01*
X113200000Y-113700000D02*
X113200000Y-119200000D01*
X113200000Y-119200000D02*
X113700000Y-119200000D01*
X113700000Y-119200000D02*
X113700000Y-113700000D01*
X113700000Y-113700000D02*
X113200000Y-113700000D01*
X115700000Y-113700000D02*
X115700000Y-119200000D01*
X115700000Y-119200000D02*
X116200000Y-119200000D01*
X116200000Y-119200000D02*
X116200000Y-113700000D01*
X116200000Y-113700000D02*
X115700000Y-113700000D01*
X108450000Y-110600000D02*
X108150000Y-110000000D01*
X108150000Y-110000000D02*
X108750000Y-110000000D01*
X108750000Y-110000000D02*
X108450000Y-110600000D01*
D12*
X156980296Y-74895399D02*
X156980296Y-75704923D01*
X157027915Y-75800161D01*
X157075534Y-75847780D01*
X157170772Y-75895399D01*
X157361248Y-75895399D01*
X157456486Y-75847780D01*
X157504105Y-75800161D01*
X157551724Y-75704923D01*
X157551724Y-74895399D01*
X157932677Y-74895399D02*
X158551724Y-74895399D01*
X158218391Y-75276352D01*
X158361248Y-75276352D01*
X158456486Y-75323971D01*
X158504105Y-75371590D01*
X158551724Y-75466828D01*
X158551724Y-75704923D01*
X158504105Y-75800161D01*
X158456486Y-75847780D01*
X158361248Y-75895399D01*
X158075534Y-75895399D01*
X157980296Y-75847780D01*
X157932677Y-75800161D01*
X148669581Y-71148733D02*
X147669581Y-71148733D01*
X148669581Y-70577304D01*
X147669581Y-70577304D01*
X148574343Y-69529685D02*
X148621962Y-69577304D01*
X148669581Y-69720161D01*
X148669581Y-69815399D01*
X148621962Y-69958257D01*
X148526724Y-70053495D01*
X148431486Y-70101114D01*
X148241010Y-70148733D01*
X148098153Y-70148733D01*
X147907677Y-70101114D01*
X147812439Y-70053495D01*
X147717201Y-69958257D01*
X147669581Y-69815399D01*
X147669581Y-69720161D01*
X147717201Y-69577304D01*
X147764820Y-69529685D01*
X151161962Y-70648733D02*
X151209581Y-70505876D01*
X151209581Y-70267780D01*
X151161962Y-70172542D01*
X151114343Y-70124923D01*
X151019105Y-70077304D01*
X150923867Y-70077304D01*
X150828629Y-70124923D01*
X150781010Y-70172542D01*
X150733391Y-70267780D01*
X150685772Y-70458257D01*
X150638153Y-70553495D01*
X150590534Y-70601114D01*
X150495296Y-70648733D01*
X150400058Y-70648733D01*
X150304820Y-70601114D01*
X150257201Y-70553495D01*
X150209581Y-70458257D01*
X150209581Y-70220161D01*
X150257201Y-70077304D01*
X153654343Y-72045638D02*
X153701962Y-72093257D01*
X153749581Y-72236114D01*
X153749581Y-72331352D01*
X153701962Y-72474209D01*
X153606724Y-72569447D01*
X153511486Y-72617066D01*
X153321010Y-72664685D01*
X153178153Y-72664685D01*
X152987677Y-72617066D01*
X152892439Y-72569447D01*
X152797201Y-72474209D01*
X152749581Y-72331352D01*
X152749581Y-72236114D01*
X152797201Y-72093257D01*
X152844820Y-72045638D01*
X153463867Y-71664685D02*
X153463867Y-71188495D01*
X153749581Y-71759923D02*
X152749581Y-71426590D01*
X153749581Y-71093257D01*
X153749581Y-70759923D02*
X152749581Y-70759923D01*
X153749581Y-70188495D01*
X152749581Y-70188495D01*
X153749581Y-69236114D02*
X153749581Y-69712304D01*
X152749581Y-69712304D01*
X156194343Y-72164685D02*
X156241962Y-72212304D01*
X156289581Y-72355161D01*
X156289581Y-72450399D01*
X156241962Y-72593257D01*
X156146724Y-72688495D01*
X156051486Y-72736114D01*
X155861010Y-72783733D01*
X155718153Y-72783733D01*
X155527677Y-72736114D01*
X155432439Y-72688495D01*
X155337201Y-72593257D01*
X155289581Y-72450399D01*
X155289581Y-72355161D01*
X155337201Y-72212304D01*
X155384820Y-72164685D01*
X156003867Y-71783733D02*
X156003867Y-71307542D01*
X156289581Y-71878971D02*
X155289581Y-71545638D01*
X156289581Y-71212304D01*
X156289581Y-70878971D02*
X155289581Y-70878971D01*
X156289581Y-70307542D01*
X155289581Y-70307542D01*
X156289581Y-69831352D02*
X155289581Y-69831352D01*
X155765772Y-69831352D02*
X155765772Y-69259923D01*
X156289581Y-69259923D02*
X155289581Y-69259923D01*
X158734343Y-71029685D02*
X158781962Y-71077304D01*
X158829581Y-71220161D01*
X158829581Y-71315399D01*
X158781962Y-71458257D01*
X158686724Y-71553495D01*
X158591486Y-71601114D01*
X158401010Y-71648733D01*
X158258153Y-71648733D01*
X158067677Y-71601114D01*
X157972439Y-71553495D01*
X157877201Y-71458257D01*
X157829581Y-71315399D01*
X157829581Y-71220161D01*
X157877201Y-71077304D01*
X157924820Y-71029685D01*
X158829581Y-70029685D02*
X158353391Y-70363019D01*
X158829581Y-70601114D02*
X157829581Y-70601114D01*
X157829581Y-70220161D01*
X157877201Y-70124923D01*
X157924820Y-70077304D01*
X158020058Y-70029685D01*
X158162915Y-70029685D01*
X158258153Y-70077304D01*
X158305772Y-70124923D01*
X158353391Y-70220161D01*
X158353391Y-70601114D01*
X157829581Y-69696352D02*
X158829581Y-69029685D01*
X157829581Y-69029685D02*
X158829581Y-69696352D01*
X161274343Y-70910638D02*
X161321962Y-70958257D01*
X161369581Y-71101114D01*
X161369581Y-71196352D01*
X161321962Y-71339209D01*
X161226724Y-71434447D01*
X161131486Y-71482066D01*
X160941010Y-71529685D01*
X160798153Y-71529685D01*
X160607677Y-71482066D01*
X160512439Y-71434447D01*
X160417201Y-71339209D01*
X160369581Y-71196352D01*
X160369581Y-71101114D01*
X160417201Y-70958257D01*
X160464820Y-70910638D01*
X160369581Y-70624923D02*
X160369581Y-70053495D01*
X161369581Y-70339209D02*
X160369581Y-70339209D01*
X160369581Y-69815399D02*
X161369581Y-69148733D01*
X160369581Y-69148733D02*
X161369581Y-69815399D01*
X162957201Y-71124923D02*
X162909581Y-71220161D01*
X162909581Y-71363019D01*
X162957201Y-71505876D01*
X163052439Y-71601114D01*
X163147677Y-71648733D01*
X163338153Y-71696352D01*
X163481010Y-71696352D01*
X163671486Y-71648733D01*
X163766724Y-71601114D01*
X163861962Y-71505876D01*
X163909581Y-71363019D01*
X163909581Y-71267780D01*
X163861962Y-71124923D01*
X163814343Y-71077304D01*
X163481010Y-71077304D01*
X163481010Y-71267780D01*
X163909581Y-70648733D02*
X162909581Y-70648733D01*
X163909581Y-70077304D01*
X162909581Y-70077304D01*
X163909581Y-69601114D02*
X162909581Y-69601114D01*
X162909581Y-69363019D01*
X162957201Y-69220161D01*
X163052439Y-69124923D01*
X163147677Y-69077304D01*
X163338153Y-69029685D01*
X163481010Y-69029685D01*
X163671486Y-69077304D01*
X163766724Y-69124923D01*
X163861962Y-69220161D01*
X163909581Y-69363019D01*
X163909581Y-69601114D01*
X165449581Y-71696352D02*
X166449581Y-71363019D01*
X165449581Y-71029685D01*
X166354343Y-70124923D02*
X166401962Y-70172542D01*
X166449581Y-70315399D01*
X166449581Y-70410638D01*
X166401962Y-70553495D01*
X166306724Y-70648733D01*
X166211486Y-70696352D01*
X166021010Y-70743971D01*
X165878153Y-70743971D01*
X165687677Y-70696352D01*
X165592439Y-70648733D01*
X165497201Y-70553495D01*
X165449581Y-70410638D01*
X165449581Y-70315399D01*
X165497201Y-70172542D01*
X165544820Y-70124923D01*
X166354343Y-69124923D02*
X166401962Y-69172542D01*
X166449581Y-69315399D01*
X166449581Y-69410638D01*
X166401962Y-69553495D01*
X166306724Y-69648733D01*
X166211486Y-69696352D01*
X166021010Y-69743971D01*
X165878153Y-69743971D01*
X165687677Y-69696352D01*
X165592439Y-69648733D01*
X165497201Y-69553495D01*
X165449581Y-69410638D01*
X165449581Y-69315399D01*
X165497201Y-69172542D01*
X165544820Y-69124923D01*
X152908867Y-77070161D02*
X152861248Y-77117780D01*
X152718391Y-77165399D01*
X152623153Y-77165399D01*
X152480296Y-77117780D01*
X152385058Y-77022542D01*
X152337439Y-76927304D01*
X152289820Y-76736828D01*
X152289820Y-76593971D01*
X152337439Y-76403495D01*
X152385058Y-76308257D01*
X152480296Y-76213019D01*
X152623153Y-76165399D01*
X152718391Y-76165399D01*
X152861248Y-76213019D01*
X152908867Y-76260638D01*
X153289820Y-76879685D02*
X153766010Y-76879685D01*
X153194581Y-77165399D02*
X153527915Y-76165399D01*
X153861248Y-77165399D01*
X154194581Y-77165399D02*
X154194581Y-76165399D01*
X154766010Y-77165399D01*
X154766010Y-76165399D01*
X155861248Y-76165399D02*
X156432677Y-76165399D01*
X156146962Y-77165399D02*
X156146962Y-76165399D01*
X156766010Y-77165399D02*
X156766010Y-76498733D01*
X156766010Y-76689209D02*
X156813629Y-76593971D01*
X156861248Y-76546352D01*
X156956486Y-76498733D01*
X157051724Y-76498733D01*
X157813629Y-77165399D02*
X157813629Y-76641590D01*
X157766010Y-76546352D01*
X157670772Y-76498733D01*
X157480296Y-76498733D01*
X157385058Y-76546352D01*
X157813629Y-77117780D02*
X157718391Y-77165399D01*
X157480296Y-77165399D01*
X157385058Y-77117780D01*
X157337439Y-77022542D01*
X157337439Y-76927304D01*
X157385058Y-76832066D01*
X157480296Y-76784447D01*
X157718391Y-76784447D01*
X157813629Y-76736828D01*
X158289820Y-76498733D02*
X158289820Y-77165399D01*
X158289820Y-76593971D02*
X158337439Y-76546352D01*
X158432677Y-76498733D01*
X158575534Y-76498733D01*
X158670772Y-76546352D01*
X158718391Y-76641590D01*
X158718391Y-77165399D01*
X159623153Y-77117780D02*
X159527915Y-77165399D01*
X159337439Y-77165399D01*
X159242201Y-77117780D01*
X159194581Y-77070161D01*
X159146962Y-76974923D01*
X159146962Y-76689209D01*
X159194581Y-76593971D01*
X159242201Y-76546352D01*
X159337439Y-76498733D01*
X159527915Y-76498733D01*
X159623153Y-76546352D01*
X160432677Y-77117780D02*
X160337439Y-77165399D01*
X160146962Y-77165399D01*
X160051724Y-77117780D01*
X160004105Y-77022542D01*
X160004105Y-76641590D01*
X160051724Y-76546352D01*
X160146962Y-76498733D01*
X160337439Y-76498733D01*
X160432677Y-76546352D01*
X160480296Y-76641590D01*
X160480296Y-76736828D01*
X160004105Y-76832066D01*
X160908867Y-77165399D02*
X160908867Y-76498733D01*
X160908867Y-76165399D02*
X160861248Y-76213019D01*
X160908867Y-76260638D01*
X160956486Y-76213019D01*
X160908867Y-76165399D01*
X160908867Y-76260638D01*
X161289820Y-76498733D02*
X161527915Y-77165399D01*
X161766010Y-76498733D01*
X162527915Y-77117780D02*
X162432677Y-77165399D01*
X162242201Y-77165399D01*
X162146962Y-77117780D01*
X162099343Y-77022542D01*
X162099343Y-76641590D01*
X162146962Y-76546352D01*
X162242201Y-76498733D01*
X162432677Y-76498733D01*
X162527915Y-76546352D01*
X162575534Y-76641590D01*
X162575534Y-76736828D01*
X162099343Y-76832066D01*
X163004105Y-77165399D02*
X163004105Y-76498733D01*
X163004105Y-76689209D02*
X163051724Y-76593971D01*
X163099343Y-76546352D01*
X163194581Y-76498733D01*
X163289820Y-76498733D01*
X196752380Y-73883333D02*
X197466666Y-73883333D01*
X197609523Y-73930952D01*
X197704761Y-74026190D01*
X197752380Y-74169047D01*
X197752380Y-74264285D01*
X196752380Y-73502380D02*
X196752380Y-72883333D01*
X197133333Y-73216666D01*
X197133333Y-73073809D01*
X197180952Y-72978571D01*
X197228571Y-72930952D01*
X197323809Y-72883333D01*
X197561904Y-72883333D01*
X197657142Y-72930952D01*
X197704761Y-72978571D01*
X197752380Y-73073809D01*
X197752380Y-73359523D01*
X197704761Y-73454761D01*
X197657142Y-73502380D01*
X141368095Y-108482380D02*
X141368095Y-109291904D01*
X141415714Y-109387142D01*
X141463333Y-109434761D01*
X141558571Y-109482380D01*
X141749047Y-109482380D01*
X141844285Y-109434761D01*
X141891904Y-109387142D01*
X141939523Y-109291904D01*
X141939523Y-108482380D01*
X142844285Y-108482380D02*
X142653809Y-108482380D01*
X142558571Y-108530000D01*
X142510952Y-108577619D01*
X142415714Y-108720476D01*
X142368095Y-108910952D01*
X142368095Y-109291904D01*
X142415714Y-109387142D01*
X142463333Y-109434761D01*
X142558571Y-109482380D01*
X142749047Y-109482380D01*
X142844285Y-109434761D01*
X142891904Y-109387142D01*
X142939523Y-109291904D01*
X142939523Y-109053809D01*
X142891904Y-108958571D01*
X142844285Y-108910952D01*
X142749047Y-108863333D01*
X142558571Y-108863333D01*
X142463333Y-108910952D01*
X142415714Y-108958571D01*
X142368095Y-109053809D01*
X137201428Y-111974761D02*
X137344285Y-112022380D01*
X137582380Y-112022380D01*
X137677619Y-111974761D01*
X137725238Y-111927142D01*
X137772857Y-111831904D01*
X137772857Y-111736666D01*
X137725238Y-111641428D01*
X137677619Y-111593809D01*
X137582380Y-111546190D01*
X137391904Y-111498571D01*
X137296666Y-111450952D01*
X137249047Y-111403333D01*
X137201428Y-111308095D01*
X137201428Y-111212857D01*
X137249047Y-111117619D01*
X137296666Y-111070000D01*
X137391904Y-111022380D01*
X137630000Y-111022380D01*
X137772857Y-111070000D01*
X138201428Y-112022380D02*
X138201428Y-111022380D01*
X138630000Y-112022380D02*
X138630000Y-111498571D01*
X138582380Y-111403333D01*
X138487142Y-111355714D01*
X138344285Y-111355714D01*
X138249047Y-111403333D01*
X138201428Y-111450952D01*
X139249047Y-112022380D02*
X139153809Y-111974761D01*
X139106190Y-111927142D01*
X139058571Y-111831904D01*
X139058571Y-111546190D01*
X139106190Y-111450952D01*
X139153809Y-111403333D01*
X139249047Y-111355714D01*
X139391904Y-111355714D01*
X139487142Y-111403333D01*
X139534761Y-111450952D01*
X139582380Y-111546190D01*
X139582380Y-111831904D01*
X139534761Y-111927142D01*
X139487142Y-111974761D01*
X139391904Y-112022380D01*
X139249047Y-112022380D01*
X140439523Y-111974761D02*
X140344285Y-112022380D01*
X140153809Y-112022380D01*
X140058571Y-111974761D01*
X140010952Y-111927142D01*
X139963333Y-111831904D01*
X139963333Y-111546190D01*
X140010952Y-111450952D01*
X140058571Y-111403333D01*
X140153809Y-111355714D01*
X140344285Y-111355714D01*
X140439523Y-111403333D01*
X140868095Y-112022380D02*
X140868095Y-111022380D01*
X140963333Y-111641428D02*
X141249047Y-112022380D01*
X141249047Y-111355714D02*
X140868095Y-111736666D01*
X142391904Y-111974761D02*
X142534761Y-112022380D01*
X142772857Y-112022380D01*
X142868095Y-111974761D01*
X142915714Y-111927142D01*
X142963333Y-111831904D01*
X142963333Y-111736666D01*
X142915714Y-111641428D01*
X142868095Y-111593809D01*
X142772857Y-111546190D01*
X142582380Y-111498571D01*
X142487142Y-111450952D01*
X142439523Y-111403333D01*
X142391904Y-111308095D01*
X142391904Y-111212857D01*
X142439523Y-111117619D01*
X142487142Y-111070000D01*
X142582380Y-111022380D01*
X142820476Y-111022380D01*
X142963333Y-111070000D01*
X143772857Y-111974761D02*
X143677619Y-112022380D01*
X143487142Y-112022380D01*
X143391904Y-111974761D01*
X143344285Y-111879523D01*
X143344285Y-111498571D01*
X143391904Y-111403333D01*
X143487142Y-111355714D01*
X143677619Y-111355714D01*
X143772857Y-111403333D01*
X143820476Y-111498571D01*
X143820476Y-111593809D01*
X143344285Y-111689047D01*
X144249047Y-111355714D02*
X144249047Y-112022380D01*
X144249047Y-111450952D02*
X144296666Y-111403333D01*
X144391904Y-111355714D01*
X144534761Y-111355714D01*
X144630000Y-111403333D01*
X144677619Y-111498571D01*
X144677619Y-112022380D01*
X145106190Y-111974761D02*
X145201428Y-112022380D01*
X145391904Y-112022380D01*
X145487142Y-111974761D01*
X145534761Y-111879523D01*
X145534761Y-111831904D01*
X145487142Y-111736666D01*
X145391904Y-111689047D01*
X145249047Y-111689047D01*
X145153809Y-111641428D01*
X145106190Y-111546190D01*
X145106190Y-111498571D01*
X145153809Y-111403333D01*
X145249047Y-111355714D01*
X145391904Y-111355714D01*
X145487142Y-111403333D01*
X146106190Y-112022380D02*
X146010952Y-111974761D01*
X145963333Y-111927142D01*
X145915714Y-111831904D01*
X145915714Y-111546190D01*
X145963333Y-111450952D01*
X146010952Y-111403333D01*
X146106190Y-111355714D01*
X146249047Y-111355714D01*
X146344285Y-111403333D01*
X146391904Y-111450952D01*
X146439523Y-111546190D01*
X146439523Y-111831904D01*
X146391904Y-111927142D01*
X146344285Y-111974761D01*
X146249047Y-112022380D01*
X146106190Y-112022380D01*
X146868095Y-112022380D02*
X146868095Y-111355714D01*
X146868095Y-111546190D02*
X146915714Y-111450952D01*
X146963333Y-111403333D01*
X147058571Y-111355714D01*
X147153809Y-111355714D01*
X127461666Y-112927380D02*
X127795000Y-113927380D01*
X128128333Y-112927380D01*
X129033095Y-113832142D02*
X128985476Y-113879761D01*
X128842619Y-113927380D01*
X128747380Y-113927380D01*
X128604523Y-113879761D01*
X128509285Y-113784523D01*
X128461666Y-113689285D01*
X128414047Y-113498809D01*
X128414047Y-113355952D01*
X128461666Y-113165476D01*
X128509285Y-113070238D01*
X128604523Y-112975000D01*
X128747380Y-112927380D01*
X128842619Y-112927380D01*
X128985476Y-112975000D01*
X129033095Y-113022619D01*
X130033095Y-113832142D02*
X129985476Y-113879761D01*
X129842619Y-113927380D01*
X129747380Y-113927380D01*
X129604523Y-113879761D01*
X129509285Y-113784523D01*
X129461666Y-113689285D01*
X129414047Y-113498809D01*
X129414047Y-113355952D01*
X129461666Y-113165476D01*
X129509285Y-113070238D01*
X129604523Y-112975000D01*
X129747380Y-112927380D01*
X129842619Y-112927380D01*
X129985476Y-112975000D01*
X130033095Y-113022619D01*
X128033095Y-110435000D02*
X127937857Y-110387380D01*
X127795000Y-110387380D01*
X127652142Y-110435000D01*
X127556904Y-110530238D01*
X127509285Y-110625476D01*
X127461666Y-110815952D01*
X127461666Y-110958809D01*
X127509285Y-111149285D01*
X127556904Y-111244523D01*
X127652142Y-111339761D01*
X127795000Y-111387380D01*
X127890238Y-111387380D01*
X128033095Y-111339761D01*
X128080714Y-111292142D01*
X128080714Y-110958809D01*
X127890238Y-110958809D01*
X128509285Y-111387380D02*
X128509285Y-110387380D01*
X129080714Y-111387380D01*
X129080714Y-110387380D01*
X129556904Y-111387380D02*
X129556904Y-110387380D01*
X129795000Y-110387380D01*
X129937857Y-110435000D01*
X130033095Y-110530238D01*
X130080714Y-110625476D01*
X130128333Y-110815952D01*
X130128333Y-110958809D01*
X130080714Y-111149285D01*
X130033095Y-111244523D01*
X129937857Y-111339761D01*
X129795000Y-111387380D01*
X129556904Y-111387380D01*
X127374285Y-108847380D02*
X127374285Y-107847380D01*
X127612380Y-107847380D01*
X127755238Y-107895000D01*
X127850476Y-107990238D01*
X127898095Y-108085476D01*
X127945714Y-108275952D01*
X127945714Y-108418809D01*
X127898095Y-108609285D01*
X127850476Y-108704523D01*
X127755238Y-108799761D01*
X127612380Y-108847380D01*
X127374285Y-108847380D01*
X128564761Y-107847380D02*
X128755238Y-107847380D01*
X128850476Y-107895000D01*
X128945714Y-107990238D01*
X128993333Y-108180714D01*
X128993333Y-108514047D01*
X128945714Y-108704523D01*
X128850476Y-108799761D01*
X128755238Y-108847380D01*
X128564761Y-108847380D01*
X128469523Y-108799761D01*
X128374285Y-108704523D01*
X128326666Y-108514047D01*
X128326666Y-108180714D01*
X128374285Y-107990238D01*
X128469523Y-107895000D01*
X128564761Y-107847380D01*
X168416666Y-117028571D02*
X168083333Y-117028571D01*
X168083333Y-117552380D02*
X168083333Y-116552380D01*
X168559523Y-116552380D01*
X168892857Y-116647619D02*
X168940476Y-116600000D01*
X169035714Y-116552380D01*
X169273809Y-116552380D01*
X169369047Y-116600000D01*
X169416666Y-116647619D01*
X169464285Y-116742857D01*
X169464285Y-116838095D01*
X169416666Y-116980952D01*
X168845238Y-117552380D01*
X169464285Y-117552380D01*
X108152380Y-82561904D02*
X108961904Y-82561904D01*
X109057142Y-82514285D01*
X109104761Y-82466666D01*
X109152380Y-82371428D01*
X109152380Y-82180952D01*
X109104761Y-82085714D01*
X109057142Y-82038095D01*
X108961904Y-81990476D01*
X108152380Y-81990476D01*
X108152380Y-81038095D02*
X108152380Y-81514285D01*
X108628571Y-81561904D01*
X108580952Y-81514285D01*
X108533333Y-81419047D01*
X108533333Y-81180952D01*
X108580952Y-81085714D01*
X108628571Y-81038095D01*
X108723809Y-80990476D01*
X108961904Y-80990476D01*
X109057142Y-81038095D01*
X109104761Y-81085714D01*
X109152380Y-81180952D01*
X109152380Y-81419047D01*
X109104761Y-81514285D01*
X109057142Y-81561904D01*
X106961666Y-95229285D02*
X106961666Y-94753095D01*
X107247380Y-95324523D02*
X106247380Y-94991190D01*
X107247380Y-94657857D01*
X107247380Y-93895952D02*
X106247380Y-93895952D01*
X107199761Y-93895952D02*
X107247380Y-93991190D01*
X107247380Y-94181666D01*
X107199761Y-94276904D01*
X107152142Y-94324523D01*
X107056904Y-94372142D01*
X106771190Y-94372142D01*
X106675952Y-94324523D01*
X106628333Y-94276904D01*
X106580714Y-94181666D01*
X106580714Y-93991190D01*
X106628333Y-93895952D01*
X107247380Y-92991190D02*
X106723571Y-92991190D01*
X106628333Y-93038809D01*
X106580714Y-93134047D01*
X106580714Y-93324523D01*
X106628333Y-93419761D01*
X107199761Y-92991190D02*
X107247380Y-93086428D01*
X107247380Y-93324523D01*
X107199761Y-93419761D01*
X107104523Y-93467380D01*
X107009285Y-93467380D01*
X106914047Y-93419761D01*
X106866428Y-93324523D01*
X106866428Y-93086428D01*
X106818809Y-92991190D01*
X106580714Y-92657857D02*
X106580714Y-92276904D01*
X107247380Y-92515000D02*
X106390238Y-92515000D01*
X106295000Y-92467380D01*
X106247380Y-92372142D01*
X106247380Y-92276904D01*
X107247380Y-91943571D02*
X106580714Y-91943571D01*
X106771190Y-91943571D02*
X106675952Y-91895952D01*
X106628333Y-91848333D01*
X106580714Y-91753095D01*
X106580714Y-91657857D01*
X106580714Y-90895952D02*
X107247380Y-90895952D01*
X106580714Y-91324523D02*
X107104523Y-91324523D01*
X107199761Y-91276904D01*
X107247380Y-91181666D01*
X107247380Y-91038809D01*
X107199761Y-90943571D01*
X107152142Y-90895952D01*
X107247380Y-90419761D02*
X106580714Y-90419761D01*
X106247380Y-90419761D02*
X106295000Y-90467380D01*
X106342619Y-90419761D01*
X106295000Y-90372142D01*
X106247380Y-90419761D01*
X106342619Y-90419761D01*
X106580714Y-90086428D02*
X106580714Y-89705476D01*
X106247380Y-89943571D02*
X107104523Y-89943571D01*
X107199761Y-89895952D01*
X107247380Y-89800714D01*
X107247380Y-89705476D01*
X106247380Y-88610238D02*
X107056904Y-88610238D01*
X107152142Y-88562619D01*
X107199761Y-88515000D01*
X107247380Y-88419761D01*
X107247380Y-88229285D01*
X107199761Y-88134047D01*
X107152142Y-88086428D01*
X107056904Y-88038809D01*
X106247380Y-88038809D01*
X107247380Y-87419761D02*
X107199761Y-87515000D01*
X107104523Y-87562619D01*
X106247380Y-87562619D01*
X106580714Y-87181666D02*
X106580714Y-86800714D01*
X106247380Y-87038809D02*
X107104523Y-87038809D01*
X107199761Y-86991190D01*
X107247380Y-86895952D01*
X107247380Y-86800714D01*
X107247380Y-86467380D02*
X106580714Y-86467380D01*
X106247380Y-86467380D02*
X106295000Y-86515000D01*
X106342619Y-86467380D01*
X106295000Y-86419761D01*
X106247380Y-86467380D01*
X106342619Y-86467380D01*
X107247380Y-85991190D02*
X106580714Y-85991190D01*
X106675952Y-85991190D02*
X106628333Y-85943571D01*
X106580714Y-85848333D01*
X106580714Y-85705476D01*
X106628333Y-85610238D01*
X106723571Y-85562619D01*
X107247380Y-85562619D01*
X106723571Y-85562619D02*
X106628333Y-85515000D01*
X106580714Y-85419761D01*
X106580714Y-85276904D01*
X106628333Y-85181666D01*
X106723571Y-85134047D01*
X107247380Y-85134047D01*
X107247380Y-84229285D02*
X106723571Y-84229285D01*
X106628333Y-84276904D01*
X106580714Y-84372142D01*
X106580714Y-84562619D01*
X106628333Y-84657857D01*
X107199761Y-84229285D02*
X107247380Y-84324523D01*
X107247380Y-84562619D01*
X107199761Y-84657857D01*
X107104523Y-84705476D01*
X107009285Y-84705476D01*
X106914047Y-84657857D01*
X106866428Y-84562619D01*
X106866428Y-84324523D01*
X106818809Y-84229285D01*
X106580714Y-83895952D02*
X106580714Y-83515000D01*
X106247380Y-83753095D02*
X107104523Y-83753095D01*
X107199761Y-83705476D01*
X107247380Y-83610238D01*
X107247380Y-83515000D01*
X107199761Y-82800714D02*
X107247380Y-82895952D01*
X107247380Y-83086428D01*
X107199761Y-83181666D01*
X107104523Y-83229285D01*
X106723571Y-83229285D01*
X106628333Y-83181666D01*
X106580714Y-83086428D01*
X106580714Y-82895952D01*
X106628333Y-82800714D01*
X106723571Y-82753095D01*
X106818809Y-82753095D01*
X106914047Y-83229285D01*
X106295000Y-81800714D02*
X106247380Y-81895952D01*
X106247380Y-82038809D01*
X106295000Y-82181666D01*
X106390238Y-82276904D01*
X106485476Y-82324523D01*
X106675952Y-82372142D01*
X106818809Y-82372142D01*
X107009285Y-82324523D01*
X107104523Y-82276904D01*
X107199761Y-82181666D01*
X107247380Y-82038809D01*
X107247380Y-81943571D01*
X107199761Y-81800714D01*
X107152142Y-81753095D01*
X106818809Y-81753095D01*
X106818809Y-81943571D01*
X107247380Y-81324523D02*
X106247380Y-81324523D01*
X106247380Y-80943571D01*
X106295000Y-80848333D01*
X106342619Y-80800714D01*
X106437857Y-80753095D01*
X106580714Y-80753095D01*
X106675952Y-80800714D01*
X106723571Y-80848333D01*
X106771190Y-80943571D01*
X106771190Y-81324523D01*
X107199761Y-80372142D02*
X107247380Y-80229285D01*
X107247380Y-79991190D01*
X107199761Y-79895952D01*
X107152142Y-79848333D01*
X107056904Y-79800714D01*
X106961666Y-79800714D01*
X106866428Y-79848333D01*
X106818809Y-79895952D01*
X106771190Y-79991190D01*
X106723571Y-80181666D01*
X106675952Y-80276904D01*
X106628333Y-80324523D01*
X106533095Y-80372142D01*
X106437857Y-80372142D01*
X106342619Y-80324523D01*
X106295000Y-80276904D01*
X106247380Y-80181666D01*
X106247380Y-79943571D01*
X106295000Y-79800714D01*
X96722380Y-102088095D02*
X96722380Y-101469047D01*
X97103333Y-101802380D01*
X97103333Y-101659523D01*
X97150952Y-101564285D01*
X97198571Y-101516666D01*
X97293809Y-101469047D01*
X97531904Y-101469047D01*
X97627142Y-101516666D01*
X97674761Y-101564285D01*
X97722380Y-101659523D01*
X97722380Y-101945238D01*
X97674761Y-102040476D01*
X97627142Y-102088095D01*
X96722380Y-101183333D02*
X97722380Y-100850000D01*
X96722380Y-100516666D01*
X96722380Y-100278571D02*
X96722380Y-99659523D01*
X97103333Y-99992857D01*
X97103333Y-99850000D01*
X97150952Y-99754761D01*
X97198571Y-99707142D01*
X97293809Y-99659523D01*
X97531904Y-99659523D01*
X97627142Y-99707142D01*
X97674761Y-99754761D01*
X97722380Y-99850000D01*
X97722380Y-100135714D01*
X97674761Y-100230952D01*
X97627142Y-100278571D01*
X99738571Y-101588095D02*
X99738571Y-101254761D01*
X100262380Y-101111904D02*
X100262380Y-101588095D01*
X99262380Y-101588095D01*
X99262380Y-101111904D01*
X100262380Y-100683333D02*
X99262380Y-100683333D01*
X100262380Y-100111904D01*
X99262380Y-100111904D01*
X101802380Y-102492857D02*
X102802380Y-102159523D01*
X101802380Y-101826190D01*
X102278571Y-101159523D02*
X102326190Y-101016666D01*
X102373809Y-100969047D01*
X102469047Y-100921428D01*
X102611904Y-100921428D01*
X102707142Y-100969047D01*
X102754761Y-101016666D01*
X102802380Y-101111904D01*
X102802380Y-101492857D01*
X101802380Y-101492857D01*
X101802380Y-101159523D01*
X101850000Y-101064285D01*
X101897619Y-101016666D01*
X101992857Y-100969047D01*
X102088095Y-100969047D01*
X102183333Y-101016666D01*
X102230952Y-101064285D01*
X102278571Y-101159523D01*
X102278571Y-101492857D01*
X102516666Y-100540476D02*
X102516666Y-100064285D01*
X102802380Y-100635714D02*
X101802380Y-100302380D01*
X102802380Y-99969047D01*
X101802380Y-99778571D02*
X101802380Y-99207142D01*
X102802380Y-99492857D02*
X101802380Y-99492857D01*
X104818571Y-101421428D02*
X104818571Y-101754761D01*
X105342380Y-101754761D02*
X104342380Y-101754761D01*
X104342380Y-101278571D01*
X105342380Y-100897619D02*
X104342380Y-100897619D01*
X104342380Y-100516666D02*
X105342380Y-99850000D01*
X104342380Y-99850000D02*
X105342380Y-100516666D01*
X106882380Y-101611904D02*
X106882380Y-101040476D01*
X107882380Y-101326190D02*
X106882380Y-101326190D01*
X106882380Y-100802380D02*
X107882380Y-100135714D01*
X106882380Y-100135714D02*
X107882380Y-100802380D01*
X110422380Y-101016666D02*
X109946190Y-101350000D01*
X110422380Y-101588095D02*
X109422380Y-101588095D01*
X109422380Y-101207142D01*
X109470000Y-101111904D01*
X109517619Y-101064285D01*
X109612857Y-101016666D01*
X109755714Y-101016666D01*
X109850952Y-101064285D01*
X109898571Y-101111904D01*
X109946190Y-101207142D01*
X109946190Y-101588095D01*
X109422380Y-100683333D02*
X110422380Y-100016666D01*
X109422380Y-100016666D02*
X110422380Y-100683333D01*
X112010000Y-101611904D02*
X111962380Y-101707142D01*
X111962380Y-101850000D01*
X112010000Y-101992857D01*
X112105238Y-102088095D01*
X112200476Y-102135714D01*
X112390952Y-102183333D01*
X112533809Y-102183333D01*
X112724285Y-102135714D01*
X112819523Y-102088095D01*
X112914761Y-101992857D01*
X112962380Y-101850000D01*
X112962380Y-101754761D01*
X112914761Y-101611904D01*
X112867142Y-101564285D01*
X112533809Y-101564285D01*
X112533809Y-101754761D01*
X112962380Y-101135714D02*
X111962380Y-101135714D01*
X112962380Y-100564285D01*
X111962380Y-100564285D01*
X112962380Y-100088095D02*
X111962380Y-100088095D01*
X111962380Y-99850000D01*
X112010000Y-99707142D01*
X112105238Y-99611904D01*
X112200476Y-99564285D01*
X112390952Y-99516666D01*
X112533809Y-99516666D01*
X112724285Y-99564285D01*
X112819523Y-99611904D01*
X112914761Y-99707142D01*
X112962380Y-99850000D01*
X112962380Y-100088095D01*
X114502380Y-101945238D02*
X115502380Y-101611904D01*
X114502380Y-101278571D01*
X115502380Y-100945238D02*
X114502380Y-100945238D01*
X115502380Y-100469047D02*
X114502380Y-100469047D01*
X115502380Y-99897619D01*
X114502380Y-99897619D01*
X118042380Y-102088095D02*
X117042380Y-102088095D01*
X117042380Y-101707142D01*
X117090000Y-101611904D01*
X117137619Y-101564285D01*
X117232857Y-101516666D01*
X117375714Y-101516666D01*
X117470952Y-101564285D01*
X117518571Y-101611904D01*
X117566190Y-101707142D01*
X117566190Y-102088095D01*
X118042380Y-101088095D02*
X117042380Y-101088095D01*
X117042380Y-100707142D01*
X117090000Y-100611904D01*
X117137619Y-100564285D01*
X117232857Y-100516666D01*
X117375714Y-100516666D01*
X117470952Y-100564285D01*
X117518571Y-100611904D01*
X117566190Y-100707142D01*
X117566190Y-101088095D01*
X117994761Y-100135714D02*
X118042380Y-99992857D01*
X118042380Y-99754761D01*
X117994761Y-99659523D01*
X117947142Y-99611904D01*
X117851904Y-99564285D01*
X117756666Y-99564285D01*
X117661428Y-99611904D01*
X117613809Y-99659523D01*
X117566190Y-99754761D01*
X117518571Y-99945238D01*
X117470952Y-100040476D01*
X117423333Y-100088095D01*
X117328095Y-100135714D01*
X117232857Y-100135714D01*
X117137619Y-100088095D01*
X117090000Y-100040476D01*
X117042380Y-99945238D01*
X117042380Y-99707142D01*
X117090000Y-99564285D01*
X96166666Y-71752380D02*
X95833333Y-71276190D01*
X95595238Y-71752380D02*
X95595238Y-70752380D01*
X95976190Y-70752380D01*
X96071428Y-70800000D01*
X96119047Y-70847619D01*
X96166666Y-70942857D01*
X96166666Y-71085714D01*
X96119047Y-71180952D01*
X96071428Y-71228571D01*
X95976190Y-71276190D01*
X95595238Y-71276190D01*
X96595238Y-71228571D02*
X96928571Y-71228571D01*
X97071428Y-71752380D02*
X96595238Y-71752380D01*
X96595238Y-70752380D01*
X97071428Y-70752380D01*
X97833333Y-71228571D02*
X97500000Y-71228571D01*
X97500000Y-71752380D02*
X97500000Y-70752380D01*
X97976190Y-70752380D01*
X98500000Y-70752380D02*
X98500000Y-70990476D01*
X98261904Y-70895238D02*
X98500000Y-70990476D01*
X98738095Y-70895238D01*
X98357142Y-71180952D02*
X98500000Y-70990476D01*
X98642857Y-71180952D01*
X99261904Y-70752380D02*
X99261904Y-70990476D01*
X99023809Y-70895238D02*
X99261904Y-70990476D01*
X99500000Y-70895238D01*
X99119047Y-71180952D02*
X99261904Y-70990476D01*
X99404761Y-71180952D01*
X125362380Y-93261904D02*
X126171904Y-93261904D01*
X126267142Y-93214285D01*
X126314761Y-93166666D01*
X126362380Y-93071428D01*
X126362380Y-92880952D01*
X126314761Y-92785714D01*
X126267142Y-92738095D01*
X126171904Y-92690476D01*
X125362380Y-92690476D01*
X126362380Y-91690476D02*
X126362380Y-92261904D01*
X126362380Y-91976190D02*
X125362380Y-91976190D01*
X125505238Y-92071428D01*
X125600476Y-92166666D01*
X125648095Y-92261904D01*
X128902380Y-98238095D02*
X127902380Y-98238095D01*
X127902380Y-97857142D01*
X127950000Y-97761904D01*
X127997619Y-97714285D01*
X128092857Y-97666666D01*
X128235714Y-97666666D01*
X128330952Y-97714285D01*
X128378571Y-97761904D01*
X128426190Y-97857142D01*
X128426190Y-98238095D01*
X128902380Y-96809523D02*
X128378571Y-96809523D01*
X128283333Y-96857142D01*
X128235714Y-96952380D01*
X128235714Y-97142857D01*
X128283333Y-97238095D01*
X128854761Y-96809523D02*
X128902380Y-96904761D01*
X128902380Y-97142857D01*
X128854761Y-97238095D01*
X128759523Y-97285714D01*
X128664285Y-97285714D01*
X128569047Y-97238095D01*
X128521428Y-97142857D01*
X128521428Y-96904761D01*
X128473809Y-96809523D01*
X128902380Y-96333333D02*
X128235714Y-96333333D01*
X128426190Y-96333333D02*
X128330952Y-96285714D01*
X128283333Y-96238095D01*
X128235714Y-96142857D01*
X128235714Y-96047619D01*
X128235714Y-95857142D02*
X128235714Y-95476190D01*
X127902380Y-95714285D02*
X128759523Y-95714285D01*
X128854761Y-95666666D01*
X128902380Y-95571428D01*
X128902380Y-95476190D01*
X128902380Y-95142857D02*
X128235714Y-95142857D01*
X127902380Y-95142857D02*
X127950000Y-95190476D01*
X127997619Y-95142857D01*
X127950000Y-95095238D01*
X127902380Y-95142857D01*
X127997619Y-95142857D01*
X128854761Y-94238095D02*
X128902380Y-94333333D01*
X128902380Y-94523809D01*
X128854761Y-94619047D01*
X128807142Y-94666666D01*
X128711904Y-94714285D01*
X128426190Y-94714285D01*
X128330952Y-94666666D01*
X128283333Y-94619047D01*
X128235714Y-94523809D01*
X128235714Y-94333333D01*
X128283333Y-94238095D01*
X128902380Y-93666666D02*
X128854761Y-93761904D01*
X128759523Y-93809523D01*
X127902380Y-93809523D01*
X128854761Y-92904761D02*
X128902380Y-93000000D01*
X128902380Y-93190476D01*
X128854761Y-93285714D01*
X128759523Y-93333333D01*
X128378571Y-93333333D01*
X128283333Y-93285714D01*
X128235714Y-93190476D01*
X128235714Y-93000000D01*
X128283333Y-92904761D01*
X128378571Y-92857142D01*
X128473809Y-92857142D01*
X128569047Y-93333333D01*
X128378571Y-92428571D02*
X128378571Y-92095238D01*
X128902380Y-91952380D02*
X128902380Y-92428571D01*
X127902380Y-92428571D01*
X127902380Y-91952380D01*
X128902380Y-91380952D02*
X128854761Y-91476190D01*
X128759523Y-91523809D01*
X127902380Y-91523809D01*
X128854761Y-90619047D02*
X128902380Y-90714285D01*
X128902380Y-90904761D01*
X128854761Y-91000000D01*
X128759523Y-91047619D01*
X128378571Y-91047619D01*
X128283333Y-91000000D01*
X128235714Y-90904761D01*
X128235714Y-90714285D01*
X128283333Y-90619047D01*
X128378571Y-90571428D01*
X128473809Y-90571428D01*
X128569047Y-91047619D01*
X128854761Y-89714285D02*
X128902380Y-89809523D01*
X128902380Y-90000000D01*
X128854761Y-90095238D01*
X128807142Y-90142857D01*
X128711904Y-90190476D01*
X128426190Y-90190476D01*
X128330952Y-90142857D01*
X128283333Y-90095238D01*
X128235714Y-90000000D01*
X128235714Y-89809523D01*
X128283333Y-89714285D01*
X128235714Y-89428571D02*
X128235714Y-89047619D01*
X127902380Y-89285714D02*
X128759523Y-89285714D01*
X128854761Y-89238095D01*
X128902380Y-89142857D01*
X128902380Y-89047619D01*
X128902380Y-88714285D02*
X128235714Y-88714285D01*
X128426190Y-88714285D02*
X128330952Y-88666666D01*
X128283333Y-88619047D01*
X128235714Y-88523809D01*
X128235714Y-88428571D01*
X128902380Y-87952380D02*
X128854761Y-88047619D01*
X128807142Y-88095238D01*
X128711904Y-88142857D01*
X128426190Y-88142857D01*
X128330952Y-88095238D01*
X128283333Y-88047619D01*
X128235714Y-87952380D01*
X128235714Y-87809523D01*
X128283333Y-87714285D01*
X128330952Y-87666666D01*
X128426190Y-87619047D01*
X128711904Y-87619047D01*
X128807142Y-87666666D01*
X128854761Y-87714285D01*
X128902380Y-87809523D01*
X128902380Y-87952380D01*
X128235714Y-87190476D02*
X128902380Y-87190476D01*
X128330952Y-87190476D02*
X128283333Y-87142857D01*
X128235714Y-87047619D01*
X128235714Y-86904761D01*
X128283333Y-86809523D01*
X128378571Y-86761904D01*
X128902380Y-86761904D01*
X186502380Y-87438095D02*
X185502380Y-87438095D01*
X185502380Y-87200000D01*
X185550000Y-87057142D01*
X185645238Y-86961904D01*
X185740476Y-86914285D01*
X185930952Y-86866666D01*
X186073809Y-86866666D01*
X186264285Y-86914285D01*
X186359523Y-86961904D01*
X186454761Y-87057142D01*
X186502380Y-87200000D01*
X186502380Y-87438095D01*
X186502380Y-85914285D02*
X186502380Y-86485714D01*
X186502380Y-86200000D02*
X185502380Y-86200000D01*
X185645238Y-86295238D01*
X185740476Y-86390476D01*
X185788095Y-86485714D01*
X188206361Y-81424256D02*
X187206361Y-81424256D01*
X188206361Y-80852828D02*
X187634933Y-81281399D01*
X187206361Y-80852828D02*
X187777790Y-81424256D01*
X168216666Y-110328571D02*
X167883333Y-110328571D01*
X167883333Y-110852380D02*
X167883333Y-109852380D01*
X168359523Y-109852380D01*
X169264285Y-110852380D02*
X168692857Y-110852380D01*
X168978571Y-110852380D02*
X168978571Y-109852380D01*
X168883333Y-109995238D01*
X168788095Y-110090476D01*
X168692857Y-110138095D01*
X170057755Y-116999890D02*
X169724422Y-116999890D01*
X169724422Y-117523699D02*
X169724422Y-116523699D01*
X170200612Y-116523699D01*
X170486327Y-116523699D02*
X171105374Y-116523699D01*
X170772041Y-116904652D01*
X170914898Y-116904652D01*
X171010136Y-116952271D01*
X171057755Y-116999890D01*
X171105374Y-117095128D01*
X171105374Y-117333223D01*
X171057755Y-117428461D01*
X171010136Y-117476080D01*
X170914898Y-117523699D01*
X170629184Y-117523699D01*
X170533946Y-117476080D01*
X170486327Y-117428461D01*
X184004761Y-73247619D02*
X183909523Y-73200000D01*
X183814285Y-73104761D01*
X183671428Y-72961904D01*
X183576190Y-72914285D01*
X183480952Y-72914285D01*
X183528571Y-73152380D02*
X183433333Y-73104761D01*
X183338095Y-73009523D01*
X183290476Y-72819047D01*
X183290476Y-72485714D01*
X183338095Y-72295238D01*
X183433333Y-72200000D01*
X183528571Y-72152380D01*
X183719047Y-72152380D01*
X183814285Y-72200000D01*
X183909523Y-72295238D01*
X183957142Y-72485714D01*
X183957142Y-72819047D01*
X183909523Y-73009523D01*
X183814285Y-73104761D01*
X183719047Y-73152380D01*
X183528571Y-73152380D01*
X184909523Y-73152380D02*
X184338095Y-73152380D01*
X184623809Y-73152380D02*
X184623809Y-72152380D01*
X184528571Y-72295238D01*
X184433333Y-72390476D01*
X184338095Y-72438095D01*
X189852380Y-86316666D02*
X189376190Y-86650000D01*
X189852380Y-86888095D02*
X188852380Y-86888095D01*
X188852380Y-86507142D01*
X188900000Y-86411904D01*
X188947619Y-86364285D01*
X189042857Y-86316666D01*
X189185714Y-86316666D01*
X189280952Y-86364285D01*
X189328571Y-86411904D01*
X189376190Y-86507142D01*
X189376190Y-86888095D01*
X189852380Y-85364285D02*
X189852380Y-85935714D01*
X189852380Y-85650000D02*
X188852380Y-85650000D01*
X188995238Y-85745238D01*
X189090476Y-85840476D01*
X189138095Y-85935714D01*
X175652380Y-86016666D02*
X175176190Y-86350000D01*
X175652380Y-86588095D02*
X174652380Y-86588095D01*
X174652380Y-86207142D01*
X174700000Y-86111904D01*
X174747619Y-86064285D01*
X174842857Y-86016666D01*
X174985714Y-86016666D01*
X175080952Y-86064285D01*
X175128571Y-86111904D01*
X175176190Y-86207142D01*
X175176190Y-86588095D01*
X174747619Y-85635714D02*
X174700000Y-85588095D01*
X174652380Y-85492857D01*
X174652380Y-85254761D01*
X174700000Y-85159523D01*
X174747619Y-85111904D01*
X174842857Y-85064285D01*
X174938095Y-85064285D01*
X175080952Y-85111904D01*
X175652380Y-85683333D01*
X175652380Y-85064285D01*
X180433333Y-77802380D02*
X180100000Y-77326190D01*
X179861904Y-77802380D02*
X179861904Y-76802380D01*
X180242857Y-76802380D01*
X180338095Y-76850000D01*
X180385714Y-76897619D01*
X180433333Y-76992857D01*
X180433333Y-77135714D01*
X180385714Y-77230952D01*
X180338095Y-77278571D01*
X180242857Y-77326190D01*
X179861904Y-77326190D01*
X180766666Y-76802380D02*
X181385714Y-76802380D01*
X181052380Y-77183333D01*
X181195238Y-77183333D01*
X181290476Y-77230952D01*
X181338095Y-77278571D01*
X181385714Y-77373809D01*
X181385714Y-77611904D01*
X181338095Y-77707142D01*
X181290476Y-77754761D01*
X181195238Y-77802380D01*
X180909523Y-77802380D01*
X180814285Y-77754761D01*
X180766666Y-77707142D01*
X180283333Y-68252380D02*
X179950000Y-67776190D01*
X179711904Y-68252380D02*
X179711904Y-67252380D01*
X180092857Y-67252380D01*
X180188095Y-67300000D01*
X180235714Y-67347619D01*
X180283333Y-67442857D01*
X180283333Y-67585714D01*
X180235714Y-67680952D01*
X180188095Y-67728571D01*
X180092857Y-67776190D01*
X179711904Y-67776190D01*
X181140476Y-67585714D02*
X181140476Y-68252380D01*
X180902380Y-67204761D02*
X180664285Y-67919047D01*
X181283333Y-67919047D01*
X191802380Y-105461904D02*
X192611904Y-105461904D01*
X192707142Y-105414285D01*
X192754761Y-105366666D01*
X192802380Y-105271428D01*
X192802380Y-105080952D01*
X192754761Y-104985714D01*
X192707142Y-104938095D01*
X192611904Y-104890476D01*
X191802380Y-104890476D01*
X191897619Y-104461904D02*
X191850000Y-104414285D01*
X191802380Y-104319047D01*
X191802380Y-104080952D01*
X191850000Y-103985714D01*
X191897619Y-103938095D01*
X191992857Y-103890476D01*
X192088095Y-103890476D01*
X192230952Y-103938095D01*
X192802380Y-104509523D01*
X192802380Y-103890476D01*
X181897380Y-112109761D02*
X181897380Y-111538333D01*
X182897380Y-111824047D02*
X181897380Y-111824047D01*
X182897380Y-110633571D02*
X182421190Y-110966904D01*
X182897380Y-111205000D02*
X181897380Y-111205000D01*
X181897380Y-110824047D01*
X181945000Y-110728809D01*
X181992619Y-110681190D01*
X182087857Y-110633571D01*
X182230714Y-110633571D01*
X182325952Y-110681190D01*
X182373571Y-110728809D01*
X182421190Y-110824047D01*
X182421190Y-111205000D01*
X182849761Y-110252619D02*
X182897380Y-110109761D01*
X182897380Y-109871666D01*
X182849761Y-109776428D01*
X182802142Y-109728809D01*
X182706904Y-109681190D01*
X182611666Y-109681190D01*
X182516428Y-109728809D01*
X182468809Y-109776428D01*
X182421190Y-109871666D01*
X182373571Y-110062142D01*
X182325952Y-110157380D01*
X182278333Y-110205000D01*
X182183095Y-110252619D01*
X182087857Y-110252619D01*
X181992619Y-110205000D01*
X181945000Y-110157380D01*
X181897380Y-110062142D01*
X181897380Y-109824047D01*
X181945000Y-109681190D01*
X181992619Y-108538333D02*
X181945000Y-108490714D01*
X181897380Y-108395476D01*
X181897380Y-108157380D01*
X181945000Y-108062142D01*
X181992619Y-108014523D01*
X182087857Y-107966904D01*
X182183095Y-107966904D01*
X182325952Y-108014523D01*
X182897380Y-108585952D01*
X182897380Y-107966904D01*
X181992619Y-106824047D02*
X181945000Y-106776428D01*
X181897380Y-106681190D01*
X181897380Y-106443095D01*
X181945000Y-106347857D01*
X181992619Y-106300238D01*
X182087857Y-106252619D01*
X182183095Y-106252619D01*
X182325952Y-106300238D01*
X182897380Y-106871666D01*
X182897380Y-106252619D01*
X182230714Y-105395476D02*
X182897380Y-105395476D01*
X181849761Y-105633571D02*
X182564047Y-105871666D01*
X182564047Y-105252619D01*
X181897380Y-104395476D02*
X181897380Y-104871666D01*
X182373571Y-104919285D01*
X182325952Y-104871666D01*
X182278333Y-104776428D01*
X182278333Y-104538333D01*
X182325952Y-104443095D01*
X182373571Y-104395476D01*
X182468809Y-104347857D01*
X182706904Y-104347857D01*
X182802142Y-104395476D01*
X182849761Y-104443095D01*
X182897380Y-104538333D01*
X182897380Y-104776428D01*
X182849761Y-104871666D01*
X182802142Y-104919285D01*
X181897380Y-103728809D02*
X181897380Y-103633571D01*
X181945000Y-103538333D01*
X181992619Y-103490714D01*
X182087857Y-103443095D01*
X182278333Y-103395476D01*
X182516428Y-103395476D01*
X182706904Y-103443095D01*
X182802142Y-103490714D01*
X182849761Y-103538333D01*
X182897380Y-103633571D01*
X182897380Y-103728809D01*
X182849761Y-103824047D01*
X182802142Y-103871666D01*
X182706904Y-103919285D01*
X182516428Y-103966904D01*
X182278333Y-103966904D01*
X182087857Y-103919285D01*
X181992619Y-103871666D01*
X181945000Y-103824047D01*
X181897380Y-103728809D01*
X132778095Y-73597380D02*
X132778095Y-74406904D01*
X132825714Y-74502142D01*
X132873333Y-74549761D01*
X132968571Y-74597380D01*
X133159047Y-74597380D01*
X133254285Y-74549761D01*
X133301904Y-74502142D01*
X133349523Y-74406904D01*
X133349523Y-73597380D01*
X134254285Y-73930714D02*
X134254285Y-74597380D01*
X134016190Y-73549761D02*
X133778095Y-74264047D01*
X134397142Y-74264047D01*
X129619285Y-76502380D02*
X129619285Y-75502380D01*
X130047857Y-75597619D02*
X130095476Y-75550000D01*
X130190714Y-75502380D01*
X130428809Y-75502380D01*
X130524047Y-75550000D01*
X130571666Y-75597619D01*
X130619285Y-75692857D01*
X130619285Y-75788095D01*
X130571666Y-75930952D01*
X130000238Y-76502380D01*
X130619285Y-76502380D01*
X131619285Y-76407142D02*
X131571666Y-76454761D01*
X131428809Y-76502380D01*
X131333571Y-76502380D01*
X131190714Y-76454761D01*
X131095476Y-76359523D01*
X131047857Y-76264285D01*
X131000238Y-76073809D01*
X131000238Y-75930952D01*
X131047857Y-75740476D01*
X131095476Y-75645238D01*
X131190714Y-75550000D01*
X131333571Y-75502380D01*
X131428809Y-75502380D01*
X131571666Y-75550000D01*
X131619285Y-75597619D01*
X133143095Y-75978571D02*
X132809761Y-75978571D01*
X132809761Y-76502380D02*
X132809761Y-75502380D01*
X133285952Y-75502380D01*
X134238333Y-76502380D02*
X133905000Y-76026190D01*
X133666904Y-76502380D02*
X133666904Y-75502380D01*
X134047857Y-75502380D01*
X134143095Y-75550000D01*
X134190714Y-75597619D01*
X134238333Y-75692857D01*
X134238333Y-75835714D01*
X134190714Y-75930952D01*
X134143095Y-75978571D01*
X134047857Y-76026190D01*
X133666904Y-76026190D01*
X134619285Y-76216666D02*
X135095476Y-76216666D01*
X134524047Y-76502380D02*
X134857380Y-75502380D01*
X135190714Y-76502380D01*
X135524047Y-76502380D02*
X135524047Y-75502380D01*
X135857380Y-76216666D01*
X136190714Y-75502380D01*
X136190714Y-76502380D01*
X141882380Y-71668333D02*
X142882380Y-71335000D01*
X141882380Y-71001666D01*
X142787142Y-70096904D02*
X142834761Y-70144523D01*
X142882380Y-70287380D01*
X142882380Y-70382619D01*
X142834761Y-70525476D01*
X142739523Y-70620714D01*
X142644285Y-70668333D01*
X142453809Y-70715952D01*
X142310952Y-70715952D01*
X142120476Y-70668333D01*
X142025238Y-70620714D01*
X141930000Y-70525476D01*
X141882380Y-70382619D01*
X141882380Y-70287380D01*
X141930000Y-70144523D01*
X141977619Y-70096904D01*
X142787142Y-69096904D02*
X142834761Y-69144523D01*
X142882380Y-69287380D01*
X142882380Y-69382619D01*
X142834761Y-69525476D01*
X142739523Y-69620714D01*
X142644285Y-69668333D01*
X142453809Y-69715952D01*
X142310952Y-69715952D01*
X142120476Y-69668333D01*
X142025238Y-69620714D01*
X141930000Y-69525476D01*
X141882380Y-69382619D01*
X141882380Y-69287380D01*
X141930000Y-69144523D01*
X141977619Y-69096904D01*
X139390000Y-71096904D02*
X139342380Y-71192142D01*
X139342380Y-71335000D01*
X139390000Y-71477857D01*
X139485238Y-71573095D01*
X139580476Y-71620714D01*
X139770952Y-71668333D01*
X139913809Y-71668333D01*
X140104285Y-71620714D01*
X140199523Y-71573095D01*
X140294761Y-71477857D01*
X140342380Y-71335000D01*
X140342380Y-71239761D01*
X140294761Y-71096904D01*
X140247142Y-71049285D01*
X139913809Y-71049285D01*
X139913809Y-71239761D01*
X140342380Y-70620714D02*
X139342380Y-70620714D01*
X140342380Y-70049285D01*
X139342380Y-70049285D01*
X140342380Y-69573095D02*
X139342380Y-69573095D01*
X139342380Y-69335000D01*
X139390000Y-69192142D01*
X139485238Y-69096904D01*
X139580476Y-69049285D01*
X139770952Y-69001666D01*
X139913809Y-69001666D01*
X140104285Y-69049285D01*
X140199523Y-69096904D01*
X140294761Y-69192142D01*
X140342380Y-69335000D01*
X140342380Y-69573095D01*
X136802380Y-71263571D02*
X137802380Y-71025476D01*
X137088095Y-70835000D01*
X137802380Y-70644523D01*
X136802380Y-70406428D01*
X137802380Y-70025476D02*
X136802380Y-70025476D01*
X136802380Y-69644523D01*
X136850000Y-69549285D01*
X136897619Y-69501666D01*
X136992857Y-69454047D01*
X137135714Y-69454047D01*
X137230952Y-69501666D01*
X137278571Y-69549285D01*
X137326190Y-69644523D01*
X137326190Y-70025476D01*
X135214761Y-71525476D02*
X135262380Y-71382619D01*
X135262380Y-71144523D01*
X135214761Y-71049285D01*
X135167142Y-71001666D01*
X135071904Y-70954047D01*
X134976666Y-70954047D01*
X134881428Y-71001666D01*
X134833809Y-71049285D01*
X134786190Y-71144523D01*
X134738571Y-71335000D01*
X134690952Y-71430238D01*
X134643333Y-71477857D01*
X134548095Y-71525476D01*
X134452857Y-71525476D01*
X134357619Y-71477857D01*
X134310000Y-71430238D01*
X134262380Y-71335000D01*
X134262380Y-71096904D01*
X134310000Y-70954047D01*
X135167142Y-69954047D02*
X135214761Y-70001666D01*
X135262380Y-70144523D01*
X135262380Y-70239761D01*
X135214761Y-70382619D01*
X135119523Y-70477857D01*
X135024285Y-70525476D01*
X134833809Y-70573095D01*
X134690952Y-70573095D01*
X134500476Y-70525476D01*
X134405238Y-70477857D01*
X134310000Y-70382619D01*
X134262380Y-70239761D01*
X134262380Y-70144523D01*
X134310000Y-70001666D01*
X134357619Y-69954047D01*
X135262380Y-69049285D02*
X135262380Y-69525476D01*
X134262380Y-69525476D01*
X132674761Y-71549285D02*
X132722380Y-71406428D01*
X132722380Y-71168333D01*
X132674761Y-71073095D01*
X132627142Y-71025476D01*
X132531904Y-70977857D01*
X132436666Y-70977857D01*
X132341428Y-71025476D01*
X132293809Y-71073095D01*
X132246190Y-71168333D01*
X132198571Y-71358809D01*
X132150952Y-71454047D01*
X132103333Y-71501666D01*
X132008095Y-71549285D01*
X131912857Y-71549285D01*
X131817619Y-71501666D01*
X131770000Y-71454047D01*
X131722380Y-71358809D01*
X131722380Y-71120714D01*
X131770000Y-70977857D01*
X132722380Y-70549285D02*
X131722380Y-70549285D01*
X131722380Y-70311190D01*
X131770000Y-70168333D01*
X131865238Y-70073095D01*
X131960476Y-70025476D01*
X132150952Y-69977857D01*
X132293809Y-69977857D01*
X132484285Y-70025476D01*
X132579523Y-70073095D01*
X132674761Y-70168333D01*
X132722380Y-70311190D01*
X132722380Y-70549285D01*
X132436666Y-69596904D02*
X132436666Y-69120714D01*
X132722380Y-69692142D02*
X131722380Y-69358809D01*
X132722380Y-69025476D01*
X129896666Y-71049285D02*
X129896666Y-70573095D01*
X130182380Y-71144523D02*
X129182380Y-70811190D01*
X130182380Y-70477857D01*
X129277619Y-70192142D02*
X129230000Y-70144523D01*
X129182380Y-70049285D01*
X129182380Y-69811190D01*
X129230000Y-69715952D01*
X129277619Y-69668333D01*
X129372857Y-69620714D01*
X129468095Y-69620714D01*
X129610952Y-69668333D01*
X130182380Y-70239761D01*
X130182380Y-69620714D01*
X127356666Y-71049285D02*
X127356666Y-70573095D01*
X127642380Y-71144523D02*
X126642380Y-70811190D01*
X127642380Y-70477857D01*
X127642380Y-69620714D02*
X127642380Y-70192142D01*
X127642380Y-69906428D02*
X126642380Y-69906428D01*
X126785238Y-70001666D01*
X126880476Y-70096904D01*
X126928095Y-70192142D01*
X124816666Y-71049285D02*
X124816666Y-70573095D01*
X125102380Y-71144523D02*
X124102380Y-70811190D01*
X125102380Y-70477857D01*
X124102380Y-69954047D02*
X124102380Y-69858809D01*
X124150000Y-69763571D01*
X124197619Y-69715952D01*
X124292857Y-69668333D01*
X124483333Y-69620714D01*
X124721428Y-69620714D01*
X124911904Y-69668333D01*
X125007142Y-69715952D01*
X125054761Y-69763571D01*
X125102380Y-69858809D01*
X125102380Y-69954047D01*
X125054761Y-70049285D01*
X125007142Y-70096904D01*
X124911904Y-70144523D01*
X124721428Y-70192142D01*
X124483333Y-70192142D01*
X124292857Y-70144523D01*
X124197619Y-70096904D01*
X124150000Y-70049285D01*
X124102380Y-69954047D01*
X180002380Y-86411904D02*
X180811904Y-86411904D01*
X180907142Y-86364285D01*
X180954761Y-86316666D01*
X181002380Y-86221428D01*
X181002380Y-86030952D01*
X180954761Y-85935714D01*
X180907142Y-85888095D01*
X180811904Y-85840476D01*
X180002380Y-85840476D01*
X180002380Y-85459523D02*
X180002380Y-84792857D01*
X181002380Y-85221428D01*
X169879166Y-110308571D02*
X169545833Y-110308571D01*
X169545833Y-110832380D02*
X169545833Y-109832380D01*
X170022023Y-109832380D01*
X170831547Y-110165714D02*
X170831547Y-110832380D01*
X170593452Y-109784761D02*
X170355357Y-110499047D01*
X170974404Y-110499047D01*
X186328571Y-92952380D02*
X185757142Y-92952380D01*
X186042857Y-92952380D02*
X186042857Y-91952380D01*
X185947619Y-92095238D01*
X185852380Y-92190476D01*
X185757142Y-92238095D01*
X187185714Y-92285714D02*
X187185714Y-92952380D01*
X186757142Y-92285714D02*
X186757142Y-92809523D01*
X186804761Y-92904761D01*
X186900000Y-92952380D01*
X187042857Y-92952380D01*
X187138095Y-92904761D01*
X187185714Y-92857142D01*
X187995238Y-92428571D02*
X187661904Y-92428571D01*
X187661904Y-92952380D02*
X187661904Y-91952380D01*
X188138095Y-91952380D01*
X189042857Y-92952380D02*
X188471428Y-92952380D01*
X188757142Y-92952380D02*
X188757142Y-91952380D01*
X188661904Y-92095238D01*
X188566666Y-92190476D01*
X188471428Y-92238095D01*
X174652380Y-99935714D02*
X174652380Y-99316666D01*
X175033333Y-99650000D01*
X175033333Y-99507142D01*
X175080952Y-99411904D01*
X175128571Y-99364285D01*
X175223809Y-99316666D01*
X175461904Y-99316666D01*
X175557142Y-99364285D01*
X175604761Y-99411904D01*
X175652380Y-99507142D01*
X175652380Y-99792857D01*
X175604761Y-99888095D01*
X175557142Y-99935714D01*
X175652380Y-98364285D02*
X175652380Y-98935714D01*
X175652380Y-98650000D02*
X174652380Y-98650000D01*
X174795238Y-98745238D01*
X174890476Y-98840476D01*
X174938095Y-98935714D01*
X175652380Y-97935714D02*
X174652380Y-97935714D01*
X175652380Y-97364285D02*
X175080952Y-97792857D01*
X174652380Y-97364285D02*
X175223809Y-97935714D01*
X175652380Y-96411904D02*
X175652380Y-96983333D01*
X175652380Y-96697619D02*
X174652380Y-96697619D01*
X174795238Y-96792857D01*
X174890476Y-96888095D01*
X174938095Y-96983333D01*
X178185714Y-99554761D02*
X178852380Y-99554761D01*
X177804761Y-99792857D02*
X178519047Y-100030952D01*
X178519047Y-99411904D01*
X178757142Y-99030952D02*
X178804761Y-98983333D01*
X178852380Y-99030952D01*
X178804761Y-99078571D01*
X178757142Y-99030952D01*
X178852380Y-99030952D01*
X177852380Y-98650000D02*
X177852380Y-97983333D01*
X178852380Y-98411904D01*
X178852380Y-97602380D02*
X177852380Y-97602380D01*
X178471428Y-97507142D02*
X178852380Y-97221428D01*
X178185714Y-97221428D02*
X178566666Y-97602380D01*
X178852380Y-96269047D02*
X178852380Y-96840476D01*
X178852380Y-96554761D02*
X177852380Y-96554761D01*
X177995238Y-96650000D01*
X178090476Y-96745238D01*
X178138095Y-96840476D01*
X184222380Y-99448095D02*
X183222380Y-99448095D01*
X183222380Y-99210000D01*
X183270000Y-99067142D01*
X183365238Y-98971904D01*
X183460476Y-98924285D01*
X183650952Y-98876666D01*
X183793809Y-98876666D01*
X183984285Y-98924285D01*
X184079523Y-98971904D01*
X184174761Y-99067142D01*
X184222380Y-99210000D01*
X184222380Y-99448095D01*
X183317619Y-98495714D02*
X183270000Y-98448095D01*
X183222380Y-98352857D01*
X183222380Y-98114761D01*
X183270000Y-98019523D01*
X183317619Y-97971904D01*
X183412857Y-97924285D01*
X183508095Y-97924285D01*
X183650952Y-97971904D01*
X184222380Y-98543333D01*
X184222380Y-97924285D01*
X183852380Y-95161904D02*
X182852380Y-95161904D01*
X183852380Y-94590476D02*
X183280952Y-95019047D01*
X182852380Y-94590476D02*
X183423809Y-95161904D01*
X196702380Y-93433333D02*
X197416666Y-93433333D01*
X197559523Y-93480952D01*
X197654761Y-93576190D01*
X197702380Y-93719047D01*
X197702380Y-93814285D01*
X197702380Y-92433333D02*
X197702380Y-93004761D01*
X197702380Y-92719047D02*
X196702380Y-92719047D01*
X196845238Y-92814285D01*
X196940476Y-92909523D01*
X196988095Y-93004761D01*
X196602380Y-109433333D02*
X197316666Y-109433333D01*
X197459523Y-109480952D01*
X197554761Y-109576190D01*
X197602380Y-109719047D01*
X197602380Y-109814285D01*
X196697619Y-109004761D02*
X196650000Y-108957142D01*
X196602380Y-108861904D01*
X196602380Y-108623809D01*
X196650000Y-108528571D01*
X196697619Y-108480952D01*
X196792857Y-108433333D01*
X196888095Y-108433333D01*
X197030952Y-108480952D01*
X197602380Y-109052380D01*
X197602380Y-108433333D01*
X111866666Y-106452380D02*
X111866666Y-107166666D01*
X111819047Y-107309523D01*
X111723809Y-107404761D01*
X111580952Y-107452380D01*
X111485714Y-107452380D01*
X112771428Y-106785714D02*
X112771428Y-107452380D01*
X112533333Y-106404761D02*
X112295238Y-107119047D01*
X112914285Y-107119047D01*
M02*
